M48
; DRILL file {KiCad 8.0.6} date 2024-12-13T11:58:01-0500
; FORMAT={-:-/ absolute / inch / decimal}
; #@! TF.CreationDate,2024-12-13T11:58:01-05:00
; #@! TF.GenerationSoftware,Kicad,Pcbnew,8.0.6
; #@! TF.FileFunction,Plated,1,4,PTH
FMAT,2
INCH
; #@! TA.AperFunction,Plated,PTH,ViaDrill
T1C0.0157
; #@! TA.AperFunction,Plated,PTH,ComponentDrill
T2C0.0236
; #@! TA.AperFunction,Plated,PTH,ComponentDrill
T3C0.0256
; #@! TA.AperFunction,Plated,PTH,ComponentDrill
T4C0.0276
; #@! TA.AperFunction,Plated,PTH,ComponentDrill
T5C0.0287
; #@! TA.AperFunction,Plated,PTH,ComponentDrill
T6C0.0394
; #@! TA.AperFunction,Plated,PTH,ComponentDrill
T7C0.0866
%
G90
G05
T1
X2.3278Y-4.1457
X2.3885Y-4.6508
X2.4318Y-4.8594
X2.5177Y-4.4331
X2.5539Y-4.0602
X2.6169Y-4.952
X2.6575Y-3.3583
X2.6909Y-3.8504
X2.7369Y-4.6331
X2.8078Y-4.3476
X2.8386Y-4.8878
X2.9732Y-3.9106
X3.2539Y-5.0728
X3.3245Y-3.3601
X3.3747Y-3.7807
X3.3856Y-4.4499
X3.4193Y-4.3366
X3.4506Y-4.4249
X3.464Y-4.5059
X3.4732Y-3.887
X3.502Y-4.7461
X3.5582Y-4.3848
X3.5706Y-4.5253
X3.5795Y-4.7177
X3.5984Y-4.1398
X3.6267Y-3.9835
X3.6267Y-5.072
X3.6634Y-4.7638
X3.7035Y-4.3949
X3.7421Y-4.3359
X3.7468Y-4.5091
X3.7566Y-4.4254
X3.7889Y-4.2749
X3.7933Y-3.7972
X3.8346Y-4.7992
X3.8353Y-4.483
X3.8353Y-4.75
X3.8543Y-4.1959
X3.8863Y-4.2907
X3.9114Y-4.5
X3.9297Y-4.4208
X3.9355Y-4.2051
X3.9508Y-4.0059
X3.9781Y-4.3752
X3.9841Y-3.3445
X3.9946Y-4.2339
X4.0063Y-4.4863
X4.0194Y-4.442
X4.0634Y-4.7593
X4.1129Y-4.6526
X4.1634Y-4.6476
X4.1671Y-4.4073
X4.1732Y-3.7244
X4.1777Y-4.8343
X4.2428Y-4.5799
X4.296Y-3.9244
X4.3176Y-4.1665
X4.3196Y-4.2531
X4.3423Y-4.0451
X4.3531Y-4.194
X4.4101Y-4.0339
X4.4101Y-4.2466
X4.5217Y-4.5486
X4.6652Y-3.3782
X4.9016Y-4.7815
X4.9902Y-3.8169
X5.4035Y-4.4016
X5.4055Y-4.2421
X5.4094Y-4.3169
X5.4114Y-4.5177
T2
X2.9921Y-4.1161
X3.1995Y-4.9283
X3.687Y-3.8228
X3.7402Y-3.6417
X4.3039Y-4.4008
T3
X5.2382Y-4.2276
X5.2882Y-4.2276
T4
X5.2382Y-4.2776
X5.2382Y-4.3276
X5.2382Y-4.3776
X5.2382Y-4.4276
X5.2382Y-4.4776
X5.2382Y-4.5276
X5.2882Y-4.2776
X5.2882Y-4.3276
X5.2882Y-4.3776
X5.2882Y-4.4276
X5.2882Y-4.4776
X5.2882Y-4.5276
T5
X2.1936Y-3.8496
X2.1936Y-3.9087
T6
X2.247Y-3.124
X2.347Y-3.124
X2.9535Y-5.0031
X2.9535Y-5.1031
X2.9535Y-5.2031
X3.2645Y-4.3638
X3.2645Y-4.4638
X3.2645Y-4.5638
X3.2893Y-5.1902
X3.3893Y-5.1902
X3.4893Y-5.1902
X3.5893Y-5.1902
X3.7176Y-4.9205
X3.8176Y-4.9205
X3.8587Y-5.1752
X3.9176Y-4.9205
X3.9297Y-3.8969
X3.9587Y-5.1752
X4.0297Y-3.8969
X4.0587Y-5.1752
X4.1297Y-3.8969
X4.1587Y-5.1752
X4.4346Y-4.5811
X4.4346Y-4.6811
X4.4346Y-4.7811
X4.4346Y-4.8811
X4.4614Y-3.7215
X4.4614Y-3.8215
X4.4614Y-3.9215
X4.5302Y-4.1585
X4.5302Y-4.2585
X4.5302Y-4.3585
T7
X2.1909Y-3.5059
X2.1929Y-5.2047
X5.3268Y-3.5
X5.3268Y-5.2008
M30
