%TF.GenerationSoftware,KiCad,Pcbnew,8.0.6*%
%TF.CreationDate,2024-12-13T11:58:04-05:00*%
%TF.ProjectId,11_9_design,31315f39-5f64-4657-9369-676e2e6b6963,v6*%
%TF.SameCoordinates,Original*%
%TF.FileFunction,Soldermask,Bot*%
%TF.FilePolarity,Negative*%
%FSLAX46Y46*%
G04 Gerber Fmt 4.6, Leading zero omitted, Abs format (unit mm)*
G04 Created by KiCad (PCBNEW 8.0.6) date 2024-12-13 11:58:04*
%MOMM*%
%LPD*%
G01*
G04 APERTURE LIST*
G04 Aperture macros list*
%AMRoundRect*
0 Rectangle with rounded corners*
0 $1 Rounding radius*
0 $2 $3 $4 $5 $6 $7 $8 $9 X,Y pos of 4 corners*
0 Add a 4 corners polygon primitive as box body*
4,1,4,$2,$3,$4,$5,$6,$7,$8,$9,$2,$3,0*
0 Add four circle primitives for the rounded corners*
1,1,$1+$1,$2,$3*
1,1,$1+$1,$4,$5*
1,1,$1+$1,$6,$7*
1,1,$1+$1,$8,$9*
0 Add four rect primitives between the rounded corners*
20,1,$1+$1,$2,$3,$4,$5,0*
20,1,$1+$1,$4,$5,$6,$7,0*
20,1,$1+$1,$6,$7,$8,$9,0*
20,1,$1+$1,$8,$9,$2,$3,0*%
G04 Aperture macros list end*
%ADD10C,3.000000*%
%ADD11C,1.000000*%
%ADD12R,1.700000X1.700000*%
%ADD13O,1.700000X1.700000*%
%ADD14RoundRect,0.250000X0.615000X-0.265000X0.615000X0.265000X-0.615000X0.265000X-0.615000X-0.265000X0*%
%ADD15O,1.730000X1.030000*%
%ADD16RoundRect,0.250000X-0.550000X-0.550000X0.550000X-0.550000X0.550000X0.550000X-0.550000X0.550000X0*%
G04 APERTURE END LIST*
D10*
%TO.C,*%
X135300000Y-88900000D03*
%TD*%
%TO.C,*%
X135300000Y-132100000D03*
%TD*%
%TO.C,*%
X55700000Y-132200000D03*
%TD*%
%TO.C,*%
X55650000Y-89050000D03*
%TD*%
D11*
%TO.C,J12*%
X134320000Y-107380000D03*
X133050000Y-107380000D03*
X134320000Y-108650000D03*
X133050000Y-108650000D03*
X134320000Y-109920000D03*
X133050000Y-109920000D03*
X134320000Y-111190000D03*
X133050000Y-111190000D03*
X134320000Y-112460000D03*
X133050000Y-112460000D03*
X134320000Y-113730000D03*
X133050000Y-113730000D03*
X134320000Y-115000000D03*
X133050000Y-115000000D03*
%TD*%
D12*
%TO.C,J5*%
X57075000Y-79350000D03*
D13*
X59615000Y-79350000D03*
%TD*%
D12*
%TO.C,J4*%
X82918300Y-110840000D03*
D13*
X82918300Y-113380000D03*
X82918300Y-115920000D03*
%TD*%
D14*
%TO.C,J11*%
X55718300Y-99280000D03*
D15*
X55718300Y-97780000D03*
%TD*%
D16*
%TO.C,J7*%
X93650000Y-97100000D03*
%TD*%
D12*
%TO.C,J1*%
X98010000Y-131450000D03*
D13*
X100550000Y-131450000D03*
X103090000Y-131450000D03*
X105630000Y-131450000D03*
%TD*%
D12*
%TO.C,J2*%
X91168300Y-131830000D03*
D13*
X88628300Y-131830000D03*
X86088300Y-131830000D03*
X83548300Y-131830000D03*
%TD*%
D12*
%TO.C,J10*%
X115068300Y-110705000D03*
D13*
X115068300Y-108165000D03*
X115068300Y-105625000D03*
%TD*%
D16*
%TO.C,J15*%
X109318300Y-111780000D03*
%TD*%
D12*
%TO.C,J6*%
X104893300Y-98980000D03*
D13*
X102353300Y-98980000D03*
X99813300Y-98980000D03*
%TD*%
D12*
%TO.C,J3*%
X112638300Y-123980000D03*
D13*
X112638300Y-121440000D03*
X112638300Y-118900000D03*
X112638300Y-116360000D03*
%TD*%
D12*
%TO.C,J23*%
X113318300Y-99605000D03*
D13*
X113318300Y-97065000D03*
X113318300Y-94525000D03*
%TD*%
D12*
%TO.C,J9*%
X99508300Y-124980000D03*
D13*
X96968300Y-124980000D03*
X94428300Y-124980000D03*
%TD*%
D16*
%TO.C,J13*%
X81268300Y-125180000D03*
%TD*%
%TO.C,J14*%
X95000000Y-92500000D03*
%TD*%
%TO.C,J8*%
X76000000Y-104550000D03*
%TD*%
D12*
%TO.C,J22*%
X75018300Y-127080000D03*
D13*
X75018300Y-129620000D03*
X75018300Y-132160000D03*
%TD*%
M02*
