%TF.GenerationSoftware,KiCad,Pcbnew,8.0.6*%
%TF.CreationDate,2024-12-13T11:58:04-05:00*%
%TF.ProjectId,11_9_design,31315f39-5f64-4657-9369-676e2e6b6963,v6*%
%TF.SameCoordinates,Original*%
%TF.FileFunction,Copper,L1,Top*%
%TF.FilePolarity,Positive*%
%FSLAX46Y46*%
G04 Gerber Fmt 4.6, Leading zero omitted, Abs format (unit mm)*
G04 Created by KiCad (PCBNEW 8.0.6) date 2024-12-13 11:58:04*
%MOMM*%
%LPD*%
G01*
G04 APERTURE LIST*
G04 Aperture macros list*
%AMRoundRect*
0 Rectangle with rounded corners*
0 $1 Rounding radius*
0 $2 $3 $4 $5 $6 $7 $8 $9 X,Y pos of 4 corners*
0 Add a 4 corners polygon primitive as box body*
4,1,4,$2,$3,$4,$5,$6,$7,$8,$9,$2,$3,0*
0 Add four circle primitives for the rounded corners*
1,1,$1+$1,$2,$3*
1,1,$1+$1,$4,$5*
1,1,$1+$1,$6,$7*
1,1,$1+$1,$8,$9*
0 Add four rect primitives between the rounded corners*
20,1,$1+$1,$2,$3,$4,$5,0*
20,1,$1+$1,$4,$5,$6,$7,0*
20,1,$1+$1,$6,$7,$8,$9,0*
20,1,$1+$1,$8,$9,$2,$3,0*%
G04 Aperture macros list end*
%TA.AperFunction,ComponentPad*%
%ADD10C,3.000000*%
%TD*%
%TA.AperFunction,ComponentPad*%
%ADD11C,1.000000*%
%TD*%
%TA.AperFunction,ComponentPad*%
%ADD12R,1.700000X1.700000*%
%TD*%
%TA.AperFunction,ComponentPad*%
%ADD13O,1.700000X1.700000*%
%TD*%
%TA.AperFunction,SMDPad,CuDef*%
%ADD14RoundRect,0.200000X0.200000X0.275000X-0.200000X0.275000X-0.200000X-0.275000X0.200000X-0.275000X0*%
%TD*%
%TA.AperFunction,SMDPad,CuDef*%
%ADD15RoundRect,0.200000X0.275000X-0.200000X0.275000X0.200000X-0.275000X0.200000X-0.275000X-0.200000X0*%
%TD*%
%TA.AperFunction,SMDPad,CuDef*%
%ADD16RoundRect,0.200000X-0.275000X0.200000X-0.275000X-0.200000X0.275000X-0.200000X0.275000X0.200000X0*%
%TD*%
%TA.AperFunction,SMDPad,CuDef*%
%ADD17RoundRect,0.225000X0.225000X0.250000X-0.225000X0.250000X-0.225000X-0.250000X0.225000X-0.250000X0*%
%TD*%
%TA.AperFunction,SMDPad,CuDef*%
%ADD18RoundRect,0.218750X-0.256250X0.218750X-0.256250X-0.218750X0.256250X-0.218750X0.256250X0.218750X0*%
%TD*%
%TA.AperFunction,ComponentPad*%
%ADD19RoundRect,0.250000X0.615000X-0.265000X0.615000X0.265000X-0.615000X0.265000X-0.615000X-0.265000X0*%
%TD*%
%TA.AperFunction,ComponentPad*%
%ADD20O,1.730000X1.030000*%
%TD*%
%TA.AperFunction,SMDPad,CuDef*%
%ADD21RoundRect,0.200000X-0.200000X-0.275000X0.200000X-0.275000X0.200000X0.275000X-0.200000X0.275000X0*%
%TD*%
%TA.AperFunction,SMDPad,CuDef*%
%ADD22RoundRect,0.250001X-1.074999X0.462499X-1.074999X-0.462499X1.074999X-0.462499X1.074999X0.462499X0*%
%TD*%
%TA.AperFunction,ComponentPad*%
%ADD23RoundRect,0.250000X-0.550000X-0.550000X0.550000X-0.550000X0.550000X0.550000X-0.550000X0.550000X0*%
%TD*%
%TA.AperFunction,SMDPad,CuDef*%
%ADD24RoundRect,0.225000X-0.250000X0.225000X-0.250000X-0.225000X0.250000X-0.225000X0.250000X0.225000X0*%
%TD*%
%TA.AperFunction,SMDPad,CuDef*%
%ADD25RoundRect,0.075000X-0.700000X-0.075000X0.700000X-0.075000X0.700000X0.075000X-0.700000X0.075000X0*%
%TD*%
%TA.AperFunction,SMDPad,CuDef*%
%ADD26RoundRect,0.075000X-0.075000X-0.700000X0.075000X-0.700000X0.075000X0.700000X-0.075000X0.700000X0*%
%TD*%
%TA.AperFunction,SMDPad,CuDef*%
%ADD27R,2.108200X1.397000*%
%TD*%
%TA.AperFunction,SMDPad,CuDef*%
%ADD28RoundRect,0.225000X-0.225000X-0.250000X0.225000X-0.250000X0.225000X0.250000X-0.225000X0.250000X0*%
%TD*%
%TA.AperFunction,SMDPad,CuDef*%
%ADD29R,0.599999X1.000000*%
%TD*%
%TA.AperFunction,ViaPad*%
%ADD30C,0.800000*%
%TD*%
%TA.AperFunction,Conductor*%
%ADD31C,0.250000*%
%TD*%
%TA.AperFunction,Conductor*%
%ADD32C,0.300000*%
%TD*%
%TA.AperFunction,Conductor*%
%ADD33C,0.500000*%
%TD*%
%TA.AperFunction,Conductor*%
%ADD34C,0.381000*%
%TD*%
G04 APERTURE END LIST*
D10*
%TO.P,,*%
%TO.N,GND*%
X135300000Y-88900000D03*
%TD*%
%TO.P,,*%
%TO.N,GND*%
X135300000Y-132100000D03*
%TD*%
%TO.P,,*%
%TO.N,GND*%
X55700000Y-132200000D03*
%TD*%
%TO.P,,*%
%TO.N,GND*%
X55650000Y-89050000D03*
%TD*%
D11*
%TO.P,J12,1,Pin_1*%
%TO.N,unconnected-(J12-Pin_1-Pad1)*%
X134320000Y-107380000D03*
%TO.P,J12,2,Pin_2*%
%TO.N,unconnected-(J12-Pin_2-Pad2)*%
X133050000Y-107380000D03*
%TO.P,J12,3,Pin_3*%
%TO.N,+3.3V*%
X134320000Y-108650000D03*
%TO.P,J12,4,Pin_4*%
%TO.N,Net-(J12-Pin_4)*%
X133050000Y-108650000D03*
%TO.P,J12,5,Pin_5*%
%TO.N,GND*%
X134320000Y-109920000D03*
%TO.P,J12,6,Pin_6*%
%TO.N,Net-(J12-Pin_6)*%
X133050000Y-109920000D03*
%TO.P,J12,7,Pin_7*%
%TO.N,GND*%
X134320000Y-111190000D03*
%TO.P,J12,8,Pin_8*%
%TO.N,Net-(J12-Pin_8)*%
X133050000Y-111190000D03*
%TO.P,J12,9,Pin_9*%
%TO.N,unconnected-(J12-Pin_9-Pad9)*%
X134320000Y-112460000D03*
%TO.P,J12,10,Pin_10*%
%TO.N,unconnected-(J12-Pin_10-Pad10)*%
X133050000Y-112460000D03*
%TO.P,J12,11,Pin_11*%
%TO.N,GND*%
X134320000Y-113730000D03*
%TO.P,J12,12,Pin_12*%
%TO.N,Net-(J12-Pin_12)*%
X133050000Y-113730000D03*
%TO.P,J12,13,Pin_13*%
%TO.N,/A1_UART4_RX*%
X134320000Y-115000000D03*
%TO.P,J12,14,Pin_14*%
%TO.N,/A0_UART4_TX*%
X133050000Y-115000000D03*
%TD*%
D12*
%TO.P,J5,1,Pin_1*%
%TO.N,Net-(J5-Pin_1)*%
X57075000Y-79350000D03*
D13*
%TO.P,J5,2,Pin_2*%
%TO.N,GPIO_OUT_C15*%
X59615000Y-79350000D03*
%TD*%
D14*
%TO.P,R10,1*%
%TO.N,Net-(J12-Pin_12)*%
X124943300Y-116030000D03*
%TO.P,R10,2*%
%TO.N,/NRST*%
X123293300Y-116030000D03*
%TD*%
D15*
%TO.P,R15,1*%
%TO.N,Net-(U4-VOUT)*%
X69450000Y-121675000D03*
%TO.P,R15,2*%
%TO.N,Net-(U4-FB)*%
X69450000Y-120025000D03*
%TD*%
D16*
%TO.P,R5,2*%
%TO.N,/I2C4_SCL*%
X116475000Y-121750000D03*
%TO.P,R5,1*%
%TO.N,GPIO_OUT_C13*%
X116475000Y-120100000D03*
%TD*%
D17*
%TO.P,C1,1*%
%TO.N,+3.3V*%
X95243300Y-118630000D03*
%TO.P,C1,2*%
%TO.N,GND*%
X93693300Y-118630000D03*
%TD*%
D15*
%TO.P,R19,1*%
%TO.N,+3.3V*%
X125100000Y-95775000D03*
%TO.P,R19,2*%
%TO.N,GPIO_IN_B2*%
X125100000Y-94125000D03*
%TD*%
D12*
%TO.P,J4,1,Pin_1*%
%TO.N,/A0_UART4_TX*%
X82918300Y-110840000D03*
D13*
%TO.P,J4,2,Pin_2*%
%TO.N,/A1_UART4_RX*%
X82918300Y-113380000D03*
%TO.P,J4,3,Pin_3*%
%TO.N,GND*%
X82918300Y-115920000D03*
%TD*%
D18*
%TO.P,FB1,1*%
%TO.N,+3.3VA*%
X91493300Y-116305000D03*
%TO.P,FB1,2*%
%TO.N,+3.3V*%
X91493300Y-117880000D03*
%TD*%
D19*
%TO.P,J11,1,Pin_1*%
%TO.N,Net-(J11-Pin_1)*%
X55718300Y-99280000D03*
D20*
%TO.P,J11,2,Pin_2*%
%TO.N,GND*%
X55718300Y-97780000D03*
%TD*%
D21*
%TO.P,R18,1*%
%TO.N,+3.3V*%
X87718300Y-96480000D03*
%TO.P,R18,2*%
%TO.N,GPIO_IN_A10*%
X89368300Y-96480000D03*
%TD*%
D22*
%TO.P,L2,1,1*%
%TO.N,Net-(J11-Pin_1)*%
X59468300Y-120955000D03*
%TO.P,L2,2,2*%
%TO.N,Net-(U4-SW)*%
X59468300Y-123930000D03*
%TD*%
D21*
%TO.P,R16,1*%
%TO.N,Net-(U4-FB)*%
X66268300Y-118830000D03*
%TO.P,R16,2*%
%TO.N,GND*%
X67918300Y-118830000D03*
%TD*%
D17*
%TO.P,C10,1*%
%TO.N,+3.3VA*%
X89743300Y-115930000D03*
%TO.P,C10,2*%
%TO.N,GND*%
X88193300Y-115930000D03*
%TD*%
D23*
%TO.P,J7,1,Pin_1*%
%TO.N,Net-(J7-Pin_1)*%
X93650000Y-97100000D03*
%TD*%
D21*
%TO.P,R4,1*%
%TO.N,+5V*%
X62368300Y-118680000D03*
%TO.P,R4,2*%
%TO.N,Net-(U4-VOUT)*%
X64018300Y-118680000D03*
%TD*%
D24*
%TO.P,CO1,1*%
%TO.N,Net-(U3-VOUT)*%
X68268300Y-109405000D03*
%TO.P,CO1,2*%
%TO.N,GND*%
X68268300Y-110955000D03*
%TD*%
D21*
%TO.P,R3,1*%
%TO.N,+5V*%
X84275000Y-128950000D03*
%TO.P,R3,2*%
%TO.N,/I2C3_SDA*%
X85925000Y-128950000D03*
%TD*%
D14*
%TO.P,R7,2*%
%TO.N,/I2C4_SDA*%
X115643300Y-117580000D03*
%TO.P,R7,1*%
%TO.N,GPIO_OUT_C13*%
X117293300Y-117580000D03*
%TD*%
D22*
%TO.P,L1,1,1*%
%TO.N,Net-(J11-Pin_1)*%
X58618300Y-107842500D03*
%TO.P,L1,2,2*%
%TO.N,Net-(U3-SW)*%
X58618300Y-110817500D03*
%TD*%
D15*
%TO.P,R21,1*%
%TO.N,+3.3V*%
X74668300Y-97555000D03*
%TO.P,R21,2*%
%TO.N,GPIO_IN_C6*%
X74668300Y-95905000D03*
%TD*%
D24*
%TO.P,C5,1*%
%TO.N,+3.3V*%
X108418300Y-105455000D03*
%TO.P,C5,2*%
%TO.N,GND*%
X108418300Y-107005000D03*
%TD*%
D12*
%TO.P,J1,1,Pin_1*%
%TO.N,GPIO_OUT_B15*%
X98010000Y-131450000D03*
D13*
%TO.P,J1,2,Pin_2*%
%TO.N,/I2C4_SCL*%
X100550000Y-131450000D03*
%TO.P,J1,3,Pin_3*%
%TO.N,/I2C4_SDA*%
X103090000Y-131450000D03*
%TO.P,J1,4,Pin_4*%
%TO.N,GND*%
X105630000Y-131450000D03*
%TD*%
D24*
%TO.P,C6,1*%
%TO.N,+3.3V*%
X106118300Y-105430000D03*
%TO.P,C6,2*%
%TO.N,GND*%
X106118300Y-106980000D03*
%TD*%
D12*
%TO.P,J2,1,Pin_1*%
%TO.N,+5V*%
X91168300Y-131830000D03*
D13*
%TO.P,J2,2,Pin_2*%
%TO.N,/I2C3_SCL*%
X88628300Y-131830000D03*
%TO.P,J2,3,Pin_3*%
%TO.N,/I2C3_SDA*%
X86088300Y-131830000D03*
%TO.P,J2,4,Pin_4*%
%TO.N,GND*%
X83548300Y-131830000D03*
%TD*%
D24*
%TO.P,CO2,1*%
%TO.N,Net-(U4-VOUT)*%
X69518300Y-123430000D03*
%TO.P,CO2,2*%
%TO.N,GND*%
X69518300Y-124980000D03*
%TD*%
D12*
%TO.P,J10,1,Pin_1*%
%TO.N,GPIO_OUT_B13*%
X115068300Y-110705000D03*
D13*
%TO.P,J10,2,Pin_2*%
%TO.N,/ADC1_IN3*%
X115068300Y-108165000D03*
%TO.P,J10,3,Pin_3*%
%TO.N,GND*%
X115068300Y-105625000D03*
%TD*%
D14*
%TO.P,R1,1*%
%TO.N,+5V*%
X90693300Y-127180000D03*
%TO.P,R1,2*%
%TO.N,/I2C3_SCL*%
X89043300Y-127180000D03*
%TD*%
D25*
%TO.P,U1,1,VBAT*%
%TO.N,+3.3V*%
X92450000Y-106600000D03*
%TO.P,U1,2,PC13*%
%TO.N,GPIO_OUT_C13*%
X92450000Y-107100000D03*
%TO.P,U1,3,PC14*%
%TO.N,GPIO_OUT_C14*%
X92450000Y-107600000D03*
%TO.P,U1,4,PC15*%
%TO.N,GPIO_OUT_C15*%
X92450000Y-108100000D03*
%TO.P,U1,5,PH0*%
%TO.N,unconnected-(U1-PH0-Pad5)*%
X92450000Y-108600000D03*
%TO.P,U1,6,PH1*%
%TO.N,unconnected-(U1-PH1-Pad6)*%
X92450000Y-109100000D03*
%TO.P,U1,7,NRST*%
%TO.N,/NRST*%
X92450000Y-109600000D03*
%TO.P,U1,8,PC0*%
%TO.N,/ADC1_IN1*%
X92450000Y-110100000D03*
%TO.P,U1,9,PC1*%
%TO.N,power_to_adc*%
X92450000Y-110600000D03*
%TO.P,U1,10,PC2*%
%TO.N,/ADC1_IN3*%
X92450000Y-111100000D03*
%TO.P,U1,11,PC3*%
%TO.N,/ADC1_IN4*%
X92450000Y-111600000D03*
%TO.P,U1,12,VSSA*%
%TO.N,GND*%
X92450000Y-112100000D03*
%TO.P,U1,13,VDDA*%
%TO.N,+3.3VA*%
X92450000Y-112600000D03*
%TO.P,U1,14,PA0*%
%TO.N,/A0_UART4_TX*%
X92450000Y-113100000D03*
%TO.P,U1,15,PA1*%
%TO.N,/A1_UART4_RX*%
X92450000Y-113600000D03*
%TO.P,U1,16,PA2*%
%TO.N,/GPIO_IN_A2*%
X92450000Y-114100000D03*
D26*
%TO.P,U1,17,PA3*%
%TO.N,/GPIO_IN_A3*%
X94375000Y-116025000D03*
%TO.P,U1,18,VSS*%
%TO.N,GND*%
X94875000Y-116025000D03*
%TO.P,U1,19,VDD*%
%TO.N,+3.3V*%
X95375000Y-116025000D03*
%TO.P,U1,20,PA4*%
%TO.N,/GPIO_IN_A4*%
X95875000Y-116025000D03*
%TO.P,U1,21,PA5*%
%TO.N,unconnected-(U1-PA5-Pad21)*%
X96375000Y-116025000D03*
%TO.P,U1,22,PA6*%
%TO.N,unconnected-(U1-PA6-Pad22)*%
X96875000Y-116025000D03*
%TO.P,U1,23,PA7*%
%TO.N,/I2C3_SCL*%
X97375000Y-116025000D03*
%TO.P,U1,24,PC4*%
%TO.N,unconnected-(U1-PC4-Pad24)*%
X97875000Y-116025000D03*
%TO.P,U1,25,PC5*%
%TO.N,unconnected-(U1-PC5-Pad25)*%
X98375000Y-116025000D03*
%TO.P,U1,26,PB0*%
%TO.N,GPIO_OUT_B0*%
X98875000Y-116025000D03*
%TO.P,U1,27,PB1*%
%TO.N,GPIO_IN_B1*%
X99375000Y-116025000D03*
%TO.P,U1,28,PB2*%
%TO.N,GPIO_IN_B2*%
X99875000Y-116025000D03*
%TO.P,U1,29,PB10*%
%TO.N,/I2C4_SCL*%
X100375000Y-116025000D03*
%TO.P,U1,30,PB11*%
%TO.N,/I2C4_SDA*%
X100875000Y-116025000D03*
%TO.P,U1,31,VSS*%
%TO.N,GND*%
X101375000Y-116025000D03*
%TO.P,U1,32,VDD*%
%TO.N,+3.3V*%
X101875000Y-116025000D03*
D25*
%TO.P,U1,33,PB12*%
%TO.N,GPIO_OUT_B12*%
X103800000Y-114100000D03*
%TO.P,U1,34,PB13*%
%TO.N,GPIO_OUT_B13*%
X103800000Y-113600000D03*
%TO.P,U1,35,PB14*%
%TO.N,GPIO_OUT_B14*%
X103800000Y-113100000D03*
%TO.P,U1,36,PB15*%
%TO.N,GPIO_OUT_B15*%
X103800000Y-112600000D03*
%TO.P,U1,37,PC6*%
%TO.N,GPIO_IN_C6*%
X103800000Y-112100000D03*
%TO.P,U1,38,PC7*%
%TO.N,power_to_adc*%
X103800000Y-111600000D03*
%TO.P,U1,39,PC8*%
%TO.N,GPO_5V_EN*%
X103800000Y-111100000D03*
%TO.P,U1,40,PC9*%
%TO.N,unconnected-(U1-PC9-Pad40)*%
X103800000Y-110600000D03*
%TO.P,U1,41,PA8*%
%TO.N,/STM_CLK*%
X103800000Y-110100000D03*
%TO.P,U1,42,PA9*%
%TO.N,unconnected-(U1-PA9-Pad42)*%
X103800000Y-109600000D03*
%TO.P,U1,43,PA10*%
%TO.N,GPIO_IN_A10*%
X103800000Y-109100000D03*
%TO.P,U1,44,PA11*%
%TO.N,unconnected-(U1-PA11-Pad44)*%
X103800000Y-108600000D03*
%TO.P,U1,45,PA12*%
%TO.N,unconnected-(U1-PA12-Pad45)*%
X103800000Y-108100000D03*
%TO.P,U1,46,PA13*%
%TO.N,/SW_DIO*%
X103800000Y-107600000D03*
%TO.P,U1,47,VSS*%
%TO.N,GND*%
X103800000Y-107100000D03*
%TO.P,U1,48,VDDUSB*%
%TO.N,+3.3V*%
X103800000Y-106600000D03*
D26*
%TO.P,U1,49,PA14*%
%TO.N,/SW_CLK*%
X101875000Y-104675000D03*
%TO.P,U1,50,PA15*%
%TO.N,/GPIO_OUT_A15*%
X101375000Y-104675000D03*
%TO.P,U1,51,PC10*%
%TO.N,unconnected-(U1-PC10-Pad51)*%
X100875000Y-104675000D03*
%TO.P,U1,52,PC11*%
%TO.N,unconnected-(U1-PC11-Pad52)*%
X100375000Y-104675000D03*
%TO.P,U1,53,PC12*%
%TO.N,/GPIO_OUT_C12*%
X99875000Y-104675000D03*
%TO.P,U1,54,PD2*%
%TO.N,unconnected-(U1-PD2-Pad54)*%
X99375000Y-104675000D03*
%TO.P,U1,55,PB3*%
%TO.N,/SWO*%
X98875000Y-104675000D03*
%TO.P,U1,56,PB4*%
%TO.N,/I2C3_SDA*%
X98375000Y-104675000D03*
%TO.P,U1,57,PB5*%
%TO.N,unconnected-(U1-PB5-Pad57)*%
X97875000Y-104675000D03*
%TO.P,U1,58,PB6*%
%TO.N,/GPIO_OUT_B6*%
X97375000Y-104675000D03*
%TO.P,U1,59,PB7*%
%TO.N,unconnected-(U1-PB7-Pad59)*%
X96875000Y-104675000D03*
%TO.P,U1,60,PH3*%
%TO.N,/SW_BOOT0*%
X96375000Y-104675000D03*
%TO.P,U1,61,PB8*%
%TO.N,unconnected-(U1-PB8-Pad61)*%
X95875000Y-104675000D03*
%TO.P,U1,62,PB9*%
%TO.N,unconnected-(U1-PB9-Pad62)*%
X95375000Y-104675000D03*
%TO.P,U1,63,VSS*%
%TO.N,GND*%
X94875000Y-104675000D03*
%TO.P,U1,64,VDD*%
%TO.N,+3.3V*%
X94375000Y-104675000D03*
%TD*%
D14*
%TO.P,R9,1*%
%TO.N,Net-(J12-Pin_4)*%
X124893300Y-107280000D03*
%TO.P,R9,2*%
%TO.N,/SW_DIO*%
X123243300Y-107280000D03*
%TD*%
%TO.P,R11,1*%
%TO.N,Net-(J12-Pin_6)*%
X125043300Y-110380000D03*
%TO.P,R11,2*%
%TO.N,/SW_CLK*%
X123393300Y-110380000D03*
%TD*%
D23*
%TO.P,J15,1,Pin_1*%
%TO.N,/STM_CLK*%
X109318300Y-111780000D03*
%TD*%
D12*
%TO.P,J6,1,Pin_1*%
%TO.N,GPIO_OUT_B14*%
X104893300Y-98980000D03*
D13*
%TO.P,J6,2,Pin_2*%
%TO.N,/ADC1_IN1*%
X102353300Y-98980000D03*
%TO.P,J6,3,Pin_3*%
%TO.N,GND*%
X99813300Y-98980000D03*
%TD*%
D15*
%TO.P,R13,1*%
%TO.N,Net-(U3-VOUT)*%
X68368300Y-107580000D03*
%TO.P,R13,2*%
%TO.N,Net-(U3-FB)*%
X68368300Y-105930000D03*
%TD*%
D21*
%TO.P,R6,1*%
%TO.N,Net-(J5-Pin_1)*%
X66625000Y-96350000D03*
%TO.P,R6,2*%
%TO.N,GND*%
X68275000Y-96350000D03*
%TD*%
%TO.P,R2,1*%
%TO.N,+3.3V*%
X60475000Y-105250000D03*
%TO.P,R2,2*%
%TO.N,Net-(U3-VOUT)*%
X62125000Y-105250000D03*
%TD*%
D27*
%TO.P,S4,1*%
%TO.N,GND*%
X117953400Y-78764800D03*
%TO.P,S4,2*%
%TO.N,GPIO_IN_B2*%
X127046600Y-78764800D03*
%TO.P,S4,3*%
%TO.N,GND*%
X117953400Y-83235200D03*
%TO.P,S4,4*%
%TO.N,GPIO_IN_B2*%
X127046600Y-83235200D03*
%TD*%
D15*
%TO.P,R17,1*%
%TO.N,+3.3V*%
X110518300Y-98330000D03*
%TO.P,R17,2*%
%TO.N,GPIO_IN_B1*%
X110518300Y-96680000D03*
%TD*%
D12*
%TO.P,J3,1,Pin_1*%
%TO.N,GPIO_OUT_C14*%
X112638300Y-123980000D03*
D13*
%TO.P,J3,2,Pin_2*%
%TO.N,/I2C4_SCL*%
X112638300Y-121440000D03*
%TO.P,J3,3,Pin_3*%
%TO.N,/I2C4_SDA*%
X112638300Y-118900000D03*
%TO.P,J3,4,Pin_4*%
%TO.N,GND*%
X112638300Y-116360000D03*
%TD*%
D17*
%TO.P,C9,1*%
%TO.N,+3.3VA*%
X89725000Y-118150000D03*
%TO.P,C9,2*%
%TO.N,GND*%
X88175000Y-118150000D03*
%TD*%
D21*
%TO.P,R20,1*%
%TO.N,Net-(J11-Pin_1)*%
X65643300Y-112930000D03*
%TO.P,R20,2*%
%TO.N,power_to_adc*%
X67293300Y-112930000D03*
%TD*%
D14*
%TO.P,R8,1*%
%TO.N,/SW_BOOT0*%
X93500000Y-99450000D03*
%TO.P,R8,2*%
%TO.N,Net-(J7-Pin_1)*%
X91850000Y-99450000D03*
%TD*%
D12*
%TO.P,J23,1,Pin_1*%
%TO.N,/GPIO_OUT_A15*%
X113318300Y-99605000D03*
D13*
%TO.P,J23,2,Pin_2*%
%TO.N,/GPIO_OUT_C12*%
X113318300Y-97065000D03*
%TO.P,J23,3,Pin_3*%
%TO.N,/GPIO_OUT_B6*%
X113318300Y-94525000D03*
%TD*%
D12*
%TO.P,J9,1,Pin_1*%
%TO.N,GPIO_OUT_B12*%
X99508300Y-124980000D03*
D13*
%TO.P,J9,2,Pin_2*%
%TO.N,/ADC1_IN4*%
X96968300Y-124980000D03*
%TO.P,J9,3,Pin_3*%
%TO.N,GND*%
X94428300Y-124980000D03*
%TD*%
D28*
%TO.P,C3,1*%
%TO.N,+3.3V*%
X92968300Y-102580000D03*
%TO.P,C3,2*%
%TO.N,GND*%
X94518300Y-102580000D03*
%TD*%
D21*
%TO.P,R22,1*%
%TO.N,+3.3V*%
X88975000Y-109450000D03*
%TO.P,R22,2*%
%TO.N,/NRST*%
X90625000Y-109450000D03*
%TD*%
D14*
%TO.P,R12,1*%
%TO.N,Net-(J12-Pin_8)*%
X124468300Y-113830000D03*
%TO.P,R12,2*%
%TO.N,/SWO*%
X122818300Y-113830000D03*
%TD*%
D23*
%TO.P,J13,1,Pin_1*%
%TO.N,+5V*%
X81268300Y-125180000D03*
%TD*%
%TO.P,J14,1,Pin_1*%
%TO.N,+3.3V*%
X95000000Y-92500000D03*
%TD*%
D14*
%TO.P,R14,1*%
%TO.N,Net-(U3-FB)*%
X65943300Y-104880000D03*
%TO.P,R14,2*%
%TO.N,GND*%
X64293300Y-104880000D03*
%TD*%
D24*
%TO.P,CI2,1*%
%TO.N,Net-(J11-Pin_1)*%
X63218300Y-121680000D03*
%TO.P,CI2,2*%
%TO.N,GND*%
X63218300Y-123230000D03*
%TD*%
D23*
%TO.P,J8,1,Pin_1*%
%TO.N,GND*%
X76000000Y-104550000D03*
%TD*%
D12*
%TO.P,J22,1,Pin_1*%
%TO.N,/GPIO_IN_A3*%
X75018300Y-127080000D03*
D13*
%TO.P,J22,2,Pin_2*%
%TO.N,/GPIO_IN_A2*%
X75018300Y-129620000D03*
%TO.P,J22,3,Pin_3*%
%TO.N,/GPIO_IN_A4*%
X75018300Y-132160000D03*
%TD*%
D24*
%TO.P,C7,1*%
%TO.N,/NRST*%
X123325000Y-117775000D03*
%TO.P,C7,2*%
%TO.N,GND*%
X123325000Y-119325000D03*
%TD*%
D27*
%TO.P,S2,1*%
%TO.N,GND*%
X84403400Y-78614800D03*
%TO.P,S2,2*%
%TO.N,GPIO_IN_A10*%
X93496600Y-78614800D03*
%TO.P,S2,3*%
%TO.N,GND*%
X84403400Y-83085200D03*
%TO.P,S2,4*%
%TO.N,GPIO_IN_A10*%
X93496600Y-83085200D03*
%TD*%
D17*
%TO.P,C4,1*%
%TO.N,+3.3V*%
X103225000Y-118400000D03*
%TO.P,C4,2*%
%TO.N,GND*%
X101675000Y-118400000D03*
%TD*%
D24*
%TO.P,CI1,1*%
%TO.N,Net-(J11-Pin_1)*%
X61818300Y-108405000D03*
%TO.P,CI1,2*%
%TO.N,GND*%
X61818300Y-109955000D03*
%TD*%
D28*
%TO.P,C11,1*%
%TO.N,+3.3V*%
X104643300Y-116280000D03*
%TO.P,C11,2*%
%TO.N,GND*%
X106193300Y-116280000D03*
%TD*%
D27*
%TO.P,S3,1*%
%TO.N,GND*%
X101206800Y-78729600D03*
%TO.P,S3,2*%
%TO.N,GPIO_IN_B1*%
X110300000Y-78729600D03*
%TO.P,S3,3*%
%TO.N,GND*%
X101206800Y-83200000D03*
%TO.P,S3,4*%
%TO.N,GPIO_IN_B1*%
X110300000Y-83200000D03*
%TD*%
D29*
%TO.P,U4,1,SW*%
%TO.N,Net-(U4-SW)*%
X65318299Y-123555001D03*
%TO.P,U4,2,GND*%
%TO.N,GND*%
X66268300Y-123555001D03*
%TO.P,U4,3,EN*%
%TO.N,GPO_5V_EN*%
X67218298Y-123555001D03*
%TO.P,U4,4,FB*%
%TO.N,Net-(U4-FB)*%
X67218298Y-120805001D03*
%TO.P,U4,5,VOUT*%
%TO.N,Net-(U4-VOUT)*%
X66268300Y-120805001D03*
%TO.P,U4,6,VBAT*%
%TO.N,Net-(J11-Pin_1)*%
X65318299Y-120805001D03*
%TD*%
%TO.P,U3,1,SW*%
%TO.N,Net-(U3-SW)*%
X63949999Y-110725001D03*
%TO.P,U3,2,GND*%
%TO.N,GND*%
X64900000Y-110725001D03*
%TO.P,U3,3,EN*%
%TO.N,Net-(J11-Pin_1)*%
X65849998Y-110725001D03*
%TO.P,U3,4,FB*%
%TO.N,Net-(U3-FB)*%
X65849998Y-107975001D03*
%TO.P,U3,5,VOUT*%
%TO.N,Net-(U3-VOUT)*%
X64900000Y-107975001D03*
%TO.P,U3,6,VBAT*%
%TO.N,Net-(J11-Pin_1)*%
X63949999Y-107975001D03*
%TD*%
D27*
%TO.P,S1,1*%
%TO.N,GND*%
X67453400Y-78764800D03*
%TO.P,S1,2*%
%TO.N,GPIO_IN_C6*%
X76546600Y-78764800D03*
%TO.P,S1,3*%
%TO.N,GND*%
X67453400Y-83235200D03*
%TO.P,S1,4*%
%TO.N,GPIO_IN_C6*%
X76546600Y-83235200D03*
%TD*%
D30*
%TO.N,GND*%
X137250000Y-111800000D03*
X137450000Y-114750000D03*
X67500000Y-85300000D03*
X137400000Y-109650000D03*
%TO.N,+3.3V*%
X137300000Y-107750000D03*
%TO.N,GND*%
X118496600Y-85805700D03*
X95168300Y-114530000D03*
X84443200Y-85346600D03*
X71318300Y-110430000D03*
X69518300Y-117680000D03*
X101196600Y-84950000D03*
X107768300Y-116330000D03*
X109718300Y-108030000D03*
X124500000Y-121450000D03*
X66468300Y-125780000D03*
X72100000Y-124150000D03*
X92118300Y-101180000D03*
X61768300Y-123430000D03*
X68350000Y-97800000D03*
X64868300Y-103130000D03*
X95418300Y-112405000D03*
X63950000Y-112600000D03*
X103210200Y-120887200D03*
%TO.N,+3.3VA*%
X87645200Y-112391600D03*
X87986300Y-114449700D03*
%TO.N,/NRST*%
X110568300Y-106527400D03*
X114850000Y-115533200D03*
%TO.N,+5V*%
X60668300Y-118130000D03*
X82650000Y-128850000D03*
X92118300Y-128830000D03*
%TO.N,/I2C3_SDA*%
X97900000Y-106575000D03*
%TO.N,/GPIO_OUT_B6*%
X106000000Y-94600000D03*
%TO.N,/ADC1_IN4*%
X94069600Y-111630000D03*
%TO.N,/ADC1_IN1*%
X95048500Y-110131600D03*
%TO.N,/ADC1_IN3*%
X90377200Y-111374700D03*
%TO.N,/SW_DIO*%
X112015900Y-107862400D03*
X112015900Y-102462100D03*
%TO.N,GPIO_OUT_B15*%
X102093500Y-112825600D03*
%TO.N,GPIO_OUT_C14*%
X96239300Y-108581600D03*
X97400000Y-121900000D03*
%TO.N,GPIO_OUT_B14*%
X105845600Y-111945600D03*
%TO.N,/A0_UART4_TX*%
X85993900Y-113026700D03*
%TO.N,/A1_UART4_RX*%
X97416900Y-113869000D03*
X97416900Y-120650000D03*
%TO.N,GPIO_OUT_B12*%
X101758783Y-113951490D03*
%TO.N,GPIO_IN_B1*%
X99350000Y-114300000D03*
X100350000Y-101750000D03*
%TO.N,GPIO_IN_A10*%
X98713200Y-108984700D03*
X96350000Y-96450000D03*
%TO.N,GPIO_IN_B2*%
X106113900Y-122791100D03*
X110294300Y-102744300D03*
%TO.N,+3.3V*%
X126750000Y-96950000D03*
X75518300Y-99330000D03*
X59125000Y-105300000D03*
X91400000Y-105150000D03*
X88218300Y-98730000D03*
X109668300Y-105830000D03*
X109118300Y-99680000D03*
X93050000Y-121000000D03*
X85718300Y-96030000D03*
X86850000Y-110150000D03*
X90918300Y-119830000D03*
X104468300Y-118175000D03*
%TO.N,GPIO_OUT_C13*%
X105750000Y-118050000D03*
X101461600Y-107541900D03*
%TO.N,GPIO_IN_C6*%
X99813500Y-112288000D03*
X99962700Y-106809200D03*
%TO.N,/GPIO_IN_A2*%
X90693300Y-114943200D03*
%TO.N,GPO_5V_EN*%
X101044000Y-111130000D03*
X88950000Y-120550000D03*
%TD*%
D31*
%TO.N,Net-(J5-Pin_1)*%
X66625000Y-96350000D02*
X66625000Y-90125000D01*
X66625000Y-90125000D02*
X57075000Y-80575000D01*
X57075000Y-80575000D02*
X57075000Y-79350000D01*
%TO.N,GPIO_OUT_C15*%
X78650000Y-101450000D02*
X76612995Y-101450000D01*
X73868300Y-98705305D02*
X73868300Y-96118300D01*
X92450000Y-108100000D02*
X85300000Y-108100000D01*
X85300000Y-108100000D02*
X78650000Y-101450000D01*
X76612995Y-101450000D02*
X73868300Y-98705305D01*
X73868300Y-96118300D02*
X59615000Y-81865000D01*
X59615000Y-81865000D02*
X59615000Y-79350000D01*
%TO.N,GND*%
X68325000Y-96350000D02*
X68325000Y-97775000D01*
X68325000Y-97775000D02*
X68350000Y-97800000D01*
X88175000Y-118150000D02*
X85148300Y-118150000D01*
X85148300Y-118150000D02*
X82918300Y-115920000D01*
X88193300Y-115930000D02*
X88193300Y-118131700D01*
X88193300Y-118131700D02*
X88175000Y-118150000D01*
D32*
%TO.N,+3.3VA*%
X89743300Y-115930000D02*
X89743300Y-118131700D01*
X89743300Y-118131700D02*
X89725000Y-118150000D01*
D31*
%TO.N,GPIO_IN_C6*%
X76546600Y-83235200D02*
X76546600Y-94026700D01*
X76546600Y-94026700D02*
X74668300Y-95905000D01*
%TO.N,GPIO_IN_B2*%
X125100000Y-94125000D02*
X125125000Y-94125000D01*
X125125000Y-94125000D02*
X127046600Y-92203400D01*
X127046600Y-92203400D02*
X127046600Y-83235200D01*
%TO.N,GPIO_IN_B1*%
X109445700Y-85761800D02*
X110300000Y-84907500D01*
X110300000Y-84907500D02*
X110300000Y-83200000D01*
%TO.N,GPIO_IN_A10*%
X93496600Y-83085200D02*
X89368300Y-87213500D01*
X89368300Y-87213500D02*
X89368300Y-96480000D01*
%TO.N,/NRST*%
X118933200Y-115533200D02*
X119430000Y-116030000D01*
X119430000Y-116030000D02*
X123293300Y-116030000D01*
X114850000Y-115533200D02*
X118933200Y-115533200D01*
D32*
%TO.N,+3.3V*%
X87718300Y-96480000D02*
X86168300Y-96480000D01*
X86168300Y-96480000D02*
X85718300Y-96030000D01*
D31*
X125250000Y-95800000D02*
X126100000Y-95800000D01*
X126100000Y-95800000D02*
X126750000Y-96450000D01*
X126750000Y-96450000D02*
X126750000Y-96950000D01*
%TO.N,GPIO_IN_B2*%
X125100000Y-94125000D02*
X123061000Y-94125000D01*
X115930500Y-101255500D02*
X111783100Y-101255500D01*
X123061000Y-94125000D02*
X115930500Y-101255500D01*
X111783100Y-101255500D02*
X110294300Y-102744300D01*
%TO.N,GND*%
X101206800Y-83200000D02*
X101206800Y-84939800D01*
X101206800Y-84939800D02*
X101196600Y-84950000D01*
X136640000Y-111190000D02*
X137250000Y-111800000D01*
X134320000Y-111190000D02*
X136640000Y-111190000D01*
X136500000Y-113800000D02*
X137450000Y-114750000D01*
X135126183Y-113800000D02*
X136500000Y-113800000D01*
%TO.N,Net-(J12-Pin_6)*%
X133050000Y-109920000D02*
X125503300Y-109920000D01*
X125503300Y-109920000D02*
X125043300Y-110380000D01*
%TO.N,GPIO_IN_B1*%
X110518300Y-96680000D02*
X109445700Y-95607400D01*
X109445700Y-95607400D02*
X109445700Y-85761800D01*
%TO.N,GND*%
X84403400Y-83085200D02*
X84403400Y-85306800D01*
X84403400Y-85306800D02*
X84443200Y-85346600D01*
%TO.N,GPIO_IN_C6*%
X74400000Y-95636700D02*
X74668300Y-95905000D01*
%TO.N,GND*%
X67453400Y-85253400D02*
X67500000Y-85300000D01*
X67453400Y-83235200D02*
X67453400Y-85253400D01*
X68268300Y-110955000D02*
X70793300Y-110955000D01*
X70793300Y-110955000D02*
X71318300Y-110430000D01*
X67918300Y-118830000D02*
X68368300Y-118830000D01*
X68368300Y-118830000D02*
X69518300Y-117680000D01*
X66268300Y-123555001D02*
X66268300Y-125580000D01*
X66268300Y-125580000D02*
X66468300Y-125780000D01*
%TO.N,/A1_UART4_RX*%
X134300000Y-115070000D02*
X134300000Y-115896183D01*
X134300000Y-115896183D02*
X126246183Y-123950000D01*
X126246183Y-123950000D02*
X117012500Y-123950000D01*
%TO.N,Net-(J12-Pin_12)*%
X133030000Y-113800000D02*
X127173300Y-113800000D01*
X127173300Y-113800000D02*
X124943300Y-116030000D01*
%TO.N,Net-(J12-Pin_8)*%
X133030000Y-111260000D02*
X127038300Y-111260000D01*
X127038300Y-111260000D02*
X124468300Y-113830000D01*
%TO.N,/A0_UART4_TX*%
X133030000Y-115070000D02*
X131264200Y-116835800D01*
X95698605Y-113150000D02*
X94650000Y-113150000D01*
X124118300Y-115633900D02*
X123160890Y-114676490D01*
X124118300Y-116436200D02*
X124118300Y-115633900D01*
X131264200Y-116835800D02*
X124517900Y-116835800D01*
X101218190Y-114676490D02*
X99671700Y-113130000D01*
X123160890Y-114676490D02*
X101218190Y-114676490D01*
X99671700Y-113130000D02*
X95718605Y-113130000D01*
X124517900Y-116835800D02*
X124118300Y-116436200D01*
X94650000Y-113150000D02*
X94600000Y-113100000D01*
X95718605Y-113130000D02*
X95698605Y-113150000D01*
X94600000Y-113100000D02*
X92450000Y-113100000D01*
%TO.N,GND*%
X134300000Y-113800000D02*
X135126183Y-113800000D01*
X137060000Y-109990000D02*
X137400000Y-109650000D01*
X134300000Y-109990000D02*
X137060000Y-109990000D01*
%TO.N,+3.3V*%
X136330000Y-108720000D02*
X137300000Y-107750000D01*
X134300000Y-108720000D02*
X136330000Y-108720000D01*
%TO.N,Net-(J12-Pin_4)*%
X133030000Y-108720000D02*
X126333300Y-108720000D01*
X126333300Y-108720000D02*
X124893300Y-107280000D01*
D33*
%TO.N,GND*%
X61968300Y-123230000D02*
X61768300Y-123430000D01*
D31*
X106118300Y-106980000D02*
X105998300Y-107100000D01*
D32*
X118000000Y-83090900D02*
X118000000Y-85309100D01*
D31*
X71270000Y-124980000D02*
X72100000Y-124150000D01*
X64918300Y-110755001D02*
X64918300Y-111631700D01*
X108393300Y-106980000D02*
X106118300Y-106980000D01*
D32*
X123325000Y-120275000D02*
X123325000Y-119325000D01*
D31*
X94875000Y-116025000D02*
X94875000Y-117448300D01*
X69518300Y-124980000D02*
X71270000Y-124980000D01*
X93514295Y-112100000D02*
X93819295Y-112405000D01*
D32*
X107718300Y-116280000D02*
X107768300Y-116330000D01*
X93693300Y-118630000D02*
X94868300Y-117455000D01*
D31*
X84403400Y-78614800D02*
X84403400Y-83085200D01*
X101543300Y-117980000D02*
X101368300Y-117805000D01*
X106118300Y-106980000D02*
X105968300Y-107130000D01*
X64424999Y-109500000D02*
X62273300Y-109500000D01*
D32*
X84346600Y-85250000D02*
X84443200Y-85346600D01*
D31*
X61818300Y-109955000D02*
X62273300Y-109500000D01*
D32*
X94868300Y-117455000D02*
X94868300Y-116909820D01*
D31*
X108418300Y-107005000D02*
X108393300Y-106980000D01*
X92450000Y-112100000D02*
X93514295Y-112100000D01*
X67453400Y-78764800D02*
X67453400Y-83235200D01*
D32*
X88193300Y-115930000D02*
X82928300Y-115930000D01*
D31*
X94518300Y-102580000D02*
X93118300Y-101180000D01*
X108418300Y-107005000D02*
X108693300Y-107005000D01*
X101368300Y-117805000D02*
X101368300Y-116055000D01*
X101543300Y-119220300D02*
X103210200Y-120887200D01*
X93819295Y-112405000D02*
X95418300Y-112405000D01*
X94868300Y-102930000D02*
X94868300Y-104705000D01*
X64918300Y-111631700D02*
X63950000Y-112600000D01*
X105998300Y-107100000D02*
X103800000Y-107100000D01*
X94875000Y-114823300D02*
X95168300Y-114530000D01*
X94875000Y-116025000D02*
X94875000Y-114823300D01*
X101206800Y-78729600D02*
X101206800Y-83200000D01*
D32*
X82928300Y-115930000D02*
X82918300Y-115920000D01*
D31*
X101543300Y-117980000D02*
X101543300Y-119220300D01*
X118006800Y-78579600D02*
X118006800Y-83050000D01*
X64900000Y-109975001D02*
X64424999Y-109500000D01*
X93118300Y-101180000D02*
X92118300Y-101180000D01*
D32*
X124500000Y-121450000D02*
X123325000Y-120275000D01*
D31*
X64293300Y-103705000D02*
X64868300Y-103130000D01*
X64293300Y-104880000D02*
X64293300Y-103705000D01*
D32*
X118000000Y-85309100D02*
X118496600Y-85805700D01*
X106193300Y-116280000D02*
X107718300Y-116280000D01*
D31*
X94518300Y-102580000D02*
X94868300Y-102930000D01*
X64900000Y-110725001D02*
X64900000Y-109975001D01*
X94875000Y-117448300D02*
X94868300Y-117455000D01*
X108693300Y-107005000D02*
X109718300Y-108030000D01*
D33*
X63218300Y-123230000D02*
X61968300Y-123230000D01*
D32*
%TO.N,+3.3VA*%
X89793300Y-115980000D02*
X89743300Y-115930000D01*
D31*
X87853600Y-112600000D02*
X87645200Y-112391600D01*
X91168300Y-115980000D02*
X91493300Y-116305000D01*
D32*
X91118300Y-115930000D02*
X91493300Y-116305000D01*
X89743300Y-115930000D02*
X91118300Y-115930000D01*
D31*
X87883600Y-112630000D02*
X87645200Y-112391600D01*
X87986300Y-114449700D02*
X87986300Y-114723000D01*
D32*
X89743300Y-115930000D02*
X88263000Y-114449700D01*
X88263000Y-114449700D02*
X87986300Y-114449700D01*
D31*
X92450000Y-112600000D02*
X87853600Y-112600000D01*
%TO.N,/NRST*%
X94124100Y-109306600D02*
X93805700Y-109625000D01*
X90800000Y-109625000D02*
X90625000Y-109450000D01*
X98062000Y-108238000D02*
X96993400Y-109306600D01*
D32*
X123325000Y-117775000D02*
X123325000Y-116061700D01*
D31*
X93805700Y-109625000D02*
X90800000Y-109625000D01*
X101715100Y-108332400D02*
X100889100Y-108332400D01*
X100794700Y-108238000D02*
X98062000Y-108238000D01*
X96993400Y-109306600D02*
X94124100Y-109306600D01*
X100889100Y-108332400D02*
X100794700Y-108238000D01*
X110568300Y-106430000D02*
X110718300Y-106280000D01*
X110718300Y-105130000D02*
X110221200Y-104632900D01*
D32*
X123325000Y-116061700D02*
X123293300Y-116030000D01*
D31*
X110221200Y-104632900D02*
X104417100Y-104632900D01*
X102439800Y-107607700D02*
X101715100Y-108332400D01*
X102439800Y-106610200D02*
X102439800Y-107607700D01*
X110718300Y-106280000D02*
X110718300Y-105130000D01*
X104417100Y-104632900D02*
X102439800Y-106610200D01*
%TO.N,/I2C4_SCL*%
X100204100Y-117353400D02*
X100368300Y-117189200D01*
X100204100Y-120747300D02*
X100204100Y-117353400D01*
D32*
X116475000Y-121750000D02*
X112948300Y-121750000D01*
X112948300Y-121750000D02*
X112638300Y-121440000D01*
D31*
X100368300Y-117189200D02*
X100368300Y-116055000D01*
X112638300Y-121440000D02*
X111461600Y-121440000D01*
X111461600Y-121440000D02*
X110839400Y-122062200D01*
X101519000Y-122062200D02*
X100204100Y-120747300D01*
X110839400Y-122062200D02*
X101519000Y-122062200D01*
%TO.N,/I2C4_SDA*%
X100868300Y-117398500D02*
X100868300Y-116055000D01*
X113815000Y-118900000D02*
X115135000Y-117580000D01*
X102050500Y-121612200D02*
X100705600Y-120267300D01*
X112638300Y-118900000D02*
X113815000Y-118900000D01*
X100705600Y-117561200D02*
X100868300Y-117398500D01*
X112638300Y-118900000D02*
X111461600Y-118900000D01*
X108749400Y-121612200D02*
X102050500Y-121612200D01*
X100705600Y-120267300D02*
X100705600Y-117561200D01*
X115135000Y-117580000D02*
X115643300Y-117580000D01*
X111461600Y-118900000D02*
X108749400Y-121612200D01*
D32*
%TO.N,+5V*%
X90693300Y-127405000D02*
X92118300Y-128830000D01*
D31*
X82750000Y-128950000D02*
X82650000Y-128850000D01*
D32*
X90693300Y-127180000D02*
X90693300Y-127405000D01*
X62368300Y-118680000D02*
X61218300Y-118680000D01*
X61218300Y-118680000D02*
X60668300Y-118130000D01*
D31*
X84275000Y-128950000D02*
X82750000Y-128950000D01*
%TO.N,/I2C3_SCL*%
X88628300Y-131830000D02*
X88628300Y-130653300D01*
X88628300Y-130653300D02*
X89043300Y-130238300D01*
X89043300Y-127180000D02*
X97368300Y-118855000D01*
X89043300Y-130238300D02*
X89043300Y-127180000D01*
X97368300Y-118855000D02*
X97368300Y-116055000D01*
%TO.N,/I2C3_SDA*%
X98368300Y-106081700D02*
X98368300Y-104705000D01*
X97900000Y-106550000D02*
X98368300Y-106081700D01*
X97900000Y-106575000D02*
X97900000Y-106550000D01*
X85925000Y-128950000D02*
X85925000Y-131666700D01*
X85925000Y-131666700D02*
X86088300Y-131830000D01*
%TO.N,/STM_CLK*%
X103800000Y-110100000D02*
X107638300Y-110100000D01*
X107638300Y-110100000D02*
X109318300Y-111780000D01*
%TO.N,/GPIO_OUT_A15*%
X108773000Y-102973600D02*
X102136800Y-102973600D01*
X102136800Y-102973600D02*
X101368300Y-103742100D01*
X101368300Y-103742100D02*
X101368300Y-104705000D01*
X112141600Y-99605000D02*
X108773000Y-102973600D01*
X113318300Y-99605000D02*
X112141600Y-99605000D01*
%TO.N,/GPIO_OUT_C12*%
X113024100Y-97065000D02*
X113318300Y-97065000D01*
X101185336Y-102521900D02*
X107567200Y-102521900D01*
X99875000Y-104675000D02*
X99875000Y-103832236D01*
X99875000Y-103832236D02*
X101185336Y-102521900D01*
X107567200Y-102521900D02*
X113024100Y-97065000D01*
%TO.N,/GPIO_OUT_B6*%
X106000000Y-94600000D02*
X99750000Y-94600000D01*
X97368300Y-96981700D02*
X97368300Y-104705000D01*
X99750000Y-94600000D02*
X97368300Y-96981700D01*
%TO.N,/ADC1_IN4*%
X92450000Y-111600000D02*
X94039600Y-111600000D01*
X94039600Y-111600000D02*
X94069600Y-111630000D01*
%TO.N,/ADC1_IN1*%
X95048500Y-110131600D02*
X95016900Y-110100000D01*
X95016900Y-110100000D02*
X92450000Y-110100000D01*
%TO.N,/ADC1_IN3*%
X90651900Y-111100000D02*
X90377200Y-111374700D01*
X92450000Y-111100000D02*
X90651900Y-111100000D01*
%TO.N,/SW_DIO*%
X104737700Y-107600000D02*
X103800000Y-107600000D01*
X106017700Y-108880000D02*
X104737700Y-107600000D01*
X123243300Y-107280000D02*
X118425400Y-102462100D01*
X106017700Y-108880000D02*
X110998300Y-108880000D01*
X118425400Y-102462100D02*
X112015900Y-102462100D01*
X110998300Y-108880000D02*
X112015900Y-107862400D01*
%TO.N,/SW_CLK*%
X116742800Y-103729500D02*
X102843800Y-103729500D01*
X123393300Y-110380000D02*
X116742800Y-103729500D01*
X102843800Y-103729500D02*
X101868300Y-104705000D01*
%TO.N,Net-(J11-Pin_1)*%
X63218300Y-115355000D02*
X65643300Y-112930000D01*
X65750000Y-110824999D02*
X65849998Y-110725001D01*
X63218300Y-121680000D02*
X63218300Y-115355000D01*
X62493300Y-120955000D02*
X63218300Y-121680000D01*
X59468300Y-120955000D02*
X62493300Y-120955000D01*
X64443300Y-121680000D02*
X65318299Y-120805001D01*
X63218300Y-121680000D02*
X64443300Y-121680000D01*
D34*
X55718300Y-99280000D02*
X55718300Y-104942500D01*
D31*
X62248299Y-107975001D02*
X61818300Y-108405000D01*
X65868298Y-110225000D02*
X63968299Y-108325001D01*
D34*
X55718300Y-104942500D02*
X58618300Y-107842500D01*
D31*
X65750000Y-112823300D02*
X65750000Y-110824999D01*
X63968299Y-107975001D02*
X62248299Y-107975001D01*
X61255800Y-107842500D02*
X61818300Y-108405000D01*
X65868298Y-110725001D02*
X65868298Y-110225000D01*
X65643300Y-112930000D02*
X65750000Y-112823300D01*
X63968299Y-108325001D02*
X63968299Y-107975001D01*
X58618300Y-107842500D02*
X61255800Y-107842500D01*
%TO.N,/SW_BOOT0*%
X94800000Y-99450000D02*
X96375000Y-101025000D01*
X93500000Y-99450000D02*
X94800000Y-99450000D01*
X96375000Y-101025000D02*
X96375000Y-104675000D01*
%TO.N,/SWO*%
X98868300Y-104705000D02*
X98868300Y-105578000D01*
X99141100Y-105850800D02*
X102542900Y-105850800D01*
X114028300Y-106990000D02*
X115990000Y-106990000D01*
X122818300Y-113818300D02*
X122818300Y-113830000D01*
X98868300Y-105578000D02*
X99141100Y-105850800D01*
X102542900Y-105850800D02*
X104212500Y-104181200D01*
X111219500Y-104181200D02*
X114028300Y-106990000D01*
X115990000Y-106990000D02*
X122818300Y-113818300D01*
X104212500Y-104181200D02*
X111219500Y-104181200D01*
%TO.N,GPIO_OUT_B15*%
X102319100Y-112600000D02*
X102093500Y-112825600D01*
X103800000Y-112600000D02*
X102319100Y-112600000D01*
%TO.N,GPIO_OUT_C14*%
X92450000Y-107600000D02*
X95257700Y-107600000D01*
X95257700Y-107600000D02*
X96239300Y-108581600D01*
%TO.N,GPIO_OUT_B14*%
X105845600Y-112554400D02*
X105300000Y-113100000D01*
X105300000Y-113100000D02*
X103800000Y-113100000D01*
X105845600Y-111945600D02*
X105845600Y-112554400D01*
%TO.N,/A0_UART4_TX*%
X92433400Y-113116600D02*
X86083800Y-113116600D01*
X92450000Y-113100000D02*
X92433400Y-113116600D01*
X85993900Y-113026700D02*
X86097200Y-113130000D01*
X86083800Y-113116600D02*
X85993900Y-113026700D01*
%TO.N,/A1_UART4_RX*%
X86800000Y-113600000D02*
X86200000Y-114200000D01*
X92450000Y-113600000D02*
X97147900Y-113600000D01*
X97147900Y-113600000D02*
X97416900Y-113869000D01*
X83738300Y-114200000D02*
X82918300Y-113380000D01*
X97416900Y-120650000D02*
X100085600Y-123318700D01*
X108769100Y-122783400D02*
X115845900Y-122783400D01*
X100085600Y-123318700D02*
X101621900Y-123318700D01*
X107849300Y-123703200D02*
X108769100Y-122783400D01*
X101621900Y-123318700D02*
X102006400Y-123703200D01*
X86200000Y-114200000D02*
X83738300Y-114200000D01*
X92450000Y-113600000D02*
X86800000Y-113600000D01*
X115845900Y-122783400D02*
X117012500Y-123950000D01*
%TO.N,GPIO_OUT_B12*%
X101758783Y-113951490D02*
X101937293Y-114130000D01*
X101937293Y-114130000D02*
X103793300Y-114130000D01*
%TO.N,GPIO_IN_B1*%
X100850000Y-101250000D02*
X105948300Y-101250000D01*
X105948300Y-101250000D02*
X110518300Y-96680000D01*
X99375000Y-116025000D02*
X99375000Y-114325000D01*
X100350000Y-101750000D02*
X100850000Y-101250000D01*
X99375000Y-114325000D02*
X99350000Y-114300000D01*
X110300000Y-83200000D02*
X110300000Y-78729600D01*
%TO.N,GPIO_IN_A10*%
X96350000Y-96100000D02*
X95300000Y-95050000D01*
X89368300Y-96480000D02*
X90327200Y-95521100D01*
X93496600Y-83085200D02*
X93496600Y-78614800D01*
X98713200Y-108984700D02*
X98858500Y-109130000D01*
X96350000Y-96450000D02*
X96350000Y-96100000D01*
X92735500Y-95050000D02*
X92264400Y-95521100D01*
X90327200Y-95521100D02*
X92264400Y-95521100D01*
X103800000Y-109100000D02*
X98828500Y-109100000D01*
X98828500Y-109100000D02*
X98713200Y-108984700D01*
X95300000Y-95050000D02*
X92735500Y-95050000D01*
%TO.N,GPIO_IN_B2*%
X99708400Y-121007300D02*
X101492200Y-122791100D01*
X99875000Y-116994400D02*
X99708400Y-117161000D01*
X127100000Y-83050000D02*
X127790400Y-83050000D01*
X101492200Y-122791100D02*
X106113900Y-122791100D01*
X127790400Y-83050000D02*
X127403400Y-83437000D01*
X127100000Y-78579600D02*
X127100000Y-83050000D01*
X99708400Y-117161000D02*
X99708400Y-121007300D01*
X127100000Y-83050000D02*
X127100000Y-84036000D01*
X99875000Y-116025000D02*
X99875000Y-116994400D01*
%TO.N,GPIO_OUT_B13*%
X115068300Y-110705000D02*
X113891600Y-110705000D01*
X110996600Y-113600000D02*
X113891600Y-110705000D01*
X103800000Y-113600000D02*
X110996600Y-113600000D01*
D32*
%TO.N,+3.3V*%
X91493300Y-117880000D02*
X91493300Y-119255000D01*
D31*
X103800000Y-106600000D02*
X104970000Y-105430000D01*
X95375000Y-118498300D02*
X95243300Y-118630000D01*
D32*
X87718300Y-98230000D02*
X88218300Y-98730000D01*
X110468300Y-98330000D02*
X109118300Y-99680000D01*
D33*
X60475000Y-105250000D02*
X60425000Y-105300000D01*
D31*
X87550000Y-109450000D02*
X86850000Y-110150000D01*
X74668300Y-97555000D02*
X74668300Y-98480000D01*
X108418300Y-105455000D02*
X109293300Y-105455000D01*
D32*
X92968300Y-102630000D02*
X92968300Y-102580000D01*
X104650000Y-117993300D02*
X104468300Y-118175000D01*
X104650000Y-116286700D02*
X104650000Y-117993300D01*
D31*
X108418300Y-105455000D02*
X108393300Y-105430000D01*
D32*
X95243300Y-118806700D02*
X93050000Y-121000000D01*
D31*
X88975000Y-109450000D02*
X87550000Y-109450000D01*
X95375000Y-116025000D02*
X95375000Y-118498300D01*
X101875000Y-116025000D02*
X101875000Y-117050000D01*
X101875000Y-117050000D02*
X103225000Y-118400000D01*
X104970000Y-105430000D02*
X106118300Y-105430000D01*
X74668300Y-98480000D02*
X75518300Y-99330000D01*
X104243300Y-118400000D02*
X104468300Y-118175000D01*
D32*
X95243300Y-118630000D02*
X95368300Y-118505000D01*
X104643300Y-116280000D02*
X104650000Y-116286700D01*
X91493300Y-119255000D02*
X90918300Y-119830000D01*
D31*
X92450000Y-106600000D02*
X92450000Y-106200000D01*
D32*
X110518300Y-98330000D02*
X110468300Y-98330000D01*
X92968300Y-102580000D02*
X91530000Y-102580000D01*
D33*
X60425000Y-105300000D02*
X59125000Y-105300000D01*
D31*
X92968300Y-103268300D02*
X92968300Y-102580000D01*
D32*
X88218300Y-99268300D02*
X88218300Y-98730000D01*
D31*
X94375000Y-104675000D02*
X92968300Y-103268300D01*
D32*
X91530000Y-102580000D02*
X88218300Y-99268300D01*
D31*
X109293300Y-105455000D02*
X109668300Y-105830000D01*
D32*
X95243300Y-118630000D02*
X95243300Y-118806700D01*
D31*
X108393300Y-105430000D02*
X106118300Y-105430000D01*
X103225000Y-118400000D02*
X104243300Y-118400000D01*
D32*
X87718300Y-96480000D02*
X87718300Y-98230000D01*
D31*
X92450000Y-106200000D02*
X91400000Y-105150000D01*
%TO.N,Net-(U3-SW)*%
X63875801Y-110817500D02*
X63968300Y-110725001D01*
X63968300Y-110725001D02*
X63968300Y-110755000D01*
X59750000Y-111950000D02*
X59750000Y-111949200D01*
X59750000Y-111949200D02*
X58618300Y-110817500D01*
X62743300Y-111950000D02*
X59750000Y-111950000D01*
X63968299Y-110725001D02*
X62743300Y-111950000D01*
%TO.N,Net-(U4-SW)*%
X59468300Y-123930000D02*
X60888300Y-125350000D01*
X64450000Y-125350000D02*
X60888300Y-125350000D01*
X65318299Y-123555001D02*
X65318299Y-124481701D01*
X65318299Y-124481701D02*
X64450000Y-125350000D01*
%TO.N,Net-(U3-FB)*%
X65868300Y-108005000D02*
X65868300Y-107178300D01*
X66993300Y-106053300D02*
X65868300Y-107178300D01*
X66993300Y-105930000D02*
X66993300Y-106053300D01*
X68368300Y-105930000D02*
X66993300Y-105930000D01*
X66993300Y-105930000D02*
X65943300Y-104880000D01*
%TO.N,Net-(U4-FB)*%
X67218300Y-119780000D02*
X66268300Y-118830000D01*
X67218298Y-120805001D02*
X67218298Y-119780002D01*
X67998299Y-120025000D02*
X67218298Y-120805001D01*
X69450000Y-120025000D02*
X67998299Y-120025000D01*
X67218298Y-119780002D02*
X67218300Y-119780000D01*
%TO.N,GPIO_OUT_C13*%
X117289300Y-116310000D02*
X117289300Y-117584000D01*
X117289300Y-117584000D02*
X116468300Y-118405000D01*
X105800000Y-118000000D02*
X111686599Y-118000000D01*
D32*
X116475000Y-120100000D02*
X116475000Y-118411700D01*
D31*
X112151599Y-117535000D02*
X114059500Y-117535000D01*
X105750000Y-118050000D02*
X105800000Y-118000000D01*
X116981700Y-116002400D02*
X117289300Y-116310000D01*
X96920700Y-107750000D02*
X101253500Y-107750000D01*
X111686599Y-118000000D02*
X112151599Y-117535000D01*
X115592100Y-116002400D02*
X116981700Y-116002400D01*
X96270700Y-107100000D02*
X96920700Y-107750000D01*
X114059500Y-117535000D02*
X115592100Y-116002400D01*
X101253500Y-107750000D02*
X101461600Y-107541900D01*
D32*
X116475000Y-118411700D02*
X116468300Y-118405000D01*
D31*
X92450000Y-107100000D02*
X96270700Y-107100000D01*
%TO.N,GPIO_IN_C6*%
X76546600Y-83235200D02*
X77237000Y-83235200D01*
X103800000Y-112100000D02*
X101850000Y-112100000D01*
X97334400Y-107300000D02*
X96656500Y-106622100D01*
X99471900Y-107300000D02*
X97334400Y-107300000D01*
X99962700Y-106809200D02*
X99471900Y-107300000D01*
X96656500Y-106622100D02*
X94360400Y-106622100D01*
X101792600Y-112098900D02*
X101536300Y-112355200D01*
X99880700Y-112355200D02*
X99813500Y-112288000D01*
X94360400Y-106622100D02*
X83643300Y-95905000D01*
X83643300Y-95905000D02*
X74668300Y-95905000D01*
D32*
X76546600Y-78764800D02*
X76546600Y-83235200D01*
D31*
X101536300Y-112355200D02*
X99880700Y-112355200D01*
%TO.N,/GPIO_IN_A4*%
X76726700Y-132160000D02*
X75018300Y-132160000D01*
X85720800Y-123165900D02*
X76726700Y-132160000D01*
X96218300Y-117247764D02*
X96218300Y-119368604D01*
X92421004Y-123165900D02*
X85720800Y-123165900D01*
X95868300Y-116897764D02*
X96218300Y-117247764D01*
X95868300Y-116055000D02*
X95868300Y-116897764D01*
X96218300Y-119368604D02*
X92421004Y-123165900D01*
%TO.N,/GPIO_IN_A2*%
X91630100Y-114943200D02*
X92443300Y-114130000D01*
X90693300Y-114943200D02*
X91630100Y-114943200D01*
%TO.N,/GPIO_IN_A3*%
X80560800Y-122714200D02*
X91238300Y-122714200D01*
X75018300Y-127080000D02*
X76195000Y-127080000D01*
X92293300Y-118130000D02*
X94368300Y-116055000D01*
X92293300Y-121659200D02*
X92293300Y-118130000D01*
X91238300Y-122714200D02*
X92293300Y-121659200D01*
X76195000Y-127080000D02*
X80560800Y-122714200D01*
%TO.N,GPO_5V_EN*%
X103800000Y-111125000D02*
X101049000Y-111125000D01*
X77450000Y-120550000D02*
X88950000Y-120550000D01*
X71950000Y-126050000D02*
X77450000Y-120550000D01*
X67218300Y-124381700D02*
X68886600Y-126050000D01*
X67218300Y-123555000D02*
X67218300Y-124381700D01*
X103800000Y-111100000D02*
X103800000Y-111125000D01*
X68886600Y-126050000D02*
X71950000Y-126050000D01*
X101049000Y-111125000D02*
X101044000Y-111130000D01*
%TO.N,power_to_adc*%
X101652700Y-111600000D02*
X101349200Y-111903500D01*
X100162300Y-111561300D02*
X95117600Y-111561300D01*
X92450000Y-110600000D02*
X88409200Y-110600000D01*
X68123300Y-112100000D02*
X67293300Y-112930000D01*
X101349200Y-111903500D02*
X100504500Y-111903500D01*
X103800000Y-111600000D02*
X101652700Y-111600000D01*
X86889600Y-112100000D02*
X68123300Y-112100000D01*
X95117600Y-111561300D02*
X94156300Y-110600000D01*
X94156300Y-110600000D02*
X92450000Y-110600000D01*
X86899400Y-112109800D02*
X86889600Y-112100000D01*
X100504500Y-111903500D02*
X100162300Y-111561300D01*
X88409200Y-110600000D02*
X86899400Y-112109800D01*
%TO.N,Net-(U3-VOUT)*%
X62125000Y-105250000D02*
X62125000Y-105625000D01*
X64918300Y-107975001D02*
X64918300Y-108381904D01*
X64918300Y-108381904D02*
X65936396Y-109400000D01*
X63990000Y-106250000D02*
X64918300Y-107178300D01*
X65936396Y-109400000D02*
X68263300Y-109400000D01*
X68263300Y-109400000D02*
X68268300Y-109405000D01*
X64918300Y-107975001D02*
X64918300Y-107178300D01*
X68268300Y-109405000D02*
X68368300Y-109305000D01*
X62125000Y-105625000D02*
X62750000Y-106250000D01*
X62750000Y-106250000D02*
X63990000Y-106250000D01*
X68368300Y-109305000D02*
X68368300Y-107580000D01*
%TO.N,Net-(U4-VOUT)*%
X66268300Y-120505000D02*
X66268300Y-120805000D01*
X66268300Y-121668300D02*
X67212400Y-122612400D01*
X69479500Y-123391200D02*
X69518300Y-123430000D01*
X69450000Y-123361700D02*
X69518300Y-123430000D01*
X69479500Y-122612400D02*
X69479500Y-123391200D01*
X69450000Y-121675000D02*
X69450000Y-123361700D01*
X67212400Y-122612400D02*
X69479500Y-122612400D01*
X66268300Y-120505000D02*
X66268300Y-119978300D01*
X64018300Y-118680000D02*
X65316600Y-119978300D01*
X65316600Y-119978300D02*
X66268300Y-119978300D01*
X66268300Y-120805001D02*
X66268300Y-121668300D01*
%TO.N,Net-(J7-Pin_1)*%
X91850000Y-99450000D02*
X91850000Y-98900000D01*
X91850000Y-98900000D02*
X93650000Y-97100000D01*
%TO.N,/A1_UART4_RX*%
X102006400Y-123703200D02*
X107849300Y-123703200D01*
%TO.N,GPIO_OUT_C14*%
X97400000Y-121900000D02*
X99270400Y-123770400D01*
X101434800Y-123770400D02*
X101871000Y-124206600D01*
X99270400Y-123770400D02*
X101434800Y-123770400D01*
X111235000Y-124206600D02*
X111461600Y-123980000D01*
X111461600Y-123980000D02*
X112638300Y-123980000D01*
X101871000Y-124206600D02*
X111235000Y-124206600D01*
%TD*%
M02*
