%TF.GenerationSoftware,KiCad,Pcbnew,8.0.6*%
%TF.CreationDate,2024-12-13T11:58:04-05:00*%
%TF.ProjectId,11_9_design,31315f39-5f64-4657-9369-676e2e6b6963,v6*%
%TF.SameCoordinates,Original*%
%TF.FileFunction,Copper,L4,Bot*%
%TF.FilePolarity,Positive*%
%FSLAX46Y46*%
G04 Gerber Fmt 4.6, Leading zero omitted, Abs format (unit mm)*
G04 Created by KiCad (PCBNEW 8.0.6) date 2024-12-13 11:58:04*
%MOMM*%
%LPD*%
G01*
G04 APERTURE LIST*
G04 Aperture macros list*
%AMRoundRect*
0 Rectangle with rounded corners*
0 $1 Rounding radius*
0 $2 $3 $4 $5 $6 $7 $8 $9 X,Y pos of 4 corners*
0 Add a 4 corners polygon primitive as box body*
4,1,4,$2,$3,$4,$5,$6,$7,$8,$9,$2,$3,0*
0 Add four circle primitives for the rounded corners*
1,1,$1+$1,$2,$3*
1,1,$1+$1,$4,$5*
1,1,$1+$1,$6,$7*
1,1,$1+$1,$8,$9*
0 Add four rect primitives between the rounded corners*
20,1,$1+$1,$2,$3,$4,$5,0*
20,1,$1+$1,$4,$5,$6,$7,0*
20,1,$1+$1,$6,$7,$8,$9,0*
20,1,$1+$1,$8,$9,$2,$3,0*%
G04 Aperture macros list end*
%TA.AperFunction,ComponentPad*%
%ADD10C,3.000000*%
%TD*%
%TA.AperFunction,ComponentPad*%
%ADD11C,1.000000*%
%TD*%
%TA.AperFunction,ComponentPad*%
%ADD12R,1.700000X1.700000*%
%TD*%
%TA.AperFunction,ComponentPad*%
%ADD13O,1.700000X1.700000*%
%TD*%
%TA.AperFunction,ComponentPad*%
%ADD14RoundRect,0.250000X0.615000X-0.265000X0.615000X0.265000X-0.615000X0.265000X-0.615000X-0.265000X0*%
%TD*%
%TA.AperFunction,ComponentPad*%
%ADD15O,1.730000X1.030000*%
%TD*%
%TA.AperFunction,ComponentPad*%
%ADD16RoundRect,0.250000X-0.550000X-0.550000X0.550000X-0.550000X0.550000X0.550000X-0.550000X0.550000X0*%
%TD*%
%TA.AperFunction,ViaPad*%
%ADD17C,0.800000*%
%TD*%
%TA.AperFunction,Conductor*%
%ADD18C,0.250000*%
%TD*%
%TA.AperFunction,Conductor*%
%ADD19C,0.300000*%
%TD*%
G04 APERTURE END LIST*
D10*
%TO.P,,*%
%TO.N,GND*%
X135300000Y-88900000D03*
%TD*%
%TO.P,,*%
%TO.N,GND*%
X135300000Y-132100000D03*
%TD*%
%TO.P,,*%
%TO.N,GND*%
X55700000Y-132200000D03*
%TD*%
%TO.P,,*%
%TO.N,GND*%
X55650000Y-89050000D03*
%TD*%
D11*
%TO.P,J12,1,Pin_1*%
%TO.N,unconnected-(J12-Pin_1-Pad1)*%
X134320000Y-107380000D03*
%TO.P,J12,2,Pin_2*%
%TO.N,unconnected-(J12-Pin_2-Pad2)*%
X133050000Y-107380000D03*
%TO.P,J12,3,Pin_3*%
%TO.N,+3.3V*%
X134320000Y-108650000D03*
%TO.P,J12,4,Pin_4*%
%TO.N,Net-(J12-Pin_4)*%
X133050000Y-108650000D03*
%TO.P,J12,5,Pin_5*%
%TO.N,GND*%
X134320000Y-109920000D03*
%TO.P,J12,6,Pin_6*%
%TO.N,Net-(J12-Pin_6)*%
X133050000Y-109920000D03*
%TO.P,J12,7,Pin_7*%
%TO.N,GND*%
X134320000Y-111190000D03*
%TO.P,J12,8,Pin_8*%
%TO.N,Net-(J12-Pin_8)*%
X133050000Y-111190000D03*
%TO.P,J12,9,Pin_9*%
%TO.N,unconnected-(J12-Pin_9-Pad9)*%
X134320000Y-112460000D03*
%TO.P,J12,10,Pin_10*%
%TO.N,unconnected-(J12-Pin_10-Pad10)*%
X133050000Y-112460000D03*
%TO.P,J12,11,Pin_11*%
%TO.N,GND*%
X134320000Y-113730000D03*
%TO.P,J12,12,Pin_12*%
%TO.N,Net-(J12-Pin_12)*%
X133050000Y-113730000D03*
%TO.P,J12,13,Pin_13*%
%TO.N,/A1_UART4_RX*%
X134320000Y-115000000D03*
%TO.P,J12,14,Pin_14*%
%TO.N,/A0_UART4_TX*%
X133050000Y-115000000D03*
%TD*%
D12*
%TO.P,J5,1,Pin_1*%
%TO.N,Net-(J5-Pin_1)*%
X57075000Y-79350000D03*
D13*
%TO.P,J5,2,Pin_2*%
%TO.N,GPIO_OUT_C15*%
X59615000Y-79350000D03*
%TD*%
D12*
%TO.P,J4,1,Pin_1*%
%TO.N,/A0_UART4_TX*%
X82918300Y-110840000D03*
D13*
%TO.P,J4,2,Pin_2*%
%TO.N,/A1_UART4_RX*%
X82918300Y-113380000D03*
%TO.P,J4,3,Pin_3*%
%TO.N,GND*%
X82918300Y-115920000D03*
%TD*%
D14*
%TO.P,J11,1,Pin_1*%
%TO.N,Net-(J11-Pin_1)*%
X55718300Y-99280000D03*
D15*
%TO.P,J11,2,Pin_2*%
%TO.N,GND*%
X55718300Y-97780000D03*
%TD*%
D16*
%TO.P,J7,1,Pin_1*%
%TO.N,Net-(J7-Pin_1)*%
X93650000Y-97100000D03*
%TD*%
D12*
%TO.P,J1,1,Pin_1*%
%TO.N,GPIO_OUT_B15*%
X98010000Y-131450000D03*
D13*
%TO.P,J1,2,Pin_2*%
%TO.N,/I2C4_SCL*%
X100550000Y-131450000D03*
%TO.P,J1,3,Pin_3*%
%TO.N,/I2C4_SDA*%
X103090000Y-131450000D03*
%TO.P,J1,4,Pin_4*%
%TO.N,GND*%
X105630000Y-131450000D03*
%TD*%
D12*
%TO.P,J2,1,Pin_1*%
%TO.N,+5V*%
X91168300Y-131830000D03*
D13*
%TO.P,J2,2,Pin_2*%
%TO.N,/I2C3_SCL*%
X88628300Y-131830000D03*
%TO.P,J2,3,Pin_3*%
%TO.N,/I2C3_SDA*%
X86088300Y-131830000D03*
%TO.P,J2,4,Pin_4*%
%TO.N,GND*%
X83548300Y-131830000D03*
%TD*%
D12*
%TO.P,J10,1,Pin_1*%
%TO.N,GPIO_OUT_B13*%
X115068300Y-110705000D03*
D13*
%TO.P,J10,2,Pin_2*%
%TO.N,/ADC1_IN3*%
X115068300Y-108165000D03*
%TO.P,J10,3,Pin_3*%
%TO.N,GND*%
X115068300Y-105625000D03*
%TD*%
D16*
%TO.P,J15,1,Pin_1*%
%TO.N,/STM_CLK*%
X109318300Y-111780000D03*
%TD*%
D12*
%TO.P,J6,1,Pin_1*%
%TO.N,GPIO_OUT_B14*%
X104893300Y-98980000D03*
D13*
%TO.P,J6,2,Pin_2*%
%TO.N,/ADC1_IN1*%
X102353300Y-98980000D03*
%TO.P,J6,3,Pin_3*%
%TO.N,GND*%
X99813300Y-98980000D03*
%TD*%
D12*
%TO.P,J3,1,Pin_1*%
%TO.N,GPIO_OUT_C14*%
X112638300Y-123980000D03*
D13*
%TO.P,J3,2,Pin_2*%
%TO.N,/I2C4_SCL*%
X112638300Y-121440000D03*
%TO.P,J3,3,Pin_3*%
%TO.N,/I2C4_SDA*%
X112638300Y-118900000D03*
%TO.P,J3,4,Pin_4*%
%TO.N,GND*%
X112638300Y-116360000D03*
%TD*%
D12*
%TO.P,J23,1,Pin_1*%
%TO.N,/GPIO_OUT_A15*%
X113318300Y-99605000D03*
D13*
%TO.P,J23,2,Pin_2*%
%TO.N,/GPIO_OUT_C12*%
X113318300Y-97065000D03*
%TO.P,J23,3,Pin_3*%
%TO.N,/GPIO_OUT_B6*%
X113318300Y-94525000D03*
%TD*%
D12*
%TO.P,J9,1,Pin_1*%
%TO.N,GPIO_OUT_B12*%
X99508300Y-124980000D03*
D13*
%TO.P,J9,2,Pin_2*%
%TO.N,/ADC1_IN4*%
X96968300Y-124980000D03*
%TO.P,J9,3,Pin_3*%
%TO.N,GND*%
X94428300Y-124980000D03*
%TD*%
D16*
%TO.P,J13,1,Pin_1*%
%TO.N,+5V*%
X81268300Y-125180000D03*
%TD*%
%TO.P,J14,1,Pin_1*%
%TO.N,+3.3V*%
X95000000Y-92500000D03*
%TD*%
%TO.P,J8,1,Pin_1*%
%TO.N,GND*%
X76000000Y-104550000D03*
%TD*%
D12*
%TO.P,J22,1,Pin_1*%
%TO.N,/GPIO_IN_A3*%
X75018300Y-127080000D03*
D13*
%TO.P,J22,2,Pin_2*%
%TO.N,/GPIO_IN_A2*%
X75018300Y-129620000D03*
%TO.P,J22,3,Pin_3*%
%TO.N,/GPIO_IN_A4*%
X75018300Y-132160000D03*
%TD*%
D17*
%TO.N,GND*%
X137250000Y-111800000D03*
X137450000Y-114750000D03*
X67500000Y-85300000D03*
X137400000Y-109650000D03*
%TO.N,+3.3V*%
X137300000Y-107750000D03*
%TO.N,GND*%
X118496600Y-85805700D03*
X95168300Y-114530000D03*
X84443200Y-85346600D03*
X71318300Y-110430000D03*
X69518300Y-117680000D03*
X101196600Y-84950000D03*
X107768300Y-116330000D03*
X109718300Y-108030000D03*
X124500000Y-121450000D03*
X66468300Y-125780000D03*
X72100000Y-124150000D03*
X92118300Y-101180000D03*
X61768300Y-123430000D03*
X68350000Y-97800000D03*
X64868300Y-103130000D03*
X95418300Y-112405000D03*
X63950000Y-112600000D03*
X103210200Y-120887200D03*
%TO.N,+3.3VA*%
X87645200Y-112391600D03*
X87986300Y-114449700D03*
%TO.N,/NRST*%
X110568300Y-106527400D03*
X114850000Y-115533200D03*
%TO.N,+5V*%
X60668300Y-118130000D03*
X82650000Y-128850000D03*
X92118300Y-128830000D03*
%TO.N,/I2C3_SDA*%
X97900000Y-106575000D03*
%TO.N,/GPIO_OUT_B6*%
X106000000Y-94600000D03*
%TO.N,/ADC1_IN4*%
X94069600Y-111630000D03*
%TO.N,/ADC1_IN1*%
X95048500Y-110131600D03*
%TO.N,/ADC1_IN3*%
X90377200Y-111374700D03*
%TO.N,/SW_DIO*%
X112015900Y-107862400D03*
X112015900Y-102462100D03*
%TO.N,GPIO_OUT_B15*%
X102093500Y-112825600D03*
%TO.N,GPIO_OUT_C14*%
X96239300Y-108581600D03*
X97400000Y-121900000D03*
%TO.N,GPIO_OUT_B14*%
X105845600Y-111945600D03*
%TO.N,/A0_UART4_TX*%
X85993900Y-113026700D03*
%TO.N,/A1_UART4_RX*%
X97416900Y-113869000D03*
X97416900Y-120650000D03*
%TO.N,GPIO_OUT_B12*%
X101758783Y-113951490D03*
%TO.N,GPIO_IN_B1*%
X99350000Y-114300000D03*
X100350000Y-101750000D03*
%TO.N,GPIO_IN_A10*%
X98713200Y-108984700D03*
X96350000Y-96450000D03*
%TO.N,GPIO_IN_B2*%
X106113900Y-122791100D03*
X110294300Y-102744300D03*
%TO.N,+3.3V*%
X126750000Y-96950000D03*
X75518300Y-99330000D03*
X59125000Y-105300000D03*
X91400000Y-105150000D03*
X88218300Y-98730000D03*
X109668300Y-105830000D03*
X109118300Y-99680000D03*
X93050000Y-121000000D03*
X85718300Y-96030000D03*
X86850000Y-110150000D03*
X90918300Y-119830000D03*
X104468300Y-118175000D03*
%TO.N,GPIO_OUT_C13*%
X105750000Y-118050000D03*
X101461600Y-107541900D03*
%TO.N,GPIO_IN_C6*%
X99813500Y-112288000D03*
X99962700Y-106809200D03*
%TO.N,/GPIO_IN_A2*%
X90693300Y-114943200D03*
%TO.N,GPO_5V_EN*%
X101044000Y-111130000D03*
X88950000Y-120550000D03*
%TD*%
D18*
%TO.N,/NRST*%
X114850000Y-115533200D02*
X114850000Y-113861700D01*
X110568300Y-109580000D02*
X110568300Y-106527400D01*
X114850000Y-113861700D02*
X110568300Y-109580000D01*
%TO.N,+3.3VA*%
X87645200Y-112391600D02*
X87986300Y-112732700D01*
X87986300Y-112732700D02*
X87986300Y-114449700D01*
%TO.N,/I2C4_SCL*%
X110775000Y-123671000D02*
X110775000Y-128011600D01*
D19*
X101675000Y-134325000D02*
X107775000Y-134325000D01*
D18*
X111829300Y-122616700D02*
X110775000Y-123671000D01*
X112638300Y-121836700D02*
X111858300Y-122616700D01*
D19*
X100550000Y-133200000D02*
X101675000Y-134325000D01*
D18*
X111858300Y-122616700D02*
X111829300Y-122616700D01*
D19*
X107775000Y-134325000D02*
X110775000Y-131325000D01*
X110775000Y-131325000D02*
X110775000Y-128011600D01*
X100550000Y-131450000D02*
X100550000Y-133200000D01*
D18*
X112638300Y-121440000D02*
X112638300Y-121836700D01*
%TO.N,/I2C3_SDA*%
X97900000Y-106575000D02*
X96576300Y-106575000D01*
X86088300Y-117375400D02*
X86088300Y-131830000D01*
X88713000Y-114438300D02*
X88713000Y-114750700D01*
X96576300Y-106575000D02*
X88713000Y-114438300D01*
X88713000Y-114750700D02*
X86088300Y-117375400D01*
%TO.N,/GPIO_OUT_B6*%
X106075000Y-94525000D02*
X113318300Y-94525000D01*
X106000000Y-94600000D02*
X106075000Y-94525000D01*
%TO.N,/ADC1_IN4*%
X94069600Y-120904600D02*
X94069600Y-111630000D01*
X96968300Y-123803300D02*
X94069600Y-120904600D01*
X96968300Y-124980000D02*
X96968300Y-123803300D01*
%TO.N,/ADC1_IN1*%
X98997600Y-109728000D02*
X99461200Y-109264400D01*
X98615900Y-103199500D02*
X98615900Y-98437100D01*
X95963400Y-107828300D02*
X96511305Y-107828300D01*
X95048500Y-110131600D02*
X95048500Y-108743200D01*
X99135800Y-103719400D02*
X98615900Y-103199500D01*
X98615900Y-98437100D02*
X99276200Y-97776800D01*
X98411005Y-109728000D02*
X98997600Y-109728000D01*
X99276200Y-97776800D02*
X101176800Y-97776800D01*
X99135800Y-107747100D02*
X99135800Y-103719400D01*
X101176800Y-97776800D02*
X101400000Y-98000000D01*
X99461200Y-109264400D02*
X99461200Y-108072500D01*
X99461200Y-108072500D02*
X99135800Y-107747100D01*
X101400000Y-98000000D02*
X101400000Y-98026700D01*
X96511305Y-107828300D02*
X98411005Y-109728000D01*
X95048500Y-108743200D02*
X95963400Y-107828300D01*
X101400000Y-98026700D02*
X102353300Y-98980000D01*
%TO.N,/ADC1_IN3*%
X92550000Y-94200000D02*
X90377200Y-96372800D01*
X116290200Y-106134100D02*
X116290200Y-98266900D01*
X97340800Y-95744000D02*
X95796800Y-94200000D01*
X115068300Y-106988300D02*
X115436000Y-106988300D01*
X113767300Y-95744000D02*
X97340800Y-95744000D01*
X115068300Y-108165000D02*
X115068300Y-106988300D01*
X95796800Y-94200000D02*
X92550000Y-94200000D01*
X115436000Y-106988300D02*
X116290200Y-106134100D01*
X116290200Y-98266900D02*
X113767300Y-95744000D01*
X90377200Y-96372800D02*
X90377200Y-111374700D01*
%TO.N,/SW_DIO*%
X112015900Y-107862400D02*
X112015900Y-102462100D01*
%TO.N,GPIO_OUT_B15*%
X102485200Y-113217300D02*
X102485200Y-126974800D01*
X102485200Y-126974800D02*
X98010000Y-131450000D01*
X102093500Y-112825600D02*
X102485200Y-113217300D01*
%TO.N,GPIO_OUT_C14*%
X97400000Y-121900000D02*
X96239300Y-120739300D01*
X96239300Y-120739300D02*
X96239300Y-108581600D01*
%TO.N,GPIO_OUT_B14*%
X104893300Y-100156700D02*
X104893300Y-98980000D01*
X105950000Y-101213400D02*
X104893300Y-100156700D01*
X105845600Y-111945600D02*
X105950000Y-111841200D01*
X105950000Y-111841200D02*
X105950000Y-101213400D01*
%TO.N,/A0_UART4_TX*%
X82918300Y-110840000D02*
X83807200Y-110840000D01*
X83807200Y-110840000D02*
X85993900Y-113026700D01*
%TO.N,/A1_UART4_RX*%
X97416900Y-120650000D02*
X97416900Y-113869000D01*
%TO.N,GPIO_OUT_B12*%
X99508300Y-123803300D02*
X99508300Y-124980000D01*
X101758783Y-113951490D02*
X101758400Y-113951873D01*
X101758400Y-121553200D02*
X99508300Y-123803300D01*
X101758400Y-113951873D02*
X101758400Y-121553200D01*
%TO.N,GPIO_IN_B1*%
X99350000Y-113829400D02*
X99350000Y-114300000D01*
X100589200Y-112590200D02*
X99350000Y-113829400D01*
X100687700Y-106508895D02*
X100687700Y-109940396D01*
X100687700Y-109940396D02*
X100265200Y-110362896D01*
X100265200Y-106086395D02*
X100687700Y-106508895D01*
X100265200Y-111664200D02*
X100589200Y-111988200D01*
X100589200Y-111988200D02*
X100589200Y-112590200D01*
X100265200Y-110362896D02*
X100265200Y-111664200D01*
X100265200Y-101834800D02*
X100265200Y-106086395D01*
X100350000Y-101750000D02*
X100265200Y-101834800D01*
%TO.N,GPIO_IN_A10*%
X98684100Y-104161100D02*
X98684100Y-108955600D01*
X98684100Y-108955600D02*
X98713200Y-108984700D01*
X96350000Y-101827000D02*
X98684100Y-104161100D01*
X96350000Y-96450000D02*
X96350000Y-101827000D01*
%TO.N,GPIO_IN_B2*%
X110294300Y-102744300D02*
X106850000Y-106188600D01*
X106850000Y-106188600D02*
X106850000Y-122055000D01*
X106850000Y-122055000D02*
X106113900Y-122791100D01*
%TO.N,GPIO_OUT_C13*%
X103486500Y-115786500D02*
X103486500Y-109566800D01*
X105750000Y-118050000D02*
X103486500Y-115786500D01*
X103486500Y-109566800D02*
X101461600Y-107541900D01*
%TO.N,GPIO_IN_C6*%
X99813500Y-110178200D02*
X99813500Y-112288000D01*
X99962700Y-110029000D02*
X99813500Y-110178200D01*
X99962700Y-106809200D02*
X99962700Y-110029000D01*
%TO.N,/GPIO_IN_A2*%
X85951800Y-134229100D02*
X87275000Y-132905900D01*
X75869100Y-129819100D02*
X80279100Y-134229100D01*
X90693300Y-115125800D02*
X90693300Y-114943200D01*
X87275000Y-118544100D02*
X90693300Y-115125800D01*
X87275000Y-132905900D02*
X87275000Y-118544100D01*
X80279100Y-134229100D02*
X85951800Y-134229100D01*
X75001800Y-129819100D02*
X75869100Y-129819100D01*
%TO.N,GPO_5V_EN*%
X93988500Y-126207600D02*
X88950000Y-121169100D01*
X101044000Y-113830200D02*
X101031700Y-113842500D01*
X101044000Y-111130000D02*
X101044000Y-113830200D01*
X98312200Y-125306000D02*
X97410600Y-126207600D01*
X98312200Y-118778000D02*
X98312200Y-125306000D01*
X101031700Y-116058500D02*
X98312200Y-118778000D01*
X88950000Y-121169100D02*
X88950000Y-120550000D01*
X97410600Y-126207600D02*
X93988500Y-126207600D01*
X101031700Y-113842500D02*
X101031700Y-116058500D01*
%TO.N,/I2C4_SDA*%
X106881800Y-123849800D02*
X107688500Y-123849800D01*
X107688500Y-123849800D02*
X112638300Y-118900000D01*
D19*
X103090000Y-127641600D02*
X106881800Y-123849800D01*
X103090000Y-131450000D02*
X103090000Y-127641600D01*
%TD*%
M02*
