%TF.GenerationSoftware,KiCad,Pcbnew,8.0.6*%
%TF.CreationDate,2024-12-13T11:58:04-05:00*%
%TF.ProjectId,11_9_design,31315f39-5f64-4657-9369-676e2e6b6963,v6*%
%TF.SameCoordinates,Original*%
%TF.FileFunction,Copper,L2,Inr*%
%TF.FilePolarity,Positive*%
%FSLAX46Y46*%
G04 Gerber Fmt 4.6, Leading zero omitted, Abs format (unit mm)*
G04 Created by KiCad (PCBNEW 8.0.6) date 2024-12-13 11:58:04*
%MOMM*%
%LPD*%
G01*
G04 APERTURE LIST*
G04 Aperture macros list*
%AMRoundRect*
0 Rectangle with rounded corners*
0 $1 Rounding radius*
0 $2 $3 $4 $5 $6 $7 $8 $9 X,Y pos of 4 corners*
0 Add a 4 corners polygon primitive as box body*
4,1,4,$2,$3,$4,$5,$6,$7,$8,$9,$2,$3,0*
0 Add four circle primitives for the rounded corners*
1,1,$1+$1,$2,$3*
1,1,$1+$1,$4,$5*
1,1,$1+$1,$6,$7*
1,1,$1+$1,$8,$9*
0 Add four rect primitives between the rounded corners*
20,1,$1+$1,$2,$3,$4,$5,0*
20,1,$1+$1,$4,$5,$6,$7,0*
20,1,$1+$1,$6,$7,$8,$9,0*
20,1,$1+$1,$8,$9,$2,$3,0*%
G04 Aperture macros list end*
%TA.AperFunction,ComponentPad*%
%ADD10C,3.000000*%
%TD*%
%TA.AperFunction,ComponentPad*%
%ADD11C,1.000000*%
%TD*%
%TA.AperFunction,ComponentPad*%
%ADD12R,1.700000X1.700000*%
%TD*%
%TA.AperFunction,ComponentPad*%
%ADD13O,1.700000X1.700000*%
%TD*%
%TA.AperFunction,ComponentPad*%
%ADD14RoundRect,0.250000X0.615000X-0.265000X0.615000X0.265000X-0.615000X0.265000X-0.615000X-0.265000X0*%
%TD*%
%TA.AperFunction,ComponentPad*%
%ADD15O,1.730000X1.030000*%
%TD*%
%TA.AperFunction,ComponentPad*%
%ADD16RoundRect,0.250000X-0.550000X-0.550000X0.550000X-0.550000X0.550000X0.550000X-0.550000X0.550000X0*%
%TD*%
%TA.AperFunction,ViaPad*%
%ADD17C,0.800000*%
%TD*%
G04 APERTURE END LIST*
D10*
%TO.N,GND*%
%TO.C,*%
X135300000Y-88900000D03*
%TD*%
%TO.N,GND*%
%TO.C,*%
X135300000Y-132100000D03*
%TD*%
%TO.N,GND*%
%TO.C,*%
X55700000Y-132200000D03*
%TD*%
%TO.N,GND*%
%TO.C,*%
X55650000Y-89050000D03*
%TD*%
D11*
%TO.N,unconnected-(J12-Pin_1-Pad1)*%
%TO.C,J12*%
X134320000Y-107380000D03*
%TO.N,unconnected-(J12-Pin_2-Pad2)*%
X133050000Y-107380000D03*
%TO.N,+3.3V*%
X134320000Y-108650000D03*
%TO.N,Net-(J12-Pin_4)*%
X133050000Y-108650000D03*
%TO.N,GND*%
X134320000Y-109920000D03*
%TO.N,Net-(J12-Pin_6)*%
X133050000Y-109920000D03*
%TO.N,GND*%
X134320000Y-111190000D03*
%TO.N,Net-(J12-Pin_8)*%
X133050000Y-111190000D03*
%TO.N,unconnected-(J12-Pin_9-Pad9)*%
X134320000Y-112460000D03*
%TO.N,unconnected-(J12-Pin_10-Pad10)*%
X133050000Y-112460000D03*
%TO.N,GND*%
X134320000Y-113730000D03*
%TO.N,Net-(J12-Pin_12)*%
X133050000Y-113730000D03*
%TO.N,/A1_UART4_RX*%
X134320000Y-115000000D03*
%TO.N,/A0_UART4_TX*%
X133050000Y-115000000D03*
%TD*%
D12*
%TO.N,Net-(J5-Pin_1)*%
%TO.C,J5*%
X57075000Y-79350000D03*
D13*
%TO.N,GPIO_OUT_C15*%
X59615000Y-79350000D03*
%TD*%
D12*
%TO.N,/A0_UART4_TX*%
%TO.C,J4*%
X82918300Y-110840000D03*
D13*
%TO.N,/A1_UART4_RX*%
X82918300Y-113380000D03*
%TO.N,GND*%
X82918300Y-115920000D03*
%TD*%
D14*
%TO.N,Net-(J11-Pin_1)*%
%TO.C,J11*%
X55718300Y-99280000D03*
D15*
%TO.N,GND*%
X55718300Y-97780000D03*
%TD*%
D16*
%TO.N,Net-(J7-Pin_1)*%
%TO.C,J7*%
X93650000Y-97100000D03*
%TD*%
D12*
%TO.N,GPIO_OUT_B15*%
%TO.C,J1*%
X98010000Y-131450000D03*
D13*
%TO.N,/I2C4_SCL*%
X100550000Y-131450000D03*
%TO.N,/I2C4_SDA*%
X103090000Y-131450000D03*
%TO.N,GND*%
X105630000Y-131450000D03*
%TD*%
D12*
%TO.N,+5V*%
%TO.C,J2*%
X91168300Y-131830000D03*
D13*
%TO.N,/I2C3_SCL*%
X88628300Y-131830000D03*
%TO.N,/I2C3_SDA*%
X86088300Y-131830000D03*
%TO.N,GND*%
X83548300Y-131830000D03*
%TD*%
D12*
%TO.N,GPIO_OUT_B13*%
%TO.C,J10*%
X115068300Y-110705000D03*
D13*
%TO.N,/ADC1_IN3*%
X115068300Y-108165000D03*
%TO.N,GND*%
X115068300Y-105625000D03*
%TD*%
D16*
%TO.N,/STM_CLK*%
%TO.C,J15*%
X109318300Y-111780000D03*
%TD*%
D12*
%TO.N,GPIO_OUT_B14*%
%TO.C,J6*%
X104893300Y-98980000D03*
D13*
%TO.N,/ADC1_IN1*%
X102353300Y-98980000D03*
%TO.N,GND*%
X99813300Y-98980000D03*
%TD*%
D12*
%TO.N,GPIO_OUT_C14*%
%TO.C,J3*%
X112638300Y-123980000D03*
D13*
%TO.N,/I2C4_SCL*%
X112638300Y-121440000D03*
%TO.N,/I2C4_SDA*%
X112638300Y-118900000D03*
%TO.N,GND*%
X112638300Y-116360000D03*
%TD*%
D12*
%TO.N,/GPIO_OUT_A15*%
%TO.C,J23*%
X113318300Y-99605000D03*
D13*
%TO.N,/GPIO_OUT_C12*%
X113318300Y-97065000D03*
%TO.N,/GPIO_OUT_B6*%
X113318300Y-94525000D03*
%TD*%
D12*
%TO.N,GPIO_OUT_B12*%
%TO.C,J9*%
X99508300Y-124980000D03*
D13*
%TO.N,/ADC1_IN4*%
X96968300Y-124980000D03*
%TO.N,GND*%
X94428300Y-124980000D03*
%TD*%
D16*
%TO.N,+5V*%
%TO.C,J13*%
X81268300Y-125180000D03*
%TD*%
%TO.N,+3.3V*%
%TO.C,J14*%
X95000000Y-92500000D03*
%TD*%
%TO.N,GND*%
%TO.C,J8*%
X76000000Y-104550000D03*
%TD*%
D12*
%TO.N,/GPIO_IN_A3*%
%TO.C,J22*%
X75018300Y-127080000D03*
D13*
%TO.N,/GPIO_IN_A2*%
X75018300Y-129620000D03*
%TO.N,/GPIO_IN_A4*%
X75018300Y-132160000D03*
%TD*%
D17*
%TO.N,GND*%
X137250000Y-111800000D03*
X137450000Y-114750000D03*
X67500000Y-85300000D03*
X137400000Y-109650000D03*
%TO.N,+3.3V*%
X137300000Y-107750000D03*
%TO.N,GND*%
X118496600Y-85805700D03*
X95168300Y-114530000D03*
X84443200Y-85346600D03*
X71318300Y-110430000D03*
X69518300Y-117680000D03*
X101196600Y-84950000D03*
X107768300Y-116330000D03*
X109718300Y-108030000D03*
X124500000Y-121450000D03*
X66468300Y-125780000D03*
X72100000Y-124150000D03*
X92118300Y-101180000D03*
X61768300Y-123430000D03*
X68350000Y-97800000D03*
X64868300Y-103130000D03*
X95418300Y-112405000D03*
X63950000Y-112600000D03*
X103210200Y-120887200D03*
%TO.N,+3.3VA*%
X87645200Y-112391600D03*
X87986300Y-114449700D03*
%TO.N,/NRST*%
X110568300Y-106527400D03*
X114850000Y-115533200D03*
%TO.N,+5V*%
X60668300Y-118130000D03*
X82650000Y-128850000D03*
X92118300Y-128830000D03*
%TO.N,/I2C3_SDA*%
X97900000Y-106575000D03*
%TO.N,/GPIO_OUT_B6*%
X106000000Y-94600000D03*
%TO.N,/ADC1_IN4*%
X94069600Y-111630000D03*
%TO.N,/ADC1_IN1*%
X95048500Y-110131600D03*
%TO.N,/ADC1_IN3*%
X90377200Y-111374700D03*
%TO.N,/SW_DIO*%
X112015900Y-107862400D03*
X112015900Y-102462100D03*
%TO.N,GPIO_OUT_B15*%
X102093500Y-112825600D03*
%TO.N,GPIO_OUT_C14*%
X96239300Y-108581600D03*
X97400000Y-121900000D03*
%TO.N,GPIO_OUT_B14*%
X105845600Y-111945600D03*
%TO.N,/A0_UART4_TX*%
X85993900Y-113026700D03*
%TO.N,/A1_UART4_RX*%
X97416900Y-113869000D03*
X97416900Y-120650000D03*
%TO.N,GPIO_OUT_B12*%
X101758783Y-113951490D03*
%TO.N,GPIO_IN_B1*%
X99350000Y-114300000D03*
X100350000Y-101750000D03*
%TO.N,GPIO_IN_A10*%
X98713200Y-108984700D03*
X96350000Y-96450000D03*
%TO.N,GPIO_IN_B2*%
X106113900Y-122791100D03*
X110294300Y-102744300D03*
%TO.N,+3.3V*%
X126750000Y-96950000D03*
X75518300Y-99330000D03*
X59125000Y-105300000D03*
X91400000Y-105150000D03*
X88218300Y-98730000D03*
X109668300Y-105830000D03*
X109118300Y-99680000D03*
X93050000Y-121000000D03*
X85718300Y-96030000D03*
X86850000Y-110150000D03*
X90918300Y-119830000D03*
X104468300Y-118175000D03*
%TO.N,GPIO_OUT_C13*%
X105750000Y-118050000D03*
X101461600Y-107541900D03*
%TO.N,GPIO_IN_C6*%
X99813500Y-112288000D03*
X99962700Y-106809200D03*
%TO.N,/GPIO_IN_A2*%
X90693300Y-114943200D03*
%TO.N,GPO_5V_EN*%
X101044000Y-111130000D03*
X88950000Y-120550000D03*
%TD*%
%TA.AperFunction,Conductor*%
%TO.N,+5V*%
G36*
X52237657Y-114986418D02*
G01*
X52237670Y-114986420D01*
X71688217Y-115134145D01*
X71752464Y-115152660D01*
X71813442Y-115190346D01*
X74613320Y-116920743D01*
X74617133Y-116923197D01*
X81118300Y-121280000D01*
X82712888Y-121928517D01*
X82731349Y-121937892D01*
X83243932Y-122254682D01*
X83279811Y-122274885D01*
X83285393Y-122277735D01*
X83297789Y-122284065D01*
X83335187Y-122301277D01*
X83335194Y-122301280D01*
X83495832Y-122367425D01*
X84524757Y-122791100D01*
X89840655Y-124979999D01*
X90975830Y-125447424D01*
X91655914Y-125727458D01*
X91710183Y-125770863D01*
X91720956Y-125786206D01*
X91932820Y-126087952D01*
X91935139Y-126091375D01*
X91972327Y-126148284D01*
X94802953Y-130480000D01*
X94808755Y-130488878D01*
X94828892Y-130552832D01*
X94829364Y-130567922D01*
X94829364Y-130567925D01*
X94830523Y-130605000D01*
X94830523Y-130605001D01*
X94925101Y-133631534D01*
X94961723Y-134803465D01*
X94962878Y-134825297D01*
X94963674Y-134835986D01*
X94965773Y-134857767D01*
X94965773Y-134857770D01*
X94993924Y-134963369D01*
X94998054Y-134991664D01*
X95014455Y-135549305D01*
X94996750Y-135616894D01*
X94945314Y-135664181D01*
X94890577Y-135676950D01*
X93768561Y-135677569D01*
X93768252Y-135677569D01*
X53879144Y-135600056D01*
X53823931Y-135586965D01*
X52298789Y-134824394D01*
X52247630Y-134776807D01*
X52235014Y-134747550D01*
X52104771Y-134291698D01*
X52100000Y-134257633D01*
X52100000Y-132199998D01*
X53694390Y-132199998D01*
X53694390Y-132200001D01*
X53714804Y-132485433D01*
X53775628Y-132765037D01*
X53775630Y-132765043D01*
X53775631Y-132765046D01*
X53864769Y-133004034D01*
X53875635Y-133033166D01*
X54012770Y-133284309D01*
X54012775Y-133284317D01*
X54184254Y-133513387D01*
X54184270Y-133513405D01*
X54386594Y-133715729D01*
X54386612Y-133715745D01*
X54615682Y-133887224D01*
X54615690Y-133887229D01*
X54866833Y-134024364D01*
X54866832Y-134024364D01*
X54866836Y-134024365D01*
X54866839Y-134024367D01*
X55134954Y-134124369D01*
X55134960Y-134124370D01*
X55134962Y-134124371D01*
X55414566Y-134185195D01*
X55414568Y-134185195D01*
X55414572Y-134185196D01*
X55668220Y-134203337D01*
X55699999Y-134205610D01*
X55700000Y-134205610D01*
X55700001Y-134205610D01*
X55728595Y-134203564D01*
X55985428Y-134185196D01*
X56265046Y-134124369D01*
X56533161Y-134024367D01*
X56784315Y-133887226D01*
X57013395Y-133715739D01*
X57215739Y-133513395D01*
X57387226Y-133284315D01*
X57524367Y-133033161D01*
X57624369Y-132765046D01*
X57632462Y-132727844D01*
X57685195Y-132485433D01*
X57685195Y-132485432D01*
X57685196Y-132485428D01*
X57705610Y-132200000D01*
X57685196Y-131914572D01*
X57679132Y-131886698D01*
X57624371Y-131634962D01*
X57624370Y-131634960D01*
X57624369Y-131634954D01*
X57524367Y-131366839D01*
X57504251Y-131330000D01*
X57387229Y-131115690D01*
X57387224Y-131115682D01*
X57215745Y-130886612D01*
X57215729Y-130886594D01*
X57013405Y-130684270D01*
X57013387Y-130684254D01*
X56784317Y-130512775D01*
X56784309Y-130512770D01*
X56533166Y-130375635D01*
X56533167Y-130375635D01*
X56324574Y-130297834D01*
X56265046Y-130275631D01*
X56265043Y-130275630D01*
X56265037Y-130275628D01*
X55985433Y-130214804D01*
X55700001Y-130194390D01*
X55699999Y-130194390D01*
X55414566Y-130214804D01*
X55134962Y-130275628D01*
X54866833Y-130375635D01*
X54615690Y-130512770D01*
X54615682Y-130512775D01*
X54386612Y-130684254D01*
X54386594Y-130684270D01*
X54184270Y-130886594D01*
X54184254Y-130886612D01*
X54012775Y-131115682D01*
X54012770Y-131115690D01*
X53875635Y-131366833D01*
X53775628Y-131634962D01*
X53714804Y-131914566D01*
X53694390Y-132199998D01*
X52100000Y-132199998D01*
X52100000Y-129619999D01*
X73662641Y-129619999D01*
X73662641Y-129620000D01*
X73683236Y-129855403D01*
X73683238Y-129855413D01*
X73744394Y-130083655D01*
X73744396Y-130083659D01*
X73744397Y-130083663D01*
X73805549Y-130214804D01*
X73844265Y-130297830D01*
X73844267Y-130297834D01*
X73952581Y-130452521D01*
X73978038Y-130488878D01*
X73979801Y-130491395D01*
X73979806Y-130491402D01*
X74146897Y-130658493D01*
X74146903Y-130658498D01*
X74332458Y-130788425D01*
X74376083Y-130843002D01*
X74383277Y-130912500D01*
X74351754Y-130974855D01*
X74332458Y-130991575D01*
X74146897Y-131121505D01*
X73979805Y-131288597D01*
X73844265Y-131482169D01*
X73844264Y-131482171D01*
X73744398Y-131696335D01*
X73744394Y-131696344D01*
X73683238Y-131924586D01*
X73683236Y-131924596D01*
X73662641Y-132159999D01*
X73662641Y-132160000D01*
X73683236Y-132395403D01*
X73683238Y-132395413D01*
X73744394Y-132623655D01*
X73744396Y-132623659D01*
X73744397Y-132623663D01*
X73785914Y-132712696D01*
X73844265Y-132837830D01*
X73844267Y-132837834D01*
X73952581Y-132992521D01*
X73979805Y-133031401D01*
X74146899Y-133198495D01*
X74243684Y-133266265D01*
X74340465Y-133334032D01*
X74340467Y-133334033D01*
X74340470Y-133334035D01*
X74554637Y-133433903D01*
X74782892Y-133495063D01*
X74971218Y-133511539D01*
X75018299Y-133515659D01*
X75018300Y-133515659D01*
X75018301Y-133515659D01*
X75057534Y-133512226D01*
X75253708Y-133495063D01*
X75481963Y-133433903D01*
X75696130Y-133334035D01*
X75889701Y-133198495D01*
X76056795Y-133031401D01*
X76192335Y-132837830D01*
X76292203Y-132623663D01*
X76353363Y-132395408D01*
X76373959Y-132160000D01*
X76353363Y-131924592D01*
X76328017Y-131829999D01*
X82192641Y-131829999D01*
X82192641Y-131830000D01*
X82213236Y-132065403D01*
X82213238Y-132065413D01*
X82274394Y-132293655D01*
X82274396Y-132293659D01*
X82274397Y-132293663D01*
X82321842Y-132395408D01*
X82374265Y-132507830D01*
X82374267Y-132507834D01*
X82482581Y-132662521D01*
X82509805Y-132701401D01*
X82676899Y-132868495D01*
X82736633Y-132910321D01*
X82870465Y-133004032D01*
X82870467Y-133004033D01*
X82870470Y-133004035D01*
X83084637Y-133103903D01*
X83312892Y-133165063D01*
X83483619Y-133180000D01*
X83548299Y-133185659D01*
X83548300Y-133185659D01*
X83548301Y-133185659D01*
X83612981Y-133180000D01*
X83783708Y-133165063D01*
X84011963Y-133103903D01*
X84226130Y-133004035D01*
X84419701Y-132868495D01*
X84586795Y-132701401D01*
X84701191Y-132538026D01*
X84716725Y-132515842D01*
X84771302Y-132472217D01*
X84840800Y-132465023D01*
X84903155Y-132496546D01*
X84919875Y-132515842D01*
X85049800Y-132701395D01*
X85049805Y-132701401D01*
X85216899Y-132868495D01*
X85276633Y-132910321D01*
X85410465Y-133004032D01*
X85410467Y-133004033D01*
X85410470Y-133004035D01*
X85624637Y-133103903D01*
X85852892Y-133165063D01*
X86023619Y-133180000D01*
X86088299Y-133185659D01*
X86088300Y-133185659D01*
X86088301Y-133185659D01*
X86152981Y-133180000D01*
X86323708Y-133165063D01*
X86551963Y-133103903D01*
X86766130Y-133004035D01*
X86959701Y-132868495D01*
X87126795Y-132701401D01*
X87241191Y-132538026D01*
X87256725Y-132515842D01*
X87311302Y-132472217D01*
X87380800Y-132465023D01*
X87443155Y-132496546D01*
X87459875Y-132515842D01*
X87589800Y-132701395D01*
X87589805Y-132701401D01*
X87756899Y-132868495D01*
X87816633Y-132910321D01*
X87950465Y-133004032D01*
X87950467Y-133004033D01*
X87950470Y-133004035D01*
X88164637Y-133103903D01*
X88392892Y-133165063D01*
X88563619Y-133180000D01*
X88628299Y-133185659D01*
X88628300Y-133185659D01*
X88628301Y-133185659D01*
X88692981Y-133180000D01*
X88863708Y-133165063D01*
X89091963Y-133103903D01*
X89306130Y-133004035D01*
X89499701Y-132868495D01*
X89622017Y-132746178D01*
X89683336Y-132712696D01*
X89753028Y-132717680D01*
X89808962Y-132759551D01*
X89825877Y-132790528D01*
X89874946Y-132922088D01*
X89874949Y-132922093D01*
X89961109Y-133037187D01*
X89961112Y-133037190D01*
X90076206Y-133123350D01*
X90076213Y-133123354D01*
X90210920Y-133173596D01*
X90210927Y-133173598D01*
X90270455Y-133179999D01*
X90270472Y-133180000D01*
X90918300Y-133180000D01*
X90918300Y-132263012D01*
X90975307Y-132295925D01*
X91102474Y-132330000D01*
X91234126Y-132330000D01*
X91361293Y-132295925D01*
X91418300Y-132263012D01*
X91418300Y-133180000D01*
X92066128Y-133180000D01*
X92066144Y-133179999D01*
X92125672Y-133173598D01*
X92125679Y-133173596D01*
X92260386Y-133123354D01*
X92260393Y-133123350D01*
X92375487Y-133037190D01*
X92375490Y-133037187D01*
X92461650Y-132922093D01*
X92461654Y-132922086D01*
X92511896Y-132787379D01*
X92511898Y-132787372D01*
X92518299Y-132727844D01*
X92518300Y-132727827D01*
X92518300Y-132080000D01*
X91601312Y-132080000D01*
X91634225Y-132022993D01*
X91668300Y-131895826D01*
X91668300Y-131764174D01*
X91634225Y-131637007D01*
X91601312Y-131580000D01*
X92518300Y-131580000D01*
X92518300Y-130932172D01*
X92518299Y-130932155D01*
X92511898Y-130872627D01*
X92511896Y-130872620D01*
X92461654Y-130737913D01*
X92461650Y-130737906D01*
X92375490Y-130622812D01*
X92375487Y-130622809D01*
X92260393Y-130536649D01*
X92260386Y-130536645D01*
X92125679Y-130486403D01*
X92125672Y-130486401D01*
X92066144Y-130480000D01*
X91418300Y-130480000D01*
X91418300Y-131396988D01*
X91361293Y-131364075D01*
X91234126Y-131330000D01*
X91102474Y-131330000D01*
X90975307Y-131364075D01*
X90918300Y-131396988D01*
X90918300Y-130480000D01*
X90270455Y-130480000D01*
X90210927Y-130486401D01*
X90210920Y-130486403D01*
X90076213Y-130536645D01*
X90076206Y-130536649D01*
X89961112Y-130622809D01*
X89961109Y-130622812D01*
X89874949Y-130737906D01*
X89874945Y-130737913D01*
X89825878Y-130869470D01*
X89784007Y-130925404D01*
X89718542Y-130949821D01*
X89650269Y-130934969D01*
X89622015Y-130913819D01*
X89575696Y-130867500D01*
X89499701Y-130791505D01*
X89499697Y-130791502D01*
X89499696Y-130791501D01*
X89306134Y-130655967D01*
X89306130Y-130655965D01*
X89221360Y-130616436D01*
X89091963Y-130556097D01*
X89091959Y-130556096D01*
X89091955Y-130556094D01*
X88863713Y-130494938D01*
X88863703Y-130494936D01*
X88628301Y-130474341D01*
X88628299Y-130474341D01*
X88392896Y-130494936D01*
X88392886Y-130494938D01*
X88164644Y-130556094D01*
X88164635Y-130556098D01*
X87950471Y-130655964D01*
X87950469Y-130655965D01*
X87756897Y-130791505D01*
X87589805Y-130958597D01*
X87459875Y-131144158D01*
X87405298Y-131187783D01*
X87335800Y-131194977D01*
X87273445Y-131163454D01*
X87256725Y-131144158D01*
X87126794Y-130958597D01*
X86959702Y-130791506D01*
X86959695Y-130791501D01*
X86766134Y-130655967D01*
X86766130Y-130655965D01*
X86681360Y-130616436D01*
X86551963Y-130556097D01*
X86551959Y-130556096D01*
X86551955Y-130556094D01*
X86323713Y-130494938D01*
X86323703Y-130494936D01*
X86088301Y-130474341D01*
X86088299Y-130474341D01*
X85852896Y-130494936D01*
X85852886Y-130494938D01*
X85624644Y-130556094D01*
X85624635Y-130556098D01*
X85410471Y-130655964D01*
X85410469Y-130655965D01*
X85216897Y-130791505D01*
X85049805Y-130958597D01*
X84919875Y-131144158D01*
X84865298Y-131187783D01*
X84795800Y-131194977D01*
X84733445Y-131163454D01*
X84716725Y-131144158D01*
X84586794Y-130958597D01*
X84419702Y-130791506D01*
X84419695Y-130791501D01*
X84226134Y-130655967D01*
X84226130Y-130655965D01*
X84141360Y-130616436D01*
X84011963Y-130556097D01*
X84011959Y-130556096D01*
X84011955Y-130556094D01*
X83783713Y-130494938D01*
X83783703Y-130494936D01*
X83548301Y-130474341D01*
X83548299Y-130474341D01*
X83312896Y-130494936D01*
X83312886Y-130494938D01*
X83084644Y-130556094D01*
X83084635Y-130556098D01*
X82870471Y-130655964D01*
X82870469Y-130655965D01*
X82676897Y-130791505D01*
X82509805Y-130958597D01*
X82374265Y-131152169D01*
X82374264Y-131152171D01*
X82274398Y-131366335D01*
X82274394Y-131366344D01*
X82213238Y-131594586D01*
X82213236Y-131594596D01*
X82192641Y-131829999D01*
X76328017Y-131829999D01*
X76292203Y-131696337D01*
X76192335Y-131482171D01*
X76188967Y-131477360D01*
X76056794Y-131288597D01*
X75889702Y-131121506D01*
X75889696Y-131121501D01*
X75704142Y-130991575D01*
X75660517Y-130936998D01*
X75653323Y-130867500D01*
X75684846Y-130805145D01*
X75704142Y-130788425D01*
X75776290Y-130737906D01*
X75889701Y-130658495D01*
X76056795Y-130491401D01*
X76192335Y-130297830D01*
X76292203Y-130083663D01*
X76353363Y-129855408D01*
X76373959Y-129620000D01*
X76353363Y-129384592D01*
X76292203Y-129156337D01*
X76192335Y-128942171D01*
X76056795Y-128748599D01*
X75934867Y-128626671D01*
X75901384Y-128565351D01*
X75906368Y-128495659D01*
X75948239Y-128439725D01*
X75979215Y-128422810D01*
X76110631Y-128373796D01*
X76225846Y-128287546D01*
X76312096Y-128172331D01*
X76362391Y-128037483D01*
X76368800Y-127977873D01*
X76368799Y-126182128D01*
X76362391Y-126122517D01*
X76335017Y-126049124D01*
X76312097Y-125987671D01*
X76312093Y-125987664D01*
X76225847Y-125872455D01*
X76225844Y-125872452D01*
X76110635Y-125786206D01*
X76110628Y-125786202D01*
X76093962Y-125779986D01*
X79968301Y-125779986D01*
X79978794Y-125882697D01*
X80033941Y-126049119D01*
X80033943Y-126049124D01*
X80125984Y-126198345D01*
X80249954Y-126322315D01*
X80399175Y-126414356D01*
X80399180Y-126414358D01*
X80565602Y-126469505D01*
X80565609Y-126469506D01*
X80668319Y-126479999D01*
X81018299Y-126479999D01*
X81518300Y-126479999D01*
X81868272Y-126479999D01*
X81868286Y-126479998D01*
X81970997Y-126469505D01*
X82137419Y-126414358D01*
X82137424Y-126414356D01*
X82286645Y-126322315D01*
X82410615Y-126198345D01*
X82502656Y-126049124D01*
X82502658Y-126049119D01*
X82557805Y-125882697D01*
X82557806Y-125882690D01*
X82568299Y-125779986D01*
X82568300Y-125779973D01*
X82568300Y-125430000D01*
X81518300Y-125430000D01*
X81518300Y-126479999D01*
X81018299Y-126479999D01*
X81018300Y-126479998D01*
X81018300Y-125430000D01*
X79968301Y-125430000D01*
X79968301Y-125779986D01*
X76093962Y-125779986D01*
X75975782Y-125735908D01*
X75975783Y-125735908D01*
X75916183Y-125729501D01*
X75916181Y-125729500D01*
X75916173Y-125729500D01*
X75916164Y-125729500D01*
X74120429Y-125729500D01*
X74120423Y-125729501D01*
X74060816Y-125735908D01*
X73925971Y-125786202D01*
X73925964Y-125786206D01*
X73810755Y-125872452D01*
X73810752Y-125872455D01*
X73724506Y-125987664D01*
X73724502Y-125987671D01*
X73674208Y-126122517D01*
X73667801Y-126182116D01*
X73667801Y-126182123D01*
X73667800Y-126182135D01*
X73667800Y-127977870D01*
X73667801Y-127977876D01*
X73674208Y-128037483D01*
X73724502Y-128172328D01*
X73724506Y-128172335D01*
X73810752Y-128287544D01*
X73810755Y-128287547D01*
X73925964Y-128373793D01*
X73925971Y-128373797D01*
X74057381Y-128422810D01*
X74113315Y-128464681D01*
X74137732Y-128530145D01*
X74122880Y-128598418D01*
X74101730Y-128626673D01*
X73979803Y-128748600D01*
X73844265Y-128942169D01*
X73844264Y-128942171D01*
X73744398Y-129156335D01*
X73744394Y-129156344D01*
X73683238Y-129384586D01*
X73683236Y-129384596D01*
X73662641Y-129619999D01*
X52100000Y-129619999D01*
X52100000Y-125780000D01*
X65562840Y-125780000D01*
X65582626Y-125968256D01*
X65582627Y-125968259D01*
X65641118Y-126148277D01*
X65641121Y-126148284D01*
X65735767Y-126312216D01*
X65862429Y-126452888D01*
X66015565Y-126564148D01*
X66015570Y-126564151D01*
X66188492Y-126641142D01*
X66188497Y-126641144D01*
X66373654Y-126680500D01*
X66373655Y-126680500D01*
X66562944Y-126680500D01*
X66562946Y-126680500D01*
X66748103Y-126641144D01*
X66921030Y-126564151D01*
X67074171Y-126452888D01*
X67200833Y-126312216D01*
X67295479Y-126148284D01*
X67353974Y-125968256D01*
X67373760Y-125780000D01*
X67353974Y-125591744D01*
X67295479Y-125411716D01*
X67200833Y-125247784D01*
X67104237Y-125140504D01*
X80968300Y-125140504D01*
X80968300Y-125219496D01*
X80988744Y-125295796D01*
X81028240Y-125364205D01*
X81084095Y-125420060D01*
X81152504Y-125459556D01*
X81228804Y-125480000D01*
X81307796Y-125480000D01*
X81384096Y-125459556D01*
X81452505Y-125420060D01*
X81508360Y-125364205D01*
X81547856Y-125295796D01*
X81568300Y-125219496D01*
X81568300Y-125140504D01*
X81547856Y-125064204D01*
X81508360Y-124995795D01*
X81452505Y-124939940D01*
X81435288Y-124930000D01*
X81518300Y-124930000D01*
X82568299Y-124930000D01*
X82568299Y-124580028D01*
X82568298Y-124580013D01*
X82557805Y-124477302D01*
X82502658Y-124310880D01*
X82502656Y-124310875D01*
X82410615Y-124161654D01*
X82286645Y-124037684D01*
X82137424Y-123945643D01*
X82137419Y-123945641D01*
X81970997Y-123890494D01*
X81970990Y-123890493D01*
X81868286Y-123880000D01*
X81518300Y-123880000D01*
X81518300Y-124930000D01*
X81435288Y-124930000D01*
X81384096Y-124900444D01*
X81307796Y-124880000D01*
X81228804Y-124880000D01*
X81152504Y-124900444D01*
X81084095Y-124939940D01*
X81028240Y-124995795D01*
X80988744Y-125064204D01*
X80968300Y-125140504D01*
X67104237Y-125140504D01*
X67074171Y-125107112D01*
X67074170Y-125107111D01*
X66921034Y-124995851D01*
X66921029Y-124995848D01*
X66748107Y-124918857D01*
X66748102Y-124918855D01*
X66602301Y-124887865D01*
X66562946Y-124879500D01*
X66373654Y-124879500D01*
X66341197Y-124886398D01*
X66188497Y-124918855D01*
X66188492Y-124918857D01*
X66015570Y-124995848D01*
X66015565Y-124995851D01*
X65862429Y-125107111D01*
X65735766Y-125247785D01*
X65641121Y-125411715D01*
X65641118Y-125411722D01*
X65599723Y-125539125D01*
X65582626Y-125591744D01*
X65562840Y-125780000D01*
X52100000Y-125780000D01*
X52100000Y-123430000D01*
X60862840Y-123430000D01*
X60882626Y-123618256D01*
X60882627Y-123618259D01*
X60941118Y-123798277D01*
X60941121Y-123798284D01*
X61035767Y-123962216D01*
X61103719Y-124037684D01*
X61162429Y-124102888D01*
X61315565Y-124214148D01*
X61315570Y-124214151D01*
X61488492Y-124291142D01*
X61488497Y-124291144D01*
X61673654Y-124330500D01*
X61673655Y-124330500D01*
X61862944Y-124330500D01*
X61862946Y-124330500D01*
X62048103Y-124291144D01*
X62221030Y-124214151D01*
X62309327Y-124150000D01*
X71194540Y-124150000D01*
X71214326Y-124338256D01*
X71214327Y-124338259D01*
X71272818Y-124518277D01*
X71272821Y-124518284D01*
X71367467Y-124682216D01*
X71478534Y-124805568D01*
X71494129Y-124822888D01*
X71647265Y-124934148D01*
X71647270Y-124934151D01*
X71820192Y-125011142D01*
X71820197Y-125011144D01*
X72005354Y-125050500D01*
X72005355Y-125050500D01*
X72194644Y-125050500D01*
X72194646Y-125050500D01*
X72379803Y-125011144D01*
X72552730Y-124934151D01*
X72705871Y-124822888D01*
X72832533Y-124682216D01*
X72891540Y-124580013D01*
X79968300Y-124580013D01*
X79968300Y-124930000D01*
X81018300Y-124930000D01*
X81018300Y-123880000D01*
X80668328Y-123880000D01*
X80668312Y-123880001D01*
X80565602Y-123890494D01*
X80399180Y-123945641D01*
X80399175Y-123945643D01*
X80249954Y-124037684D01*
X80125984Y-124161654D01*
X80033943Y-124310875D01*
X80033941Y-124310880D01*
X79978794Y-124477302D01*
X79978793Y-124477309D01*
X79968300Y-124580013D01*
X72891540Y-124580013D01*
X72927179Y-124518284D01*
X72985674Y-124338256D01*
X73005460Y-124150000D01*
X72985674Y-123961744D01*
X72927179Y-123781716D01*
X72832533Y-123617784D01*
X72705871Y-123477112D01*
X72641027Y-123430000D01*
X72552734Y-123365851D01*
X72552729Y-123365848D01*
X72379807Y-123288857D01*
X72379802Y-123288855D01*
X72234001Y-123257865D01*
X72194646Y-123249500D01*
X72005354Y-123249500D01*
X71972897Y-123256398D01*
X71820197Y-123288855D01*
X71820192Y-123288857D01*
X71647270Y-123365848D01*
X71647265Y-123365851D01*
X71494129Y-123477111D01*
X71367466Y-123617785D01*
X71272821Y-123781715D01*
X71272818Y-123781722D01*
X71214327Y-123961740D01*
X71214326Y-123961744D01*
X71194540Y-124150000D01*
X62309327Y-124150000D01*
X62374171Y-124102888D01*
X62500833Y-123962216D01*
X62595479Y-123798284D01*
X62653974Y-123618256D01*
X62673760Y-123430000D01*
X62653974Y-123241744D01*
X62595479Y-123061716D01*
X62500833Y-122897784D01*
X62374171Y-122757112D01*
X62351984Y-122740992D01*
X62221034Y-122645851D01*
X62221029Y-122645848D01*
X62048107Y-122568857D01*
X62048102Y-122568855D01*
X61902301Y-122537865D01*
X61862946Y-122529500D01*
X61673654Y-122529500D01*
X61641197Y-122536398D01*
X61488497Y-122568855D01*
X61488492Y-122568857D01*
X61315570Y-122645848D01*
X61315565Y-122645851D01*
X61162429Y-122757111D01*
X61035766Y-122897785D01*
X60941121Y-123061715D01*
X60941118Y-123061722D01*
X60882627Y-123241740D01*
X60882626Y-123241744D01*
X60862840Y-123430000D01*
X52100000Y-123430000D01*
X52100000Y-117680000D01*
X68612840Y-117680000D01*
X68632626Y-117868256D01*
X68632627Y-117868259D01*
X68691118Y-118048277D01*
X68691121Y-118048284D01*
X68785767Y-118212216D01*
X68819989Y-118250223D01*
X68912429Y-118352888D01*
X69065565Y-118464148D01*
X69065570Y-118464151D01*
X69238492Y-118541142D01*
X69238497Y-118541144D01*
X69423654Y-118580500D01*
X69423655Y-118580500D01*
X69612944Y-118580500D01*
X69612946Y-118580500D01*
X69798103Y-118541144D01*
X69971030Y-118464151D01*
X70124171Y-118352888D01*
X70250833Y-118212216D01*
X70345479Y-118048284D01*
X70403974Y-117868256D01*
X70423760Y-117680000D01*
X70403974Y-117491744D01*
X70345479Y-117311716D01*
X70250833Y-117147784D01*
X70124171Y-117007112D01*
X70124170Y-117007111D01*
X69971034Y-116895851D01*
X69971029Y-116895848D01*
X69798107Y-116818857D01*
X69798102Y-116818855D01*
X69634667Y-116784117D01*
X69612946Y-116779500D01*
X69423654Y-116779500D01*
X69401933Y-116784117D01*
X69238497Y-116818855D01*
X69238492Y-116818857D01*
X69065570Y-116895848D01*
X69065565Y-116895851D01*
X68912429Y-117007111D01*
X68785766Y-117147785D01*
X68691121Y-117311715D01*
X68691118Y-117311722D01*
X68632627Y-117491740D01*
X68632626Y-117491744D01*
X68612840Y-117680000D01*
X52100000Y-117680000D01*
X52100000Y-115109725D01*
X52119685Y-115042686D01*
X52172489Y-114996931D01*
X52233800Y-114986113D01*
X52237657Y-114986418D01*
G37*
%TD.AperFunction*%
%TD*%
%TA.AperFunction,Conductor*%
%TO.N,+3.3V*%
G36*
X134300000Y-77200000D02*
G01*
X137656503Y-77200000D01*
X137723542Y-77219685D01*
X137733965Y-77227172D01*
X138654205Y-77963364D01*
X138694257Y-78020615D01*
X138700733Y-78058642D01*
X138799971Y-85997712D01*
X138799945Y-86002258D01*
X138718299Y-89380004D01*
X138768296Y-132077370D01*
X138768191Y-132082622D01*
X138652456Y-134890392D01*
X138630027Y-134956564D01*
X138601890Y-134985279D01*
X137929690Y-135478227D01*
X137863989Y-135501998D01*
X137863239Y-135502042D01*
X137000003Y-135549999D01*
X135856538Y-135653827D01*
X135845393Y-135654335D01*
X96223768Y-135676214D01*
X96156718Y-135656566D01*
X96127981Y-135631042D01*
X95567123Y-134950000D01*
X95495197Y-134862661D01*
X95467775Y-134798398D01*
X95466978Y-134787707D01*
X95430354Y-133615745D01*
X95334617Y-130552135D01*
X96659500Y-130552135D01*
X96659500Y-132347870D01*
X96659501Y-132347876D01*
X96665908Y-132407483D01*
X96716202Y-132542328D01*
X96716206Y-132542335D01*
X96802452Y-132657544D01*
X96802455Y-132657547D01*
X96917664Y-132743793D01*
X96917671Y-132743797D01*
X97052517Y-132794091D01*
X97052516Y-132794091D01*
X97059444Y-132794835D01*
X97112127Y-132800500D01*
X98907872Y-132800499D01*
X98967483Y-132794091D01*
X99102331Y-132743796D01*
X99217546Y-132657546D01*
X99303796Y-132542331D01*
X99352810Y-132410916D01*
X99394681Y-132354984D01*
X99460145Y-132330566D01*
X99528418Y-132345417D01*
X99556673Y-132366569D01*
X99678599Y-132488495D01*
X99775384Y-132556265D01*
X99872165Y-132624032D01*
X99872167Y-132624033D01*
X99872170Y-132624035D01*
X100086337Y-132723903D01*
X100086343Y-132723904D01*
X100086344Y-132723905D01*
X100101153Y-132727873D01*
X100314592Y-132785063D01*
X100491034Y-132800500D01*
X100549999Y-132805659D01*
X100550000Y-132805659D01*
X100550001Y-132805659D01*
X100608966Y-132800500D01*
X100785408Y-132785063D01*
X101013663Y-132723903D01*
X101227830Y-132624035D01*
X101421401Y-132488495D01*
X101588495Y-132321401D01*
X101718425Y-132135842D01*
X101773002Y-132092217D01*
X101842500Y-132085023D01*
X101904855Y-132116546D01*
X101921575Y-132135842D01*
X102051500Y-132321395D01*
X102051505Y-132321401D01*
X102218599Y-132488495D01*
X102315384Y-132556265D01*
X102412165Y-132624032D01*
X102412167Y-132624033D01*
X102412170Y-132624035D01*
X102626337Y-132723903D01*
X102626343Y-132723904D01*
X102626344Y-132723905D01*
X102641153Y-132727873D01*
X102854592Y-132785063D01*
X103031034Y-132800500D01*
X103089999Y-132805659D01*
X103090000Y-132805659D01*
X103090001Y-132805659D01*
X103148966Y-132800500D01*
X103325408Y-132785063D01*
X103553663Y-132723903D01*
X103767830Y-132624035D01*
X103961401Y-132488495D01*
X104128495Y-132321401D01*
X104258425Y-132135842D01*
X104313002Y-132092217D01*
X104382500Y-132085023D01*
X104444855Y-132116546D01*
X104461575Y-132135842D01*
X104591500Y-132321395D01*
X104591505Y-132321401D01*
X104758599Y-132488495D01*
X104855384Y-132556265D01*
X104952165Y-132624032D01*
X104952167Y-132624033D01*
X104952170Y-132624035D01*
X105166337Y-132723903D01*
X105166343Y-132723904D01*
X105166344Y-132723905D01*
X105181153Y-132727873D01*
X105394592Y-132785063D01*
X105571034Y-132800500D01*
X105629999Y-132805659D01*
X105630000Y-132805659D01*
X105630001Y-132805659D01*
X105688966Y-132800500D01*
X105865408Y-132785063D01*
X106093663Y-132723903D01*
X106307830Y-132624035D01*
X106501401Y-132488495D01*
X106668495Y-132321401D01*
X106804035Y-132127830D01*
X106817013Y-132099998D01*
X133294390Y-132099998D01*
X133294390Y-132100001D01*
X133314804Y-132385433D01*
X133375628Y-132665037D01*
X133375630Y-132665043D01*
X133375631Y-132665046D01*
X133426153Y-132800500D01*
X133475635Y-132933166D01*
X133612770Y-133184309D01*
X133612775Y-133184317D01*
X133784254Y-133413387D01*
X133784270Y-133413405D01*
X133986594Y-133615729D01*
X133986612Y-133615745D01*
X134215682Y-133787224D01*
X134215690Y-133787229D01*
X134466833Y-133924364D01*
X134466832Y-133924364D01*
X134466836Y-133924365D01*
X134466839Y-133924367D01*
X134734954Y-134024369D01*
X134734960Y-134024370D01*
X134734962Y-134024371D01*
X135014566Y-134085195D01*
X135014568Y-134085195D01*
X135014572Y-134085196D01*
X135268220Y-134103337D01*
X135299999Y-134105610D01*
X135300000Y-134105610D01*
X135300001Y-134105610D01*
X135328595Y-134103564D01*
X135585428Y-134085196D01*
X135865046Y-134024369D01*
X136133161Y-133924367D01*
X136384315Y-133787226D01*
X136613395Y-133615739D01*
X136815739Y-133413395D01*
X136987226Y-133184315D01*
X137124367Y-132933161D01*
X137224369Y-132665046D01*
X137285196Y-132385428D01*
X137305610Y-132100000D01*
X137303991Y-132077370D01*
X137301519Y-132042808D01*
X137285196Y-131814572D01*
X137257099Y-131685413D01*
X137224371Y-131534962D01*
X137224370Y-131534960D01*
X137224369Y-131534954D01*
X137124367Y-131266839D01*
X137079862Y-131185335D01*
X136987229Y-131015690D01*
X136987224Y-131015682D01*
X136815745Y-130786612D01*
X136815729Y-130786594D01*
X136613405Y-130584270D01*
X136613387Y-130584254D01*
X136384317Y-130412775D01*
X136384309Y-130412770D01*
X136133166Y-130275635D01*
X136133167Y-130275635D01*
X136025915Y-130235632D01*
X135865046Y-130175631D01*
X135865043Y-130175630D01*
X135865037Y-130175628D01*
X135585433Y-130114804D01*
X135300001Y-130094390D01*
X135299999Y-130094390D01*
X135014566Y-130114804D01*
X134734962Y-130175628D01*
X134466833Y-130275635D01*
X134215690Y-130412770D01*
X134215682Y-130412775D01*
X133986612Y-130584254D01*
X133986594Y-130584270D01*
X133784270Y-130786594D01*
X133784254Y-130786612D01*
X133612775Y-131015682D01*
X133612770Y-131015690D01*
X133475635Y-131266833D01*
X133375628Y-131534962D01*
X133314804Y-131814566D01*
X133294390Y-132099998D01*
X106817013Y-132099998D01*
X106903903Y-131913663D01*
X106965063Y-131685408D01*
X106985659Y-131450000D01*
X106965063Y-131214592D01*
X106903903Y-130986337D01*
X106804035Y-130772171D01*
X106798425Y-130764158D01*
X106668494Y-130578597D01*
X106501402Y-130411506D01*
X106501395Y-130411501D01*
X106307834Y-130275967D01*
X106307830Y-130275965D01*
X106307114Y-130275631D01*
X106093663Y-130176097D01*
X106093659Y-130176096D01*
X106093655Y-130176094D01*
X105865413Y-130114938D01*
X105865403Y-130114936D01*
X105630001Y-130094341D01*
X105629999Y-130094341D01*
X105394596Y-130114936D01*
X105394586Y-130114938D01*
X105166344Y-130176094D01*
X105166335Y-130176098D01*
X104952171Y-130275964D01*
X104952169Y-130275965D01*
X104758597Y-130411505D01*
X104591505Y-130578597D01*
X104461575Y-130764158D01*
X104406998Y-130807783D01*
X104337500Y-130814977D01*
X104275145Y-130783454D01*
X104258425Y-130764158D01*
X104128494Y-130578597D01*
X103961402Y-130411506D01*
X103961395Y-130411501D01*
X103767834Y-130275967D01*
X103767830Y-130275965D01*
X103767114Y-130275631D01*
X103553663Y-130176097D01*
X103553659Y-130176096D01*
X103553655Y-130176094D01*
X103325413Y-130114938D01*
X103325403Y-130114936D01*
X103090001Y-130094341D01*
X103089999Y-130094341D01*
X102854596Y-130114936D01*
X102854586Y-130114938D01*
X102626344Y-130176094D01*
X102626335Y-130176098D01*
X102412171Y-130275964D01*
X102412169Y-130275965D01*
X102218597Y-130411505D01*
X102051505Y-130578597D01*
X101921575Y-130764158D01*
X101866998Y-130807783D01*
X101797500Y-130814977D01*
X101735145Y-130783454D01*
X101718425Y-130764158D01*
X101588494Y-130578597D01*
X101421402Y-130411506D01*
X101421395Y-130411501D01*
X101227834Y-130275967D01*
X101227830Y-130275965D01*
X101227114Y-130275631D01*
X101013663Y-130176097D01*
X101013659Y-130176096D01*
X101013655Y-130176094D01*
X100785413Y-130114938D01*
X100785403Y-130114936D01*
X100550001Y-130094341D01*
X100549999Y-130094341D01*
X100314596Y-130114936D01*
X100314586Y-130114938D01*
X100086344Y-130176094D01*
X100086335Y-130176098D01*
X99872171Y-130275964D01*
X99872169Y-130275965D01*
X99678600Y-130411503D01*
X99556673Y-130533430D01*
X99495350Y-130566914D01*
X99425658Y-130561930D01*
X99369725Y-130520058D01*
X99352810Y-130489081D01*
X99303797Y-130357671D01*
X99303793Y-130357664D01*
X99217547Y-130242455D01*
X99217544Y-130242452D01*
X99102335Y-130156206D01*
X99102328Y-130156202D01*
X98967482Y-130105908D01*
X98967483Y-130105908D01*
X98907883Y-130099501D01*
X98907881Y-130099500D01*
X98907873Y-130099500D01*
X98907864Y-130099500D01*
X97112129Y-130099500D01*
X97112123Y-130099501D01*
X97052516Y-130105908D01*
X96917671Y-130156202D01*
X96917664Y-130156206D01*
X96802455Y-130242452D01*
X96802452Y-130242455D01*
X96716206Y-130357664D01*
X96716202Y-130357671D01*
X96665908Y-130492517D01*
X96659501Y-130552116D01*
X96659500Y-130552135D01*
X95334617Y-130552135D01*
X95318300Y-130030000D01*
X95318300Y-130029999D01*
X92018300Y-125330000D01*
X92018299Y-125329999D01*
X91168299Y-124979999D01*
X93072641Y-124979999D01*
X93072641Y-124980000D01*
X93093236Y-125215403D01*
X93093238Y-125215413D01*
X93154394Y-125443655D01*
X93154396Y-125443659D01*
X93154397Y-125443663D01*
X93158300Y-125452032D01*
X93254265Y-125657830D01*
X93254267Y-125657834D01*
X93362581Y-125812521D01*
X93389805Y-125851401D01*
X93556899Y-126018495D01*
X93653684Y-126086265D01*
X93750465Y-126154032D01*
X93750467Y-126154033D01*
X93750470Y-126154035D01*
X93964637Y-126253903D01*
X94192892Y-126315063D01*
X94369334Y-126330500D01*
X94428299Y-126335659D01*
X94428300Y-126335659D01*
X94428301Y-126335659D01*
X94487266Y-126330500D01*
X94663708Y-126315063D01*
X94891963Y-126253903D01*
X95106130Y-126154035D01*
X95299701Y-126018495D01*
X95466795Y-125851401D01*
X95596725Y-125665842D01*
X95651302Y-125622217D01*
X95720800Y-125615023D01*
X95783155Y-125646546D01*
X95799875Y-125665842D01*
X95929800Y-125851395D01*
X95929805Y-125851401D01*
X96096899Y-126018495D01*
X96193684Y-126086265D01*
X96290465Y-126154032D01*
X96290467Y-126154033D01*
X96290470Y-126154035D01*
X96504637Y-126253903D01*
X96732892Y-126315063D01*
X96909334Y-126330500D01*
X96968299Y-126335659D01*
X96968300Y-126335659D01*
X96968301Y-126335659D01*
X97027266Y-126330500D01*
X97203708Y-126315063D01*
X97431963Y-126253903D01*
X97646130Y-126154035D01*
X97839701Y-126018495D01*
X97961629Y-125896566D01*
X98022948Y-125863084D01*
X98092640Y-125868068D01*
X98148574Y-125909939D01*
X98165489Y-125940917D01*
X98214502Y-126072328D01*
X98214506Y-126072335D01*
X98300752Y-126187544D01*
X98300755Y-126187547D01*
X98415964Y-126273793D01*
X98415971Y-126273797D01*
X98550817Y-126324091D01*
X98550816Y-126324091D01*
X98557744Y-126324835D01*
X98610427Y-126330500D01*
X100406172Y-126330499D01*
X100465783Y-126324091D01*
X100600631Y-126273796D01*
X100715846Y-126187546D01*
X100802096Y-126072331D01*
X100852391Y-125937483D01*
X100858800Y-125877873D01*
X100858799Y-124082128D01*
X100852391Y-124022517D01*
X100851110Y-124019083D01*
X100802097Y-123887671D01*
X100802093Y-123887664D01*
X100715847Y-123772455D01*
X100715844Y-123772452D01*
X100600635Y-123686206D01*
X100600628Y-123686202D01*
X100465782Y-123635908D01*
X100465783Y-123635908D01*
X100406183Y-123629501D01*
X100406181Y-123629500D01*
X100406173Y-123629500D01*
X100406164Y-123629500D01*
X98610429Y-123629500D01*
X98610423Y-123629501D01*
X98550816Y-123635908D01*
X98415971Y-123686202D01*
X98415964Y-123686206D01*
X98300755Y-123772452D01*
X98300752Y-123772455D01*
X98214506Y-123887664D01*
X98214503Y-123887669D01*
X98165489Y-124019083D01*
X98123617Y-124075016D01*
X98058153Y-124099433D01*
X97989880Y-124084581D01*
X97961626Y-124063430D01*
X97839702Y-123941506D01*
X97839695Y-123941501D01*
X97646134Y-123805967D01*
X97646130Y-123805965D01*
X97594128Y-123781716D01*
X97431963Y-123706097D01*
X97431959Y-123706096D01*
X97431955Y-123706094D01*
X97203713Y-123644938D01*
X97203703Y-123644936D01*
X96968301Y-123624341D01*
X96968299Y-123624341D01*
X96732896Y-123644936D01*
X96732886Y-123644938D01*
X96504644Y-123706094D01*
X96504635Y-123706098D01*
X96290471Y-123805964D01*
X96290469Y-123805965D01*
X96096897Y-123941505D01*
X95929805Y-124108597D01*
X95799875Y-124294158D01*
X95745298Y-124337783D01*
X95675800Y-124344977D01*
X95613445Y-124313454D01*
X95596725Y-124294158D01*
X95466794Y-124108597D01*
X95299702Y-123941506D01*
X95299695Y-123941501D01*
X95106134Y-123805967D01*
X95106130Y-123805965D01*
X95054128Y-123781716D01*
X94891963Y-123706097D01*
X94891959Y-123706096D01*
X94891955Y-123706094D01*
X94663713Y-123644938D01*
X94663703Y-123644936D01*
X94428301Y-123624341D01*
X94428299Y-123624341D01*
X94192896Y-123644936D01*
X94192886Y-123644938D01*
X93964644Y-123706094D01*
X93964635Y-123706098D01*
X93750471Y-123805964D01*
X93750469Y-123805965D01*
X93556897Y-123941505D01*
X93389805Y-124108597D01*
X93254265Y-124302169D01*
X93254264Y-124302171D01*
X93154398Y-124516335D01*
X93154394Y-124516344D01*
X93093238Y-124744586D01*
X93093236Y-124744596D01*
X93072641Y-124979999D01*
X91168299Y-124979999D01*
X83688301Y-121900000D01*
X96494540Y-121900000D01*
X96514326Y-122088256D01*
X96514327Y-122088259D01*
X96572818Y-122268277D01*
X96572821Y-122268284D01*
X96667467Y-122432216D01*
X96755062Y-122529500D01*
X96794129Y-122572888D01*
X96947265Y-122684148D01*
X96947270Y-122684151D01*
X97120192Y-122761142D01*
X97120197Y-122761144D01*
X97305354Y-122800500D01*
X97305355Y-122800500D01*
X97494644Y-122800500D01*
X97494646Y-122800500D01*
X97538870Y-122791100D01*
X105208440Y-122791100D01*
X105228226Y-122979356D01*
X105228227Y-122979359D01*
X105286718Y-123159377D01*
X105286721Y-123159384D01*
X105381367Y-123323316D01*
X105477426Y-123430000D01*
X105508029Y-123463988D01*
X105661165Y-123575248D01*
X105661170Y-123575251D01*
X105834092Y-123652242D01*
X105834097Y-123652244D01*
X106019254Y-123691600D01*
X106019255Y-123691600D01*
X106208544Y-123691600D01*
X106208546Y-123691600D01*
X106393703Y-123652244D01*
X106566630Y-123575251D01*
X106719771Y-123463988D01*
X106846433Y-123323316D01*
X106941079Y-123159384D01*
X106999574Y-122979356D01*
X107019360Y-122791100D01*
X106999574Y-122602844D01*
X106941079Y-122422816D01*
X106846433Y-122258884D01*
X106719771Y-122118212D01*
X106719251Y-122117834D01*
X106566634Y-122006951D01*
X106566629Y-122006948D01*
X106393707Y-121929957D01*
X106393702Y-121929955D01*
X106247901Y-121898965D01*
X106208546Y-121890600D01*
X106019254Y-121890600D01*
X105986797Y-121897498D01*
X105834097Y-121929955D01*
X105834092Y-121929957D01*
X105661170Y-122006948D01*
X105661165Y-122006951D01*
X105508029Y-122118211D01*
X105381366Y-122258885D01*
X105286721Y-122422815D01*
X105286718Y-122422822D01*
X105251942Y-122529853D01*
X105228226Y-122602844D01*
X105208440Y-122791100D01*
X97538870Y-122791100D01*
X97679803Y-122761144D01*
X97852730Y-122684151D01*
X98005871Y-122572888D01*
X98132533Y-122432216D01*
X98227179Y-122268284D01*
X98285674Y-122088256D01*
X98305460Y-121900000D01*
X98285674Y-121711744D01*
X98227179Y-121531716D01*
X98132533Y-121367784D01*
X98132143Y-121367351D01*
X98131997Y-121367046D01*
X98128715Y-121362529D01*
X98129541Y-121361928D01*
X98101917Y-121304359D01*
X98110546Y-121235024D01*
X98132150Y-121201410D01*
X98149433Y-121182216D01*
X98244079Y-121018284D01*
X98286671Y-120887200D01*
X102304740Y-120887200D01*
X102324526Y-121075456D01*
X102324527Y-121075459D01*
X102383018Y-121255477D01*
X102383021Y-121255484D01*
X102477667Y-121419416D01*
X102578782Y-121531715D01*
X102604329Y-121560088D01*
X102757465Y-121671348D01*
X102757470Y-121671351D01*
X102930392Y-121748342D01*
X102930397Y-121748344D01*
X103115554Y-121787700D01*
X103115555Y-121787700D01*
X103304844Y-121787700D01*
X103304846Y-121787700D01*
X103490003Y-121748344D01*
X103662930Y-121671351D01*
X103816071Y-121560088D01*
X103942733Y-121419416D01*
X104037379Y-121255484D01*
X104095874Y-121075456D01*
X104115660Y-120887200D01*
X104095874Y-120698944D01*
X104037379Y-120518916D01*
X103942733Y-120354984D01*
X103816071Y-120214312D01*
X103816070Y-120214311D01*
X103662934Y-120103051D01*
X103662929Y-120103048D01*
X103490007Y-120026057D01*
X103490002Y-120026055D01*
X103344201Y-119995065D01*
X103304846Y-119986700D01*
X103115554Y-119986700D01*
X103083097Y-119993598D01*
X102930397Y-120026055D01*
X102930392Y-120026057D01*
X102757470Y-120103048D01*
X102757465Y-120103051D01*
X102604329Y-120214311D01*
X102477666Y-120354985D01*
X102383021Y-120518915D01*
X102383018Y-120518922D01*
X102324527Y-120698940D01*
X102324526Y-120698944D01*
X102304740Y-120887200D01*
X98286671Y-120887200D01*
X98302574Y-120838256D01*
X98322360Y-120650000D01*
X98302574Y-120461744D01*
X98244079Y-120281716D01*
X98149433Y-120117784D01*
X98022771Y-119977112D01*
X98022770Y-119977111D01*
X97869634Y-119865851D01*
X97869629Y-119865848D01*
X97696707Y-119788857D01*
X97696702Y-119788855D01*
X97550901Y-119757865D01*
X97511546Y-119749500D01*
X97322254Y-119749500D01*
X97289797Y-119756398D01*
X97137097Y-119788855D01*
X97137092Y-119788857D01*
X96964170Y-119865848D01*
X96964165Y-119865851D01*
X96811029Y-119977111D01*
X96684366Y-120117785D01*
X96589721Y-120281715D01*
X96589718Y-120281722D01*
X96531227Y-120461740D01*
X96531226Y-120461744D01*
X96511440Y-120650000D01*
X96531226Y-120838256D01*
X96531227Y-120838259D01*
X96589718Y-121018277D01*
X96589721Y-121018284D01*
X96684367Y-121182216D01*
X96684756Y-121182648D01*
X96684902Y-121182953D01*
X96688185Y-121187471D01*
X96687358Y-121188071D01*
X96714982Y-121245641D01*
X96706353Y-121314976D01*
X96684753Y-121348585D01*
X96667466Y-121367785D01*
X96572821Y-121531715D01*
X96572818Y-121531722D01*
X96514327Y-121711740D01*
X96514326Y-121711744D01*
X96494540Y-121900000D01*
X83688301Y-121900000D01*
X83527663Y-121833855D01*
X83509686Y-121824676D01*
X81447189Y-120550000D01*
X88044540Y-120550000D01*
X88064326Y-120738256D01*
X88064327Y-120738259D01*
X88122818Y-120918277D01*
X88122821Y-120918284D01*
X88217467Y-121082216D01*
X88312780Y-121188071D01*
X88344129Y-121222888D01*
X88497265Y-121334148D01*
X88497270Y-121334151D01*
X88670192Y-121411142D01*
X88670197Y-121411144D01*
X88855354Y-121450500D01*
X88855355Y-121450500D01*
X89044644Y-121450500D01*
X89044646Y-121450500D01*
X89229803Y-121411144D01*
X89402730Y-121334151D01*
X89555871Y-121222888D01*
X89682533Y-121082216D01*
X89777179Y-120918284D01*
X89835674Y-120738256D01*
X89855460Y-120550000D01*
X89835674Y-120361744D01*
X89777179Y-120181716D01*
X89682533Y-120017784D01*
X89555871Y-119877112D01*
X89540369Y-119865849D01*
X89402734Y-119765851D01*
X89402729Y-119765848D01*
X89229807Y-119688857D01*
X89229802Y-119688855D01*
X89084001Y-119657865D01*
X89044646Y-119649500D01*
X88855354Y-119649500D01*
X88822897Y-119656398D01*
X88670197Y-119688855D01*
X88670192Y-119688857D01*
X88497270Y-119765848D01*
X88497265Y-119765851D01*
X88344129Y-119877111D01*
X88217466Y-120017785D01*
X88122821Y-120181715D01*
X88122818Y-120181722D01*
X88066522Y-120354984D01*
X88064326Y-120361744D01*
X88044540Y-120550000D01*
X81447189Y-120550000D01*
X77402050Y-118050000D01*
X104844540Y-118050000D01*
X104864326Y-118238256D01*
X104864327Y-118238259D01*
X104922818Y-118418277D01*
X104922821Y-118418284D01*
X105017467Y-118582216D01*
X105144129Y-118722888D01*
X105297265Y-118834148D01*
X105297270Y-118834151D01*
X105470192Y-118911142D01*
X105470197Y-118911144D01*
X105655354Y-118950500D01*
X105655355Y-118950500D01*
X105844644Y-118950500D01*
X105844646Y-118950500D01*
X106029803Y-118911144D01*
X106202730Y-118834151D01*
X106355871Y-118722888D01*
X106482533Y-118582216D01*
X106577179Y-118418284D01*
X106635674Y-118238256D01*
X106655460Y-118050000D01*
X106635674Y-117861744D01*
X106577179Y-117681716D01*
X106482533Y-117517784D01*
X106355871Y-117377112D01*
X106355870Y-117377111D01*
X106202734Y-117265851D01*
X106202729Y-117265848D01*
X106029807Y-117188857D01*
X106029802Y-117188855D01*
X105884001Y-117157865D01*
X105844646Y-117149500D01*
X105655354Y-117149500D01*
X105622897Y-117156398D01*
X105470197Y-117188855D01*
X105470192Y-117188857D01*
X105297270Y-117265848D01*
X105297265Y-117265851D01*
X105144129Y-117377111D01*
X105017466Y-117517785D01*
X104922821Y-117681715D01*
X104922818Y-117681722D01*
X104864403Y-117861506D01*
X104864326Y-117861744D01*
X104844540Y-118050000D01*
X77402050Y-118050000D01*
X71868300Y-114630000D01*
X71868298Y-114629999D01*
X52241509Y-114480935D01*
X52174621Y-114460742D01*
X52129269Y-114407592D01*
X52118451Y-114356787D01*
X52118470Y-114341740D01*
X52120610Y-112600000D01*
X63044540Y-112600000D01*
X63064326Y-112788256D01*
X63064327Y-112788259D01*
X63122818Y-112968277D01*
X63122821Y-112968284D01*
X63217467Y-113132216D01*
X63325991Y-113252744D01*
X63344129Y-113272888D01*
X63497265Y-113384148D01*
X63497270Y-113384151D01*
X63670192Y-113461142D01*
X63670197Y-113461144D01*
X63855354Y-113500500D01*
X63855355Y-113500500D01*
X64044644Y-113500500D01*
X64044646Y-113500500D01*
X64229803Y-113461144D01*
X64402730Y-113384151D01*
X64408445Y-113379999D01*
X81562641Y-113379999D01*
X81562641Y-113380000D01*
X81583236Y-113615403D01*
X81583238Y-113615413D01*
X81644394Y-113843655D01*
X81644396Y-113843659D01*
X81644397Y-113843663D01*
X81737210Y-114042700D01*
X81744265Y-114057830D01*
X81744267Y-114057834D01*
X81817006Y-114161715D01*
X81868667Y-114235495D01*
X81879801Y-114251395D01*
X81879806Y-114251402D01*
X82046897Y-114418493D01*
X82046903Y-114418498D01*
X82232458Y-114548425D01*
X82276083Y-114603002D01*
X82283277Y-114672500D01*
X82251754Y-114734855D01*
X82232458Y-114751575D01*
X82046897Y-114881505D01*
X81879805Y-115048597D01*
X81744265Y-115242169D01*
X81744264Y-115242171D01*
X81644398Y-115456335D01*
X81644394Y-115456344D01*
X81583238Y-115684586D01*
X81583236Y-115684596D01*
X81562641Y-115919999D01*
X81562641Y-115920000D01*
X81583236Y-116155403D01*
X81583238Y-116155413D01*
X81644394Y-116383655D01*
X81644396Y-116383659D01*
X81644397Y-116383663D01*
X81743133Y-116595403D01*
X81744265Y-116597830D01*
X81744267Y-116597834D01*
X81852581Y-116752521D01*
X81879805Y-116791401D01*
X82046899Y-116958495D01*
X82110299Y-117002888D01*
X82240465Y-117094032D01*
X82240467Y-117094033D01*
X82240470Y-117094035D01*
X82454637Y-117193903D01*
X82682892Y-117255063D01*
X82871218Y-117271539D01*
X82918299Y-117275659D01*
X82918300Y-117275659D01*
X82918301Y-117275659D01*
X82957534Y-117272226D01*
X83153708Y-117255063D01*
X83381963Y-117193903D01*
X83596130Y-117094035D01*
X83789701Y-116958495D01*
X83956795Y-116791401D01*
X84092335Y-116597830D01*
X84192203Y-116383663D01*
X84206582Y-116330000D01*
X106862840Y-116330000D01*
X106882626Y-116518256D01*
X106882627Y-116518259D01*
X106941118Y-116698277D01*
X106941121Y-116698284D01*
X107035767Y-116862216D01*
X107122460Y-116958498D01*
X107162429Y-117002888D01*
X107315565Y-117114148D01*
X107315570Y-117114151D01*
X107488492Y-117191142D01*
X107488497Y-117191144D01*
X107673654Y-117230500D01*
X107673655Y-117230500D01*
X107862944Y-117230500D01*
X107862946Y-117230500D01*
X108048103Y-117191144D01*
X108221030Y-117114151D01*
X108374171Y-117002888D01*
X108500833Y-116862216D01*
X108595479Y-116698284D01*
X108653974Y-116518256D01*
X108670607Y-116359999D01*
X111282641Y-116359999D01*
X111282641Y-116360000D01*
X111303236Y-116595403D01*
X111303238Y-116595413D01*
X111364394Y-116823655D01*
X111364396Y-116823659D01*
X111364397Y-116823663D01*
X111427272Y-116958498D01*
X111464265Y-117037830D01*
X111464267Y-117037834D01*
X111599801Y-117231395D01*
X111599806Y-117231402D01*
X111766897Y-117398493D01*
X111766903Y-117398498D01*
X111952458Y-117528425D01*
X111996083Y-117583002D01*
X112003277Y-117652500D01*
X111971754Y-117714855D01*
X111952458Y-117731575D01*
X111766897Y-117861505D01*
X111599805Y-118028597D01*
X111464265Y-118222169D01*
X111464264Y-118222171D01*
X111364398Y-118436335D01*
X111364394Y-118436344D01*
X111303238Y-118664586D01*
X111303236Y-118664596D01*
X111282641Y-118899999D01*
X111282641Y-118900000D01*
X111303236Y-119135403D01*
X111303238Y-119135413D01*
X111364394Y-119363655D01*
X111364396Y-119363659D01*
X111364397Y-119363663D01*
X111464265Y-119577830D01*
X111464267Y-119577834D01*
X111542006Y-119688856D01*
X111595917Y-119765849D01*
X111599801Y-119771395D01*
X111599806Y-119771402D01*
X111766897Y-119938493D01*
X111766903Y-119938498D01*
X111952458Y-120068425D01*
X111996083Y-120123002D01*
X112003277Y-120192500D01*
X111971754Y-120254855D01*
X111952458Y-120271575D01*
X111766897Y-120401505D01*
X111599805Y-120568597D01*
X111464265Y-120762169D01*
X111464264Y-120762171D01*
X111364398Y-120976335D01*
X111364394Y-120976344D01*
X111303238Y-121204586D01*
X111303236Y-121204596D01*
X111282641Y-121439999D01*
X111282641Y-121440000D01*
X111303236Y-121675403D01*
X111303238Y-121675413D01*
X111364394Y-121903655D01*
X111364396Y-121903659D01*
X111364397Y-121903663D01*
X111401026Y-121982214D01*
X111464265Y-122117830D01*
X111464267Y-122117834D01*
X111545712Y-122234148D01*
X111599801Y-122311396D01*
X111599806Y-122311402D01*
X111721730Y-122433326D01*
X111755215Y-122494649D01*
X111750231Y-122564341D01*
X111708359Y-122620274D01*
X111677383Y-122637189D01*
X111545969Y-122686203D01*
X111545964Y-122686206D01*
X111430755Y-122772452D01*
X111430752Y-122772455D01*
X111344506Y-122887664D01*
X111344502Y-122887671D01*
X111294208Y-123022517D01*
X111289994Y-123061716D01*
X111287801Y-123082123D01*
X111287800Y-123082135D01*
X111287800Y-124877870D01*
X111287801Y-124877876D01*
X111294208Y-124937483D01*
X111344502Y-125072328D01*
X111344506Y-125072335D01*
X111430752Y-125187544D01*
X111430755Y-125187547D01*
X111545964Y-125273793D01*
X111545971Y-125273797D01*
X111680817Y-125324091D01*
X111680816Y-125324091D01*
X111687744Y-125324835D01*
X111740427Y-125330500D01*
X113536172Y-125330499D01*
X113595783Y-125324091D01*
X113730631Y-125273796D01*
X113845846Y-125187546D01*
X113932096Y-125072331D01*
X113982391Y-124937483D01*
X113988800Y-124877873D01*
X113988799Y-123082128D01*
X113982391Y-123022517D01*
X113932096Y-122887669D01*
X113932095Y-122887668D01*
X113932093Y-122887664D01*
X113845847Y-122772455D01*
X113845844Y-122772452D01*
X113730635Y-122686206D01*
X113730628Y-122686202D01*
X113599217Y-122637189D01*
X113543283Y-122595318D01*
X113518866Y-122529853D01*
X113533718Y-122461580D01*
X113554863Y-122433332D01*
X113676795Y-122311401D01*
X113812335Y-122117830D01*
X113912203Y-121903663D01*
X113973363Y-121675408D01*
X113993084Y-121450000D01*
X123594540Y-121450000D01*
X123614326Y-121638256D01*
X123614327Y-121638259D01*
X123672818Y-121818277D01*
X123672821Y-121818284D01*
X123767467Y-121982216D01*
X123789737Y-122006949D01*
X123894129Y-122122888D01*
X124047265Y-122234148D01*
X124047270Y-122234151D01*
X124220192Y-122311142D01*
X124220197Y-122311144D01*
X124405354Y-122350500D01*
X124405355Y-122350500D01*
X124594644Y-122350500D01*
X124594646Y-122350500D01*
X124779803Y-122311144D01*
X124952730Y-122234151D01*
X125105871Y-122122888D01*
X125232533Y-121982216D01*
X125327179Y-121818284D01*
X125385674Y-121638256D01*
X125405460Y-121450000D01*
X125385674Y-121261744D01*
X125331112Y-121093823D01*
X125327181Y-121081722D01*
X125327180Y-121081721D01*
X125327179Y-121081716D01*
X125232533Y-120917784D01*
X125105871Y-120777112D01*
X125105870Y-120777111D01*
X124952734Y-120665851D01*
X124952729Y-120665848D01*
X124779807Y-120588857D01*
X124779802Y-120588855D01*
X124634001Y-120557865D01*
X124594646Y-120549500D01*
X124405354Y-120549500D01*
X124372897Y-120556398D01*
X124220197Y-120588855D01*
X124220192Y-120588857D01*
X124047270Y-120665848D01*
X124047265Y-120665851D01*
X123894129Y-120777111D01*
X123767466Y-120917785D01*
X123672821Y-121081715D01*
X123672818Y-121081722D01*
X123619558Y-121245641D01*
X123614326Y-121261744D01*
X123594540Y-121450000D01*
X113993084Y-121450000D01*
X113993959Y-121440000D01*
X113973363Y-121204592D01*
X113912203Y-120976337D01*
X113812335Y-120762171D01*
X113768064Y-120698944D01*
X113676794Y-120568597D01*
X113509702Y-120401506D01*
X113509696Y-120401501D01*
X113324142Y-120271575D01*
X113280517Y-120216998D01*
X113273323Y-120147500D01*
X113304846Y-120085145D01*
X113324142Y-120068425D01*
X113346326Y-120052891D01*
X113509701Y-119938495D01*
X113676795Y-119771401D01*
X113812335Y-119577830D01*
X113912203Y-119363663D01*
X113973363Y-119135408D01*
X113993959Y-118900000D01*
X113973363Y-118664592D01*
X113912203Y-118436337D01*
X113812335Y-118222171D01*
X113805365Y-118212216D01*
X113676794Y-118028597D01*
X113509702Y-117861506D01*
X113509696Y-117861501D01*
X113324142Y-117731575D01*
X113280517Y-117676998D01*
X113273323Y-117607500D01*
X113304846Y-117545145D01*
X113324142Y-117528425D01*
X113425987Y-117457112D01*
X113509701Y-117398495D01*
X113676795Y-117231401D01*
X113812335Y-117037830D01*
X113912203Y-116823663D01*
X113973363Y-116595408D01*
X113993959Y-116360000D01*
X113984419Y-116250964D01*
X113998185Y-116182466D01*
X114046800Y-116132283D01*
X114114829Y-116116349D01*
X114180672Y-116139724D01*
X114200093Y-116157182D01*
X114244129Y-116206088D01*
X114244132Y-116206090D01*
X114397265Y-116317348D01*
X114397270Y-116317351D01*
X114570192Y-116394342D01*
X114570197Y-116394344D01*
X114755354Y-116433700D01*
X114755355Y-116433700D01*
X114944644Y-116433700D01*
X114944646Y-116433700D01*
X115129803Y-116394344D01*
X115302730Y-116317351D01*
X115455871Y-116206088D01*
X115582533Y-116065416D01*
X115677179Y-115901484D01*
X115735674Y-115721456D01*
X115755460Y-115533200D01*
X115735674Y-115344944D01*
X115677179Y-115164916D01*
X115582533Y-115000984D01*
X115455871Y-114860312D01*
X115444417Y-114851990D01*
X115302734Y-114749051D01*
X115302729Y-114749048D01*
X115129807Y-114672057D01*
X115129802Y-114672055D01*
X114984001Y-114641065D01*
X114944646Y-114632700D01*
X114755354Y-114632700D01*
X114730626Y-114637956D01*
X114570197Y-114672055D01*
X114570192Y-114672057D01*
X114397270Y-114749048D01*
X114397265Y-114749051D01*
X114244129Y-114860311D01*
X114117466Y-115000985D01*
X114022821Y-115164915D01*
X114022818Y-115164922D01*
X113964327Y-115344940D01*
X113964326Y-115344944D01*
X113949228Y-115488597D01*
X113948339Y-115497058D01*
X113921754Y-115561672D01*
X113864457Y-115601657D01*
X113794638Y-115604317D01*
X113734464Y-115568808D01*
X113723443Y-115555219D01*
X113676794Y-115488597D01*
X113509702Y-115321506D01*
X113509695Y-115321501D01*
X113495389Y-115311484D01*
X113453588Y-115282214D01*
X113316134Y-115185967D01*
X113316130Y-115185965D01*
X113262897Y-115161142D01*
X113101963Y-115086097D01*
X113101959Y-115086096D01*
X113101955Y-115086094D01*
X112873713Y-115024938D01*
X112873703Y-115024936D01*
X112638301Y-115004341D01*
X112638299Y-115004341D01*
X112402896Y-115024936D01*
X112402886Y-115024938D01*
X112174644Y-115086094D01*
X112174635Y-115086098D01*
X111960471Y-115185964D01*
X111960469Y-115185965D01*
X111766897Y-115321505D01*
X111599805Y-115488597D01*
X111464265Y-115682169D01*
X111464264Y-115682171D01*
X111364398Y-115896335D01*
X111364394Y-115896344D01*
X111303238Y-116124586D01*
X111303236Y-116124596D01*
X111282641Y-116359999D01*
X108670607Y-116359999D01*
X108673760Y-116330000D01*
X108653974Y-116141744D01*
X108595479Y-115961716D01*
X108500833Y-115797784D01*
X108374171Y-115657112D01*
X108374170Y-115657111D01*
X108221034Y-115545851D01*
X108221029Y-115545848D01*
X108048107Y-115468857D01*
X108048102Y-115468855D01*
X107902301Y-115437865D01*
X107862946Y-115429500D01*
X107673654Y-115429500D01*
X107641197Y-115436398D01*
X107488497Y-115468855D01*
X107488492Y-115468857D01*
X107315570Y-115545848D01*
X107315565Y-115545851D01*
X107162429Y-115657111D01*
X107035766Y-115797785D01*
X106941121Y-115961715D01*
X106941118Y-115961722D01*
X106885700Y-116132283D01*
X106882626Y-116141744D01*
X106862840Y-116330000D01*
X84206582Y-116330000D01*
X84253363Y-116155408D01*
X84273959Y-115920000D01*
X84253363Y-115684592D01*
X84203114Y-115497058D01*
X84192205Y-115456344D01*
X84192204Y-115456343D01*
X84192203Y-115456337D01*
X84092335Y-115242171D01*
X84086510Y-115233851D01*
X83956794Y-115048597D01*
X83789702Y-114881506D01*
X83789696Y-114881501D01*
X83604142Y-114751575D01*
X83560517Y-114696998D01*
X83553323Y-114627500D01*
X83584846Y-114565145D01*
X83604142Y-114548425D01*
X83626326Y-114532891D01*
X83745135Y-114449700D01*
X87080840Y-114449700D01*
X87100626Y-114637956D01*
X87100627Y-114637959D01*
X87159118Y-114817977D01*
X87159121Y-114817984D01*
X87253767Y-114981916D01*
X87345820Y-115084151D01*
X87380429Y-115122588D01*
X87533565Y-115233848D01*
X87533570Y-115233851D01*
X87706492Y-115310842D01*
X87706497Y-115310844D01*
X87891654Y-115350200D01*
X87891655Y-115350200D01*
X88080944Y-115350200D01*
X88080946Y-115350200D01*
X88266103Y-115310844D01*
X88439030Y-115233851D01*
X88592171Y-115122588D01*
X88718833Y-114981916D01*
X88741186Y-114943200D01*
X89787840Y-114943200D01*
X89807626Y-115131456D01*
X89807627Y-115131459D01*
X89866118Y-115311477D01*
X89866121Y-115311484D01*
X89960767Y-115475416D01*
X90044858Y-115568808D01*
X90087429Y-115616088D01*
X90240565Y-115727348D01*
X90240570Y-115727351D01*
X90413492Y-115804342D01*
X90413497Y-115804344D01*
X90598654Y-115843700D01*
X90598655Y-115843700D01*
X90787944Y-115843700D01*
X90787946Y-115843700D01*
X90973103Y-115804344D01*
X91146030Y-115727351D01*
X91299171Y-115616088D01*
X91425833Y-115475416D01*
X91520479Y-115311484D01*
X91578974Y-115131456D01*
X91598760Y-114943200D01*
X91578974Y-114754944D01*
X91520479Y-114574916D01*
X91494547Y-114530000D01*
X94262840Y-114530000D01*
X94282626Y-114718256D01*
X94282627Y-114718259D01*
X94341118Y-114898277D01*
X94341121Y-114898284D01*
X94435767Y-115062216D01*
X94547193Y-115185967D01*
X94562429Y-115202888D01*
X94715565Y-115314148D01*
X94715570Y-115314151D01*
X94888492Y-115391142D01*
X94888497Y-115391144D01*
X95073654Y-115430500D01*
X95073655Y-115430500D01*
X95262944Y-115430500D01*
X95262946Y-115430500D01*
X95448103Y-115391144D01*
X95621030Y-115314151D01*
X95774171Y-115202888D01*
X95900833Y-115062216D01*
X95995479Y-114898284D01*
X96053974Y-114718256D01*
X96073760Y-114530000D01*
X96053974Y-114341744D01*
X95995479Y-114161716D01*
X95900833Y-113997784D01*
X95784875Y-113869000D01*
X96511440Y-113869000D01*
X96531226Y-114057256D01*
X96531227Y-114057259D01*
X96589718Y-114237277D01*
X96589721Y-114237284D01*
X96684367Y-114401216D01*
X96762741Y-114488259D01*
X96811029Y-114541888D01*
X96964165Y-114653148D01*
X96964170Y-114653151D01*
X97137092Y-114730142D01*
X97137097Y-114730144D01*
X97322254Y-114769500D01*
X97322255Y-114769500D01*
X97511544Y-114769500D01*
X97511546Y-114769500D01*
X97696703Y-114730144D01*
X97869630Y-114653151D01*
X98022771Y-114541888D01*
X98149433Y-114401216D01*
X98217276Y-114283708D01*
X98267840Y-114235495D01*
X98336447Y-114222271D01*
X98401312Y-114248239D01*
X98441841Y-114305153D01*
X98447981Y-114332746D01*
X98464326Y-114488256D01*
X98464327Y-114488259D01*
X98522818Y-114668277D01*
X98522821Y-114668284D01*
X98617467Y-114832216D01*
X98676949Y-114898277D01*
X98744129Y-114972888D01*
X98897265Y-115084148D01*
X98897270Y-115084151D01*
X99070192Y-115161142D01*
X99070197Y-115161144D01*
X99255354Y-115200500D01*
X99255355Y-115200500D01*
X99444644Y-115200500D01*
X99444646Y-115200500D01*
X99629803Y-115161144D01*
X99802730Y-115084151D01*
X99955871Y-114972888D01*
X100082533Y-114832216D01*
X100177179Y-114668284D01*
X100235674Y-114488256D01*
X100255460Y-114300000D01*
X100235674Y-114111744D01*
X100177179Y-113931716D01*
X100082533Y-113767784D01*
X99955871Y-113627112D01*
X99914658Y-113597169D01*
X99802734Y-113515851D01*
X99802729Y-113515848D01*
X99629807Y-113438857D01*
X99629802Y-113438855D01*
X99484001Y-113407865D01*
X99444646Y-113399500D01*
X99255354Y-113399500D01*
X99222897Y-113406398D01*
X99070197Y-113438855D01*
X99070192Y-113438857D01*
X98897270Y-113515848D01*
X98897265Y-113515851D01*
X98744129Y-113627111D01*
X98617465Y-113767785D01*
X98549625Y-113885289D01*
X98499058Y-113933505D01*
X98430451Y-113946728D01*
X98365586Y-113920760D01*
X98325058Y-113863845D01*
X98318918Y-113836257D01*
X98302574Y-113680744D01*
X98244079Y-113500716D01*
X98149433Y-113336784D01*
X98022771Y-113196112D01*
X98021955Y-113195519D01*
X97869634Y-113084851D01*
X97869629Y-113084848D01*
X97696707Y-113007857D01*
X97696702Y-113007855D01*
X97550901Y-112976865D01*
X97511546Y-112968500D01*
X97322254Y-112968500D01*
X97289797Y-112975398D01*
X97137097Y-113007855D01*
X97137092Y-113007857D01*
X96964170Y-113084848D01*
X96964165Y-113084851D01*
X96811029Y-113196111D01*
X96684366Y-113336785D01*
X96589721Y-113500715D01*
X96589718Y-113500722D01*
X96535088Y-113668857D01*
X96531226Y-113680744D01*
X96511440Y-113869000D01*
X95784875Y-113869000D01*
X95774171Y-113857112D01*
X95763694Y-113849500D01*
X95621034Y-113745851D01*
X95621029Y-113745848D01*
X95448107Y-113668857D01*
X95448102Y-113668855D01*
X95302301Y-113637865D01*
X95262946Y-113629500D01*
X95073654Y-113629500D01*
X95041197Y-113636398D01*
X94888497Y-113668855D01*
X94888492Y-113668857D01*
X94715570Y-113745848D01*
X94715565Y-113745851D01*
X94562429Y-113857111D01*
X94435766Y-113997785D01*
X94341121Y-114161715D01*
X94341118Y-114161722D01*
X94285549Y-114332748D01*
X94282626Y-114341744D01*
X94262840Y-114530000D01*
X91494547Y-114530000D01*
X91425833Y-114410984D01*
X91299171Y-114270312D01*
X91299170Y-114270311D01*
X91146034Y-114159051D01*
X91146029Y-114159048D01*
X90973107Y-114082057D01*
X90973102Y-114082055D01*
X90827301Y-114051065D01*
X90787946Y-114042700D01*
X90598654Y-114042700D01*
X90566197Y-114049598D01*
X90413497Y-114082055D01*
X90413492Y-114082057D01*
X90240570Y-114159048D01*
X90240565Y-114159051D01*
X90087429Y-114270311D01*
X89960766Y-114410985D01*
X89866121Y-114574915D01*
X89866118Y-114574922D01*
X89807627Y-114754940D01*
X89807626Y-114754944D01*
X89787840Y-114943200D01*
X88741186Y-114943200D01*
X88813479Y-114817984D01*
X88871974Y-114637956D01*
X88891760Y-114449700D01*
X88871974Y-114261444D01*
X88813479Y-114081416D01*
X88718833Y-113917484D01*
X88592171Y-113776812D01*
X88592170Y-113776811D01*
X88439034Y-113665551D01*
X88439029Y-113665548D01*
X88266107Y-113588557D01*
X88266102Y-113588555D01*
X88120301Y-113557565D01*
X88080946Y-113549200D01*
X87891654Y-113549200D01*
X87859197Y-113556098D01*
X87706497Y-113588555D01*
X87706492Y-113588557D01*
X87533570Y-113665548D01*
X87533565Y-113665551D01*
X87380429Y-113776811D01*
X87253766Y-113917485D01*
X87159121Y-114081415D01*
X87159118Y-114081422D01*
X87103891Y-114251395D01*
X87100626Y-114261444D01*
X87080840Y-114449700D01*
X83745135Y-114449700D01*
X83789701Y-114418495D01*
X83956795Y-114251401D01*
X84092335Y-114057830D01*
X84192203Y-113843663D01*
X84253363Y-113615408D01*
X84273959Y-113380000D01*
X84253363Y-113144592D01*
X84221774Y-113026700D01*
X85088440Y-113026700D01*
X85108226Y-113214956D01*
X85108227Y-113214958D01*
X85108227Y-113214959D01*
X85166718Y-113394977D01*
X85166721Y-113394984D01*
X85261367Y-113558916D01*
X85357379Y-113665548D01*
X85388029Y-113699588D01*
X85541165Y-113810848D01*
X85541170Y-113810851D01*
X85714092Y-113887842D01*
X85714097Y-113887844D01*
X85899254Y-113927200D01*
X85899255Y-113927200D01*
X86088544Y-113927200D01*
X86088546Y-113927200D01*
X86273703Y-113887844D01*
X86446630Y-113810851D01*
X86599771Y-113699588D01*
X86726433Y-113558916D01*
X86821079Y-113394984D01*
X86879574Y-113214956D01*
X86883150Y-113180923D01*
X86909732Y-113116313D01*
X86967028Y-113076327D01*
X87036847Y-113073665D01*
X87079355Y-113093569D01*
X87192465Y-113175748D01*
X87192470Y-113175751D01*
X87365392Y-113252742D01*
X87365397Y-113252744D01*
X87550554Y-113292100D01*
X87550555Y-113292100D01*
X87739844Y-113292100D01*
X87739846Y-113292100D01*
X87925003Y-113252744D01*
X88097930Y-113175751D01*
X88251071Y-113064488D01*
X88377733Y-112923816D01*
X88472379Y-112759884D01*
X88530874Y-112579856D01*
X88550660Y-112391600D01*
X88530874Y-112203344D01*
X88472379Y-112023316D01*
X88377733Y-111859384D01*
X88251071Y-111718712D01*
X88224628Y-111699500D01*
X88097934Y-111607451D01*
X88097929Y-111607448D01*
X87925007Y-111530457D01*
X87925002Y-111530455D01*
X87773611Y-111498277D01*
X87739846Y-111491100D01*
X87550554Y-111491100D01*
X87518097Y-111497998D01*
X87365397Y-111530455D01*
X87365392Y-111530457D01*
X87192470Y-111607448D01*
X87192465Y-111607451D01*
X87039329Y-111718711D01*
X86912666Y-111859385D01*
X86818021Y-112023315D01*
X86818018Y-112023322D01*
X86763699Y-112190500D01*
X86759526Y-112203344D01*
X86755949Y-112237375D01*
X86729365Y-112301988D01*
X86672068Y-112341973D01*
X86602249Y-112344633D01*
X86559744Y-112324730D01*
X86446634Y-112242551D01*
X86446629Y-112242548D01*
X86273707Y-112165557D01*
X86273702Y-112165555D01*
X86124283Y-112133796D01*
X86088546Y-112126200D01*
X85899254Y-112126200D01*
X85866797Y-112133098D01*
X85714097Y-112165555D01*
X85714092Y-112165557D01*
X85541170Y-112242548D01*
X85541165Y-112242551D01*
X85388029Y-112353811D01*
X85261366Y-112494485D01*
X85166721Y-112658415D01*
X85166718Y-112658422D01*
X85112399Y-112825600D01*
X85108226Y-112838444D01*
X85088440Y-113026700D01*
X84221774Y-113026700D01*
X84204140Y-112960888D01*
X84192205Y-112916344D01*
X84192204Y-112916343D01*
X84192203Y-112916337D01*
X84092335Y-112702171D01*
X84063606Y-112661142D01*
X83956796Y-112508600D01*
X83905511Y-112457315D01*
X83834867Y-112386671D01*
X83801384Y-112325351D01*
X83806368Y-112255659D01*
X83848239Y-112199725D01*
X83879215Y-112182810D01*
X84010631Y-112133796D01*
X84125846Y-112047546D01*
X84212096Y-111932331D01*
X84262391Y-111797483D01*
X84268800Y-111737873D01*
X84268800Y-111374700D01*
X89471740Y-111374700D01*
X89491526Y-111562956D01*
X89491527Y-111562959D01*
X89550018Y-111742977D01*
X89550021Y-111742984D01*
X89644667Y-111906916D01*
X89749474Y-112023316D01*
X89771329Y-112047588D01*
X89924465Y-112158848D01*
X89924470Y-112158851D01*
X90097392Y-112235842D01*
X90097397Y-112235844D01*
X90282554Y-112275200D01*
X90282555Y-112275200D01*
X90471844Y-112275200D01*
X90471846Y-112275200D01*
X90657003Y-112235844D01*
X90829930Y-112158851D01*
X90983071Y-112047588D01*
X91109733Y-111906916D01*
X91204379Y-111742984D01*
X91241090Y-111630000D01*
X93164140Y-111630000D01*
X93183926Y-111818256D01*
X93183927Y-111818259D01*
X93242418Y-111998277D01*
X93242421Y-111998284D01*
X93337067Y-112162216D01*
X93421204Y-112255659D01*
X93463729Y-112302888D01*
X93616865Y-112414148D01*
X93616870Y-112414151D01*
X93789792Y-112491142D01*
X93789797Y-112491144D01*
X93974954Y-112530500D01*
X93974955Y-112530500D01*
X94164244Y-112530500D01*
X94164246Y-112530500D01*
X94349403Y-112491144D01*
X94358263Y-112487198D01*
X94427512Y-112477912D01*
X94490790Y-112507538D01*
X94528005Y-112566672D01*
X94532022Y-112587511D01*
X94532625Y-112593254D01*
X94532626Y-112593257D01*
X94591118Y-112773277D01*
X94591121Y-112773284D01*
X94685767Y-112937216D01*
X94800364Y-113064488D01*
X94812429Y-113077888D01*
X94965565Y-113189148D01*
X94965570Y-113189151D01*
X95138492Y-113266142D01*
X95138497Y-113266144D01*
X95323654Y-113305500D01*
X95323655Y-113305500D01*
X95512944Y-113305500D01*
X95512946Y-113305500D01*
X95698103Y-113266144D01*
X95871030Y-113189151D01*
X96024171Y-113077888D01*
X96150833Y-112937216D01*
X96245479Y-112773284D01*
X96303974Y-112593256D01*
X96323760Y-112405000D01*
X96311463Y-112288000D01*
X98908040Y-112288000D01*
X98927826Y-112476256D01*
X98927827Y-112476259D01*
X98986318Y-112656277D01*
X98986321Y-112656284D01*
X99080967Y-112820216D01*
X99174249Y-112923816D01*
X99207629Y-112960888D01*
X99360765Y-113072148D01*
X99360770Y-113072151D01*
X99533692Y-113149142D01*
X99533697Y-113149144D01*
X99718854Y-113188500D01*
X99718855Y-113188500D01*
X99908144Y-113188500D01*
X99908146Y-113188500D01*
X100093303Y-113149144D01*
X100266230Y-113072151D01*
X100419371Y-112960888D01*
X100546033Y-112820216D01*
X100640679Y-112656284D01*
X100699174Y-112476256D01*
X100718960Y-112288000D01*
X100703852Y-112144258D01*
X100716421Y-112075531D01*
X100764153Y-112024507D01*
X100831894Y-112007389D01*
X100852945Y-112010007D01*
X100949354Y-112030500D01*
X100949355Y-112030500D01*
X101138644Y-112030500D01*
X101138646Y-112030500D01*
X101290245Y-111998277D01*
X101330160Y-111989793D01*
X101330589Y-111991814D01*
X101390727Y-111990093D01*
X101450561Y-112026171D01*
X101481392Y-112088871D01*
X101473431Y-112158285D01*
X101451359Y-112192993D01*
X101360966Y-112293385D01*
X101266321Y-112457315D01*
X101266318Y-112457322D01*
X101207827Y-112637340D01*
X101207826Y-112637344D01*
X101188040Y-112825600D01*
X101207826Y-113013856D01*
X101207827Y-113013859D01*
X101239091Y-113110080D01*
X101241086Y-113179921D01*
X101205006Y-113239754D01*
X101194047Y-113248715D01*
X101152911Y-113278602D01*
X101152906Y-113278606D01*
X101026249Y-113419275D01*
X100931604Y-113583205D01*
X100931601Y-113583212D01*
X100878757Y-113745851D01*
X100873109Y-113763234D01*
X100853323Y-113951490D01*
X100873109Y-114139746D01*
X100873110Y-114139749D01*
X100931601Y-114319767D01*
X100931604Y-114319774D01*
X101026250Y-114483706D01*
X101144710Y-114615269D01*
X101152912Y-114624378D01*
X101306048Y-114735638D01*
X101306053Y-114735641D01*
X101478975Y-114812632D01*
X101478980Y-114812634D01*
X101664137Y-114851990D01*
X101664138Y-114851990D01*
X101853427Y-114851990D01*
X101853429Y-114851990D01*
X102038586Y-114812634D01*
X102211513Y-114735641D01*
X102364654Y-114624378D01*
X102491316Y-114483706D01*
X102585962Y-114319774D01*
X102644457Y-114139746D01*
X102664243Y-113951490D01*
X102644457Y-113763234D01*
X102613190Y-113667007D01*
X102611196Y-113597169D01*
X102647276Y-113537336D01*
X102658232Y-113528376D01*
X102699371Y-113498488D01*
X102826033Y-113357816D01*
X102920679Y-113193884D01*
X102979174Y-113013856D01*
X102998960Y-112825600D01*
X102979174Y-112637344D01*
X102920679Y-112457316D01*
X102826033Y-112293384D01*
X102699371Y-112152712D01*
X102699370Y-112152711D01*
X102546234Y-112041451D01*
X102546229Y-112041448D01*
X102373307Y-111964457D01*
X102373302Y-111964455D01*
X102284593Y-111945600D01*
X104940140Y-111945600D01*
X104959926Y-112133856D01*
X104959927Y-112133859D01*
X105018418Y-112313877D01*
X105018421Y-112313884D01*
X105113067Y-112477816D01*
X105204947Y-112579859D01*
X105239729Y-112618488D01*
X105392865Y-112729748D01*
X105392870Y-112729751D01*
X105565792Y-112806742D01*
X105565797Y-112806744D01*
X105750954Y-112846100D01*
X105750955Y-112846100D01*
X105940244Y-112846100D01*
X105940246Y-112846100D01*
X106125403Y-112806744D01*
X106298330Y-112729751D01*
X106451471Y-112618488D01*
X106578133Y-112477816D01*
X106672779Y-112313884D01*
X106731274Y-112133856D01*
X106751060Y-111945600D01*
X106731274Y-111757344D01*
X106672779Y-111577316D01*
X106578133Y-111413384D01*
X106451471Y-111272712D01*
X106444690Y-111267785D01*
X106323859Y-111179996D01*
X108017800Y-111179996D01*
X108017800Y-112380001D01*
X108017801Y-112380018D01*
X108028300Y-112482796D01*
X108028301Y-112482799D01*
X108067138Y-112600000D01*
X108083486Y-112649334D01*
X108175588Y-112798656D01*
X108299644Y-112922712D01*
X108448966Y-113014814D01*
X108615503Y-113069999D01*
X108718291Y-113080500D01*
X109918308Y-113080499D01*
X110021097Y-113069999D01*
X110187634Y-113014814D01*
X110336956Y-112922712D01*
X110461012Y-112798656D01*
X110553114Y-112649334D01*
X110608299Y-112482797D01*
X110618800Y-112380009D01*
X110618799Y-111179992D01*
X110608299Y-111077203D01*
X110553114Y-110910666D01*
X110461012Y-110761344D01*
X110336956Y-110637288D01*
X110203545Y-110555000D01*
X110187636Y-110545187D01*
X110187631Y-110545185D01*
X110182546Y-110543500D01*
X110021097Y-110490001D01*
X110021095Y-110490000D01*
X109918310Y-110479500D01*
X108718298Y-110479500D01*
X108718281Y-110479501D01*
X108615503Y-110490000D01*
X108615500Y-110490001D01*
X108448968Y-110545185D01*
X108448963Y-110545187D01*
X108299642Y-110637289D01*
X108175589Y-110761342D01*
X108083487Y-110910663D01*
X108083485Y-110910668D01*
X108068095Y-110957112D01*
X108028301Y-111077203D01*
X108028301Y-111077204D01*
X108028300Y-111077204D01*
X108017801Y-111179981D01*
X108017800Y-111179996D01*
X106323859Y-111179996D01*
X106298334Y-111161451D01*
X106298329Y-111161448D01*
X106125407Y-111084457D01*
X106125402Y-111084455D01*
X105979601Y-111053465D01*
X105940246Y-111045100D01*
X105750954Y-111045100D01*
X105718497Y-111051998D01*
X105565797Y-111084455D01*
X105565792Y-111084457D01*
X105392870Y-111161448D01*
X105392865Y-111161451D01*
X105239729Y-111272711D01*
X105113066Y-111413385D01*
X105018421Y-111577315D01*
X105018418Y-111577322D01*
X104959927Y-111757340D01*
X104959926Y-111757344D01*
X104940140Y-111945600D01*
X102284593Y-111945600D01*
X102222151Y-111932328D01*
X102188146Y-111925100D01*
X101998854Y-111925100D01*
X101964849Y-111932328D01*
X101807340Y-111965807D01*
X101806912Y-111963793D01*
X101746728Y-111965494D01*
X101686907Y-111929394D01*
X101656099Y-111866683D01*
X101664086Y-111797272D01*
X101686138Y-111762609D01*
X101776533Y-111662216D01*
X101871179Y-111498284D01*
X101929674Y-111318256D01*
X101949460Y-111130000D01*
X101929674Y-110941744D01*
X101871179Y-110761716D01*
X101776533Y-110597784D01*
X101649871Y-110457112D01*
X101618264Y-110434148D01*
X101496734Y-110345851D01*
X101496729Y-110345848D01*
X101323807Y-110268857D01*
X101323802Y-110268855D01*
X101178001Y-110237865D01*
X101138646Y-110229500D01*
X100949354Y-110229500D01*
X100916897Y-110236398D01*
X100764197Y-110268855D01*
X100764192Y-110268857D01*
X100591270Y-110345848D01*
X100591265Y-110345851D01*
X100438129Y-110457111D01*
X100311466Y-110597785D01*
X100216821Y-110761715D01*
X100216818Y-110761722D01*
X100159264Y-110938856D01*
X100158326Y-110941744D01*
X100143327Y-111084455D01*
X100138540Y-111130000D01*
X100153647Y-111273739D01*
X100141077Y-111342469D01*
X100093345Y-111393492D01*
X100025605Y-111410610D01*
X100004545Y-111407990D01*
X99936336Y-111393492D01*
X99908146Y-111387500D01*
X99718854Y-111387500D01*
X99690664Y-111393492D01*
X99533697Y-111426855D01*
X99533692Y-111426857D01*
X99360770Y-111503848D01*
X99360765Y-111503851D01*
X99207629Y-111615111D01*
X99080966Y-111755785D01*
X98986321Y-111919715D01*
X98986318Y-111919722D01*
X98938210Y-112067784D01*
X98927826Y-112099744D01*
X98908040Y-112288000D01*
X96311463Y-112288000D01*
X96303974Y-112216744D01*
X96245479Y-112036716D01*
X96150833Y-111872784D01*
X96024171Y-111732112D01*
X96024170Y-111732111D01*
X95871034Y-111620851D01*
X95871029Y-111620848D01*
X95698107Y-111543857D01*
X95698102Y-111543855D01*
X95552301Y-111512865D01*
X95512946Y-111504500D01*
X95323654Y-111504500D01*
X95284299Y-111512865D01*
X95138498Y-111543855D01*
X95138493Y-111543857D01*
X95129628Y-111547804D01*
X95060378Y-111557085D01*
X94997102Y-111527454D01*
X94959892Y-111468317D01*
X94955877Y-111447479D01*
X94955274Y-111441746D01*
X94955274Y-111441744D01*
X94896779Y-111261716D01*
X94871596Y-111218098D01*
X94855124Y-111150200D01*
X94877977Y-111084173D01*
X94932898Y-111040982D01*
X94978984Y-111032100D01*
X95143144Y-111032100D01*
X95143146Y-111032100D01*
X95328303Y-110992744D01*
X95501230Y-110915751D01*
X95654371Y-110804488D01*
X95781033Y-110663816D01*
X95875679Y-110499884D01*
X95934174Y-110319856D01*
X95953960Y-110131600D01*
X95934174Y-109943344D01*
X95875679Y-109763316D01*
X95788375Y-109612102D01*
X95771903Y-109544203D01*
X95794756Y-109478176D01*
X95849677Y-109434985D01*
X95919230Y-109428344D01*
X95946199Y-109436823D01*
X95959497Y-109442744D01*
X96144654Y-109482100D01*
X96144655Y-109482100D01*
X96333944Y-109482100D01*
X96333946Y-109482100D01*
X96519103Y-109442744D01*
X96692030Y-109365751D01*
X96845171Y-109254488D01*
X96971833Y-109113816D01*
X97046378Y-108984700D01*
X97807740Y-108984700D01*
X97827526Y-109172956D01*
X97827527Y-109172959D01*
X97886018Y-109352977D01*
X97886021Y-109352984D01*
X97980667Y-109516916D01*
X98084698Y-109632454D01*
X98107329Y-109657588D01*
X98260465Y-109768848D01*
X98260470Y-109768851D01*
X98433392Y-109845842D01*
X98433397Y-109845844D01*
X98618554Y-109885200D01*
X98618555Y-109885200D01*
X98807844Y-109885200D01*
X98807846Y-109885200D01*
X98993003Y-109845844D01*
X99165930Y-109768851D01*
X99319071Y-109657588D01*
X99445733Y-109516916D01*
X99540379Y-109352984D01*
X99598874Y-109172956D01*
X99618660Y-108984700D01*
X99598874Y-108796444D01*
X99540379Y-108616416D01*
X99445733Y-108452484D01*
X99319071Y-108311812D01*
X99314945Y-108308814D01*
X99165934Y-108200551D01*
X99165929Y-108200548D01*
X98993007Y-108123557D01*
X98993002Y-108123555D01*
X98839287Y-108090883D01*
X98807846Y-108084200D01*
X98618554Y-108084200D01*
X98606896Y-108086678D01*
X98433397Y-108123555D01*
X98433392Y-108123557D01*
X98260470Y-108200548D01*
X98260465Y-108200551D01*
X98107329Y-108311811D01*
X97980666Y-108452485D01*
X97886021Y-108616415D01*
X97886018Y-108616422D01*
X97829991Y-108788857D01*
X97827526Y-108796444D01*
X97807740Y-108984700D01*
X97046378Y-108984700D01*
X97066479Y-108949884D01*
X97124974Y-108769856D01*
X97144760Y-108581600D01*
X97124974Y-108393344D01*
X97066479Y-108213316D01*
X96971833Y-108049384D01*
X96845171Y-107908712D01*
X96781428Y-107862400D01*
X96692034Y-107797451D01*
X96692029Y-107797448D01*
X96519107Y-107720457D01*
X96519102Y-107720455D01*
X96373301Y-107689465D01*
X96333946Y-107681100D01*
X96144654Y-107681100D01*
X96112197Y-107687998D01*
X95959497Y-107720455D01*
X95959492Y-107720457D01*
X95786570Y-107797448D01*
X95786565Y-107797451D01*
X95633429Y-107908711D01*
X95506766Y-108049385D01*
X95412121Y-108213315D01*
X95412118Y-108213322D01*
X95356226Y-108385341D01*
X95353626Y-108393344D01*
X95333840Y-108581600D01*
X95353626Y-108769856D01*
X95353627Y-108769859D01*
X95412118Y-108949877D01*
X95412121Y-108949884D01*
X95499423Y-109101096D01*
X95515896Y-109168997D01*
X95493043Y-109235023D01*
X95438122Y-109278214D01*
X95368568Y-109284855D01*
X95341603Y-109276377D01*
X95328302Y-109270455D01*
X95161602Y-109235023D01*
X95143146Y-109231100D01*
X94953854Y-109231100D01*
X94935398Y-109235023D01*
X94768697Y-109270455D01*
X94768692Y-109270457D01*
X94595770Y-109347448D01*
X94595765Y-109347451D01*
X94442629Y-109458711D01*
X94315966Y-109599385D01*
X94221321Y-109763315D01*
X94221318Y-109763322D01*
X94163219Y-109942135D01*
X94162826Y-109943344D01*
X94143040Y-110131600D01*
X94162826Y-110319856D01*
X94162827Y-110319859D01*
X94221318Y-110499877D01*
X94221321Y-110499884D01*
X94246503Y-110543500D01*
X94262976Y-110611400D01*
X94240123Y-110677427D01*
X94185202Y-110720618D01*
X94139116Y-110729500D01*
X93974954Y-110729500D01*
X93942497Y-110736398D01*
X93789797Y-110768855D01*
X93789792Y-110768857D01*
X93616870Y-110845848D01*
X93616865Y-110845851D01*
X93463729Y-110957111D01*
X93337066Y-111097785D01*
X93242421Y-111261715D01*
X93242418Y-111261722D01*
X93187184Y-111431716D01*
X93183926Y-111441744D01*
X93164140Y-111630000D01*
X91241090Y-111630000D01*
X91262874Y-111562956D01*
X91282660Y-111374700D01*
X91262874Y-111186444D01*
X91204379Y-111006416D01*
X91109733Y-110842484D01*
X90983071Y-110701812D01*
X90930774Y-110663816D01*
X90829934Y-110590551D01*
X90829929Y-110590548D01*
X90657007Y-110513557D01*
X90657002Y-110513555D01*
X90496785Y-110479501D01*
X90471846Y-110474200D01*
X90282554Y-110474200D01*
X90262131Y-110478541D01*
X90097397Y-110513555D01*
X90097392Y-110513557D01*
X89924470Y-110590548D01*
X89924465Y-110590551D01*
X89771329Y-110701811D01*
X89644666Y-110842485D01*
X89550021Y-111006415D01*
X89550018Y-111006422D01*
X89493622Y-111179992D01*
X89491526Y-111186444D01*
X89471740Y-111374700D01*
X84268800Y-111374700D01*
X84268799Y-109942128D01*
X84262391Y-109882517D01*
X84234275Y-109807135D01*
X84212097Y-109747671D01*
X84212093Y-109747664D01*
X84125847Y-109632455D01*
X84125844Y-109632452D01*
X84010635Y-109546206D01*
X84010628Y-109546202D01*
X83875782Y-109495908D01*
X83875783Y-109495908D01*
X83816183Y-109489501D01*
X83816181Y-109489500D01*
X83816173Y-109489500D01*
X83816164Y-109489500D01*
X82020429Y-109489500D01*
X82020423Y-109489501D01*
X81960816Y-109495908D01*
X81825971Y-109546202D01*
X81825964Y-109546206D01*
X81710755Y-109632452D01*
X81710752Y-109632455D01*
X81624506Y-109747664D01*
X81624502Y-109747671D01*
X81574208Y-109882517D01*
X81572567Y-109897785D01*
X81567801Y-109942123D01*
X81567800Y-109942135D01*
X81567800Y-111737870D01*
X81567801Y-111737876D01*
X81574208Y-111797483D01*
X81624502Y-111932328D01*
X81624506Y-111932335D01*
X81710752Y-112047544D01*
X81710755Y-112047547D01*
X81825964Y-112133793D01*
X81825971Y-112133797D01*
X81957381Y-112182810D01*
X82013315Y-112224681D01*
X82037732Y-112290145D01*
X82022880Y-112358418D01*
X82001730Y-112386673D01*
X81879803Y-112508600D01*
X81744265Y-112702169D01*
X81744264Y-112702171D01*
X81644398Y-112916335D01*
X81644394Y-112916344D01*
X81583238Y-113144586D01*
X81583236Y-113144596D01*
X81562641Y-113379999D01*
X64408445Y-113379999D01*
X64555871Y-113272888D01*
X64682533Y-113132216D01*
X64777179Y-112968284D01*
X64835674Y-112788256D01*
X64855460Y-112600000D01*
X64835674Y-112411744D01*
X64777179Y-112231716D01*
X64682533Y-112067784D01*
X64555871Y-111927112D01*
X64553102Y-111925100D01*
X64402734Y-111815851D01*
X64402729Y-111815848D01*
X64229807Y-111738857D01*
X64229802Y-111738855D01*
X64084001Y-111707865D01*
X64044646Y-111699500D01*
X63855354Y-111699500D01*
X63822897Y-111706398D01*
X63670197Y-111738855D01*
X63670192Y-111738857D01*
X63497270Y-111815848D01*
X63497265Y-111815851D01*
X63344129Y-111927111D01*
X63217466Y-112067785D01*
X63122821Y-112231715D01*
X63122818Y-112231722D01*
X63070871Y-112391600D01*
X63064326Y-112411744D01*
X63044540Y-112600000D01*
X52120610Y-112600000D01*
X52123276Y-110430000D01*
X70412840Y-110430000D01*
X70432626Y-110618256D01*
X70432627Y-110618259D01*
X70491118Y-110798277D01*
X70491121Y-110798284D01*
X70585767Y-110962216D01*
X70689302Y-111077203D01*
X70712429Y-111102888D01*
X70865565Y-111214148D01*
X70865570Y-111214151D01*
X71038492Y-111291142D01*
X71038497Y-111291144D01*
X71223654Y-111330500D01*
X71223655Y-111330500D01*
X71412944Y-111330500D01*
X71412946Y-111330500D01*
X71598103Y-111291144D01*
X71771030Y-111214151D01*
X71924171Y-111102888D01*
X72050833Y-110962216D01*
X72145479Y-110798284D01*
X72203974Y-110618256D01*
X72223760Y-110430000D01*
X72203974Y-110241744D01*
X72145479Y-110061716D01*
X72050833Y-109897784D01*
X71924171Y-109757112D01*
X71910965Y-109747517D01*
X71771034Y-109645851D01*
X71771029Y-109645848D01*
X71598107Y-109568857D01*
X71598102Y-109568855D01*
X71440073Y-109535266D01*
X71412946Y-109529500D01*
X71223654Y-109529500D01*
X71196527Y-109535266D01*
X71038497Y-109568855D01*
X71038492Y-109568857D01*
X70865570Y-109645848D01*
X70865565Y-109645851D01*
X70712429Y-109757111D01*
X70585766Y-109897785D01*
X70491121Y-110061715D01*
X70491118Y-110061722D01*
X70436604Y-110229500D01*
X70432626Y-110241744D01*
X70412840Y-110430000D01*
X52123276Y-110430000D01*
X52128013Y-106575000D01*
X96994540Y-106575000D01*
X97014326Y-106763256D01*
X97014327Y-106763259D01*
X97072818Y-106943277D01*
X97072821Y-106943284D01*
X97167467Y-107107216D01*
X97230737Y-107177484D01*
X97294129Y-107247888D01*
X97447265Y-107359148D01*
X97447270Y-107359151D01*
X97620192Y-107436142D01*
X97620197Y-107436144D01*
X97805354Y-107475500D01*
X97805355Y-107475500D01*
X97994644Y-107475500D01*
X97994646Y-107475500D01*
X98179803Y-107436144D01*
X98352730Y-107359151D01*
X98505871Y-107247888D01*
X98632533Y-107107216D01*
X98727179Y-106943284D01*
X98770746Y-106809200D01*
X99057240Y-106809200D01*
X99077026Y-106997456D01*
X99077027Y-106997459D01*
X99135518Y-107177477D01*
X99135521Y-107177484D01*
X99230167Y-107341416D01*
X99287743Y-107405360D01*
X99356829Y-107482088D01*
X99509965Y-107593348D01*
X99509970Y-107593351D01*
X99682892Y-107670342D01*
X99682897Y-107670344D01*
X99868054Y-107709700D01*
X99868055Y-107709700D01*
X100057344Y-107709700D01*
X100057346Y-107709700D01*
X100242503Y-107670344D01*
X100399100Y-107600621D01*
X100468347Y-107591336D01*
X100531624Y-107620964D01*
X100568838Y-107680099D01*
X100572854Y-107700936D01*
X100575925Y-107730154D01*
X100575926Y-107730157D01*
X100634418Y-107910177D01*
X100634421Y-107910184D01*
X100729067Y-108074116D01*
X100810899Y-108164999D01*
X100855729Y-108214788D01*
X101008865Y-108326048D01*
X101008870Y-108326051D01*
X101181792Y-108403042D01*
X101181797Y-108403044D01*
X101366954Y-108442400D01*
X101366955Y-108442400D01*
X101556244Y-108442400D01*
X101556246Y-108442400D01*
X101741403Y-108403044D01*
X101914330Y-108326051D01*
X102067471Y-108214788D01*
X102194133Y-108074116D01*
X102219603Y-108030000D01*
X108812840Y-108030000D01*
X108832626Y-108218256D01*
X108832627Y-108218259D01*
X108891118Y-108398277D01*
X108891121Y-108398284D01*
X108985767Y-108562216D01*
X109106297Y-108696078D01*
X109112429Y-108702888D01*
X109265565Y-108814148D01*
X109265570Y-108814151D01*
X109438492Y-108891142D01*
X109438497Y-108891144D01*
X109623654Y-108930500D01*
X109623655Y-108930500D01*
X109812944Y-108930500D01*
X109812946Y-108930500D01*
X109998103Y-108891144D01*
X110171030Y-108814151D01*
X110324171Y-108702888D01*
X110450833Y-108562216D01*
X110545479Y-108398284D01*
X110603974Y-108218256D01*
X110623760Y-108030000D01*
X110603974Y-107841744D01*
X110545479Y-107661716D01*
X110517871Y-107613898D01*
X110501399Y-107546000D01*
X110524251Y-107479973D01*
X110579173Y-107436782D01*
X110625259Y-107427900D01*
X110662944Y-107427900D01*
X110662946Y-107427900D01*
X110848103Y-107388544D01*
X111021030Y-107311551D01*
X111021033Y-107311548D01*
X111026663Y-107308299D01*
X111027530Y-107309802D01*
X111085288Y-107289188D01*
X111153344Y-107305007D01*
X111202043Y-107355108D01*
X111215925Y-107423585D01*
X111199767Y-107474983D01*
X111188722Y-107494113D01*
X111188718Y-107494122D01*
X111130227Y-107674140D01*
X111130226Y-107674144D01*
X111110440Y-107862400D01*
X111130226Y-108050656D01*
X111130227Y-108050659D01*
X111188718Y-108230677D01*
X111188721Y-108230684D01*
X111283367Y-108394616D01*
X111335472Y-108452484D01*
X111410029Y-108535288D01*
X111563165Y-108646548D01*
X111563170Y-108646551D01*
X111736092Y-108723542D01*
X111736097Y-108723544D01*
X111921254Y-108762900D01*
X111921255Y-108762900D01*
X112110544Y-108762900D01*
X112110546Y-108762900D01*
X112295703Y-108723544D01*
X112468630Y-108646551D01*
X112621771Y-108535288D01*
X112748433Y-108394616D01*
X112843079Y-108230684D01*
X112901574Y-108050656D01*
X112921360Y-107862400D01*
X112901574Y-107674144D01*
X112843079Y-107494116D01*
X112748433Y-107330184D01*
X112621771Y-107189512D01*
X112621770Y-107189511D01*
X112468634Y-107078251D01*
X112468629Y-107078248D01*
X112295707Y-107001257D01*
X112295702Y-107001255D01*
X112149901Y-106970265D01*
X112110546Y-106961900D01*
X111921254Y-106961900D01*
X111888797Y-106968798D01*
X111736097Y-107001255D01*
X111736092Y-107001257D01*
X111563170Y-107078248D01*
X111557537Y-107081501D01*
X111556672Y-107080003D01*
X111498873Y-107100613D01*
X111430822Y-107084774D01*
X111382138Y-107034658D01*
X111368277Y-106966177D01*
X111384433Y-106914814D01*
X111395479Y-106895684D01*
X111453974Y-106715656D01*
X111473760Y-106527400D01*
X111453974Y-106339144D01*
X111395479Y-106159116D01*
X111300833Y-105995184D01*
X111174171Y-105854512D01*
X111168648Y-105850499D01*
X111021034Y-105743251D01*
X111021029Y-105743248D01*
X110848107Y-105666257D01*
X110848102Y-105666255D01*
X110702301Y-105635265D01*
X110662946Y-105626900D01*
X110473654Y-105626900D01*
X110441197Y-105633798D01*
X110288497Y-105666255D01*
X110288492Y-105666257D01*
X110115570Y-105743248D01*
X110115565Y-105743251D01*
X109962429Y-105854511D01*
X109835766Y-105995185D01*
X109741121Y-106159115D01*
X109741118Y-106159122D01*
X109682627Y-106339140D01*
X109682626Y-106339144D01*
X109662840Y-106527400D01*
X109682626Y-106715656D01*
X109682627Y-106715659D01*
X109741118Y-106895677D01*
X109741121Y-106895684D01*
X109767860Y-106941998D01*
X109768728Y-106943500D01*
X109785201Y-107011400D01*
X109762349Y-107077427D01*
X109707427Y-107120618D01*
X109661341Y-107129500D01*
X109623654Y-107129500D01*
X109591197Y-107136398D01*
X109438497Y-107168855D01*
X109438492Y-107168857D01*
X109265570Y-107245848D01*
X109265565Y-107245851D01*
X109112429Y-107357111D01*
X108985766Y-107497785D01*
X108891121Y-107661715D01*
X108891118Y-107661722D01*
X108832627Y-107841740D01*
X108832626Y-107841744D01*
X108812840Y-108030000D01*
X102219603Y-108030000D01*
X102288779Y-107910184D01*
X102347274Y-107730156D01*
X102367060Y-107541900D01*
X102347274Y-107353644D01*
X102288779Y-107173616D01*
X102194133Y-107009684D01*
X102067471Y-106869012D01*
X102060818Y-106864178D01*
X101914334Y-106757751D01*
X101914329Y-106757748D01*
X101741407Y-106680757D01*
X101741402Y-106680755D01*
X101595601Y-106649765D01*
X101556246Y-106641400D01*
X101366954Y-106641400D01*
X101334497Y-106648298D01*
X101181797Y-106680755D01*
X101025199Y-106750478D01*
X100955949Y-106759762D01*
X100892673Y-106730134D01*
X100855460Y-106670999D01*
X100851445Y-106650170D01*
X100848374Y-106620944D01*
X100789879Y-106440916D01*
X100695233Y-106276984D01*
X100568571Y-106136312D01*
X100568570Y-106136311D01*
X100415434Y-106025051D01*
X100415429Y-106025048D01*
X100242507Y-105948057D01*
X100242502Y-105948055D01*
X100096701Y-105917065D01*
X100057346Y-105908700D01*
X99868054Y-105908700D01*
X99835597Y-105915598D01*
X99682897Y-105948055D01*
X99682892Y-105948057D01*
X99509970Y-106025048D01*
X99509965Y-106025051D01*
X99356829Y-106136311D01*
X99230166Y-106276985D01*
X99135521Y-106440915D01*
X99135518Y-106440922D01*
X99100898Y-106547473D01*
X99077026Y-106620944D01*
X99057240Y-106809200D01*
X98770746Y-106809200D01*
X98785674Y-106763256D01*
X98805460Y-106575000D01*
X98785674Y-106386744D01*
X98727179Y-106206716D01*
X98632533Y-106042784D01*
X98505871Y-105902112D01*
X98505870Y-105902111D01*
X98352734Y-105790851D01*
X98352729Y-105790848D01*
X98179807Y-105713857D01*
X98179802Y-105713855D01*
X98034001Y-105682865D01*
X97994646Y-105674500D01*
X97805354Y-105674500D01*
X97772897Y-105681398D01*
X97620197Y-105713855D01*
X97620192Y-105713857D01*
X97447270Y-105790848D01*
X97447265Y-105790851D01*
X97294129Y-105902111D01*
X97167466Y-106042785D01*
X97072821Y-106206715D01*
X97072818Y-106206722D01*
X97014327Y-106386740D01*
X97014326Y-106386744D01*
X96994540Y-106575000D01*
X52128013Y-106575000D01*
X52132246Y-103130000D01*
X63962840Y-103130000D01*
X63982626Y-103318256D01*
X63982627Y-103318259D01*
X64041118Y-103498277D01*
X64041121Y-103498284D01*
X64135767Y-103662216D01*
X64262429Y-103802888D01*
X64415565Y-103914148D01*
X64415570Y-103914151D01*
X64588492Y-103991142D01*
X64588497Y-103991144D01*
X64773654Y-104030500D01*
X64773655Y-104030500D01*
X64962944Y-104030500D01*
X64962946Y-104030500D01*
X65148103Y-103991144D01*
X65240551Y-103949983D01*
X74699500Y-103949983D01*
X74699500Y-105150001D01*
X74699501Y-105150018D01*
X74710000Y-105252796D01*
X74710001Y-105252799D01*
X74755328Y-105389586D01*
X74765186Y-105419334D01*
X74857288Y-105568656D01*
X74981344Y-105692712D01*
X75130666Y-105784814D01*
X75297203Y-105839999D01*
X75399991Y-105850500D01*
X76600008Y-105850499D01*
X76702797Y-105839999D01*
X76869334Y-105784814D01*
X77018656Y-105692712D01*
X77086369Y-105624999D01*
X113712641Y-105624999D01*
X113712641Y-105625000D01*
X113733236Y-105860403D01*
X113733238Y-105860413D01*
X113794394Y-106088655D01*
X113794396Y-106088659D01*
X113794397Y-106088663D01*
X113827250Y-106159116D01*
X113894265Y-106302830D01*
X113894267Y-106302834D01*
X114029801Y-106496395D01*
X114029806Y-106496402D01*
X114196897Y-106663493D01*
X114196903Y-106663498D01*
X114382458Y-106793425D01*
X114426083Y-106848002D01*
X114433277Y-106917500D01*
X114401754Y-106979855D01*
X114382458Y-106996575D01*
X114196897Y-107126505D01*
X114029805Y-107293597D01*
X113894265Y-107487169D01*
X113894264Y-107487171D01*
X113794398Y-107701335D01*
X113794394Y-107701344D01*
X113733238Y-107929586D01*
X113733236Y-107929596D01*
X113712641Y-108164999D01*
X113712641Y-108165000D01*
X113733236Y-108400403D01*
X113733238Y-108400413D01*
X113794394Y-108628655D01*
X113794396Y-108628659D01*
X113794397Y-108628663D01*
X113869097Y-108788857D01*
X113894265Y-108842830D01*
X113894267Y-108842834D01*
X113998145Y-108991186D01*
X114029801Y-109036396D01*
X114029806Y-109036402D01*
X114151730Y-109158326D01*
X114185215Y-109219649D01*
X114180231Y-109289341D01*
X114138359Y-109345274D01*
X114107383Y-109362189D01*
X113975969Y-109411203D01*
X113975964Y-109411206D01*
X113860755Y-109497452D01*
X113860752Y-109497455D01*
X113774506Y-109612664D01*
X113774502Y-109612671D01*
X113724208Y-109747517D01*
X113721915Y-109768851D01*
X113717801Y-109807123D01*
X113717800Y-109807135D01*
X113717800Y-111602870D01*
X113717801Y-111602876D01*
X113724208Y-111662483D01*
X113774502Y-111797328D01*
X113774506Y-111797335D01*
X113860752Y-111912544D01*
X113860755Y-111912547D01*
X113975964Y-111998793D01*
X113975971Y-111998797D01*
X114110817Y-112049091D01*
X114110816Y-112049091D01*
X114117744Y-112049835D01*
X114170427Y-112055500D01*
X115966172Y-112055499D01*
X116025783Y-112049091D01*
X116160631Y-111998796D01*
X116275846Y-111912546D01*
X116362096Y-111797331D01*
X116412391Y-111662483D01*
X116418800Y-111602873D01*
X116418799Y-109807128D01*
X116412391Y-109747517D01*
X116403571Y-109723870D01*
X116362097Y-109612671D01*
X116362093Y-109612664D01*
X116275847Y-109497455D01*
X116275844Y-109497452D01*
X116160635Y-109411206D01*
X116160628Y-109411202D01*
X116029217Y-109362189D01*
X115973283Y-109320318D01*
X115948866Y-109254853D01*
X115963718Y-109186580D01*
X115984863Y-109158332D01*
X116106795Y-109036401D01*
X116242335Y-108842830D01*
X116342203Y-108628663D01*
X116403363Y-108400408D01*
X116423959Y-108165000D01*
X116403363Y-107929592D01*
X116342203Y-107701337D01*
X116242335Y-107487171D01*
X116207053Y-107436782D01*
X116167294Y-107380000D01*
X132044659Y-107380000D01*
X132063975Y-107576129D01*
X132063976Y-107576132D01*
X132107756Y-107720456D01*
X132121188Y-107764733D01*
X132214086Y-107938532D01*
X132217473Y-107943601D01*
X132215836Y-107944694D01*
X132239596Y-108000663D01*
X132227795Y-108069529D01*
X132217109Y-108086156D01*
X132217473Y-108086399D01*
X132214086Y-108091467D01*
X132121188Y-108265266D01*
X132063975Y-108453870D01*
X132044659Y-108650000D01*
X132063975Y-108846129D01*
X132063976Y-108846132D01*
X132102226Y-108972226D01*
X132121188Y-109034733D01*
X132214086Y-109208532D01*
X132217473Y-109213601D01*
X132215836Y-109214694D01*
X132239596Y-109270663D01*
X132227795Y-109339529D01*
X132217109Y-109356156D01*
X132217473Y-109356399D01*
X132214086Y-109361467D01*
X132121188Y-109535266D01*
X132063975Y-109723870D01*
X132044659Y-109920000D01*
X132063975Y-110116129D01*
X132121188Y-110304733D01*
X132214086Y-110478532D01*
X132217473Y-110483601D01*
X132215836Y-110484694D01*
X132239596Y-110540663D01*
X132227795Y-110609529D01*
X132217109Y-110626156D01*
X132217473Y-110626399D01*
X132214086Y-110631467D01*
X132121188Y-110805266D01*
X132063975Y-110993870D01*
X132044659Y-111190000D01*
X132063975Y-111386129D01*
X132063976Y-111386132D01*
X132107756Y-111530456D01*
X132121188Y-111574733D01*
X132214086Y-111748532D01*
X132217473Y-111753601D01*
X132215836Y-111754694D01*
X132239596Y-111810663D01*
X132227795Y-111879529D01*
X132217109Y-111896156D01*
X132217473Y-111896399D01*
X132214086Y-111901467D01*
X132121188Y-112075266D01*
X132063975Y-112263870D01*
X132044659Y-112460000D01*
X132063975Y-112656129D01*
X132064669Y-112658416D01*
X132107210Y-112798656D01*
X132121188Y-112844733D01*
X132214086Y-113018532D01*
X132217473Y-113023601D01*
X132215836Y-113024694D01*
X132239596Y-113080663D01*
X132227795Y-113149529D01*
X132217109Y-113166156D01*
X132217473Y-113166399D01*
X132214086Y-113171467D01*
X132121188Y-113345266D01*
X132063975Y-113533870D01*
X132044659Y-113730000D01*
X132063975Y-113926129D01*
X132121188Y-114114733D01*
X132214086Y-114288532D01*
X132217473Y-114293601D01*
X132215836Y-114294694D01*
X132239596Y-114350663D01*
X132227795Y-114419529D01*
X132217109Y-114436156D01*
X132217473Y-114436399D01*
X132214086Y-114441467D01*
X132121188Y-114615266D01*
X132063975Y-114803870D01*
X132044659Y-115000000D01*
X132063975Y-115196129D01*
X132063976Y-115196132D01*
X132102006Y-115321501D01*
X132121188Y-115384733D01*
X132214086Y-115558532D01*
X132214090Y-115558539D01*
X132339116Y-115710883D01*
X132491460Y-115835909D01*
X132491467Y-115835913D01*
X132665266Y-115928811D01*
X132665269Y-115928811D01*
X132665273Y-115928814D01*
X132853868Y-115986024D01*
X133050000Y-116005341D01*
X133246132Y-115986024D01*
X133434727Y-115928814D01*
X133608538Y-115835910D01*
X133608544Y-115835904D01*
X133613607Y-115832523D01*
X133614703Y-115834164D01*
X133670639Y-115810405D01*
X133739507Y-115822194D01*
X133756148Y-115832888D01*
X133756393Y-115832523D01*
X133761458Y-115835907D01*
X133761462Y-115835910D01*
X133935273Y-115928814D01*
X134123868Y-115986024D01*
X134320000Y-116005341D01*
X134516132Y-115986024D01*
X134704727Y-115928814D01*
X134878538Y-115835910D01*
X135030883Y-115710883D01*
X135155910Y-115558538D01*
X135248814Y-115384727D01*
X135306024Y-115196132D01*
X135325341Y-115000000D01*
X135306024Y-114803868D01*
X135289683Y-114750000D01*
X136544540Y-114750000D01*
X136564326Y-114938256D01*
X136564327Y-114938259D01*
X136622818Y-115118277D01*
X136622821Y-115118284D01*
X136717467Y-115282216D01*
X136844129Y-115422888D01*
X136997265Y-115534148D01*
X136997270Y-115534151D01*
X137170192Y-115611142D01*
X137170197Y-115611144D01*
X137355354Y-115650500D01*
X137355355Y-115650500D01*
X137544644Y-115650500D01*
X137544646Y-115650500D01*
X137729803Y-115611144D01*
X137902730Y-115534151D01*
X138055871Y-115422888D01*
X138182533Y-115282216D01*
X138277179Y-115118284D01*
X138335674Y-114938256D01*
X138355460Y-114750000D01*
X138335674Y-114561744D01*
X138277179Y-114381716D01*
X138182533Y-114217784D01*
X138055871Y-114077112D01*
X138055870Y-114077111D01*
X137902734Y-113965851D01*
X137902729Y-113965848D01*
X137729807Y-113888857D01*
X137729802Y-113888855D01*
X137580453Y-113857111D01*
X137544646Y-113849500D01*
X137355354Y-113849500D01*
X137322897Y-113856398D01*
X137170197Y-113888855D01*
X137170192Y-113888857D01*
X136997270Y-113965848D01*
X136997265Y-113965851D01*
X136844129Y-114077111D01*
X136717466Y-114217785D01*
X136622821Y-114381715D01*
X136622818Y-114381722D01*
X136564327Y-114561740D01*
X136564326Y-114561744D01*
X136544540Y-114750000D01*
X135289683Y-114750000D01*
X135248814Y-114615273D01*
X135155910Y-114441462D01*
X135155907Y-114441458D01*
X135152523Y-114436393D01*
X135154164Y-114435296D01*
X135130405Y-114379361D01*
X135142194Y-114310493D01*
X135152888Y-114293851D01*
X135152523Y-114293607D01*
X135155904Y-114288544D01*
X135155910Y-114288538D01*
X135248814Y-114114727D01*
X135306024Y-113926132D01*
X135325341Y-113730000D01*
X135306024Y-113533868D01*
X135248814Y-113345273D01*
X135155910Y-113171462D01*
X135155907Y-113171458D01*
X135152523Y-113166393D01*
X135154164Y-113165296D01*
X135130405Y-113109361D01*
X135142194Y-113040493D01*
X135152888Y-113023851D01*
X135152523Y-113023607D01*
X135155904Y-113018544D01*
X135155910Y-113018538D01*
X135248814Y-112844727D01*
X135306024Y-112656132D01*
X135325341Y-112460000D01*
X135306024Y-112263868D01*
X135248814Y-112075273D01*
X135155910Y-111901462D01*
X135155907Y-111901458D01*
X135152523Y-111896393D01*
X135154164Y-111895296D01*
X135130405Y-111839361D01*
X135137143Y-111800000D01*
X136344540Y-111800000D01*
X136364326Y-111988256D01*
X136364327Y-111988259D01*
X136422818Y-112168277D01*
X136422821Y-112168284D01*
X136517467Y-112332216D01*
X136589071Y-112411740D01*
X136644129Y-112472888D01*
X136797265Y-112584148D01*
X136797270Y-112584151D01*
X136970192Y-112661142D01*
X136970197Y-112661144D01*
X137155354Y-112700500D01*
X137155355Y-112700500D01*
X137344644Y-112700500D01*
X137344646Y-112700500D01*
X137529803Y-112661144D01*
X137702730Y-112584151D01*
X137855871Y-112472888D01*
X137982533Y-112332216D01*
X138077179Y-112168284D01*
X138135674Y-111988256D01*
X138155460Y-111800000D01*
X138135674Y-111611744D01*
X138077179Y-111431716D01*
X137982533Y-111267784D01*
X137855871Y-111127112D01*
X137855870Y-111127111D01*
X137702734Y-111015851D01*
X137702729Y-111015848D01*
X137529807Y-110938857D01*
X137529802Y-110938855D01*
X137384001Y-110907865D01*
X137344646Y-110899500D01*
X137155354Y-110899500D01*
X137122897Y-110906398D01*
X136970197Y-110938855D01*
X136970192Y-110938857D01*
X136797270Y-111015848D01*
X136797265Y-111015851D01*
X136644129Y-111127111D01*
X136517466Y-111267785D01*
X136422821Y-111431715D01*
X136422818Y-111431722D01*
X136365721Y-111607451D01*
X136364326Y-111611744D01*
X136344540Y-111800000D01*
X135137143Y-111800000D01*
X135142194Y-111770493D01*
X135152888Y-111753851D01*
X135152523Y-111753607D01*
X135155904Y-111748544D01*
X135155910Y-111748538D01*
X135248814Y-111574727D01*
X135306024Y-111386132D01*
X135325341Y-111190000D01*
X135306024Y-110993868D01*
X135248814Y-110805273D01*
X135248394Y-110804488D01*
X135203565Y-110720618D01*
X135155910Y-110631462D01*
X135155907Y-110631458D01*
X135152523Y-110626393D01*
X135154164Y-110625296D01*
X135130405Y-110569361D01*
X135142194Y-110500493D01*
X135152888Y-110483851D01*
X135152523Y-110483607D01*
X135155904Y-110478544D01*
X135155910Y-110478538D01*
X135248814Y-110304727D01*
X135306024Y-110116132D01*
X135325341Y-109920000D01*
X135306024Y-109723868D01*
X135283616Y-109650000D01*
X136494540Y-109650000D01*
X136514326Y-109838256D01*
X136514327Y-109838259D01*
X136572818Y-110018277D01*
X136572821Y-110018284D01*
X136667467Y-110182216D01*
X136777782Y-110304733D01*
X136794129Y-110322888D01*
X136947265Y-110434148D01*
X136947270Y-110434151D01*
X137120192Y-110511142D01*
X137120197Y-110511144D01*
X137305354Y-110550500D01*
X137305355Y-110550500D01*
X137494644Y-110550500D01*
X137494646Y-110550500D01*
X137679803Y-110511144D01*
X137852730Y-110434151D01*
X138005871Y-110322888D01*
X138132533Y-110182216D01*
X138227179Y-110018284D01*
X138285674Y-109838256D01*
X138305460Y-109650000D01*
X138285674Y-109461744D01*
X138227179Y-109281716D01*
X138132533Y-109117784D01*
X138005871Y-108977112D01*
X138005870Y-108977111D01*
X137852734Y-108865851D01*
X137852729Y-108865848D01*
X137679807Y-108788857D01*
X137679802Y-108788855D01*
X137534001Y-108757865D01*
X137494646Y-108749500D01*
X137305354Y-108749500D01*
X137272897Y-108756398D01*
X137120197Y-108788855D01*
X137120192Y-108788857D01*
X136947270Y-108865848D01*
X136947265Y-108865851D01*
X136794129Y-108977111D01*
X136667466Y-109117785D01*
X136572821Y-109281715D01*
X136572818Y-109281722D01*
X136515311Y-109458711D01*
X136514326Y-109461744D01*
X136494540Y-109650000D01*
X135283616Y-109650000D01*
X135248814Y-109535273D01*
X135155910Y-109361462D01*
X135155906Y-109361457D01*
X135152526Y-109356399D01*
X135154044Y-109355384D01*
X135130081Y-109298962D01*
X135141872Y-109230094D01*
X135152492Y-109213574D01*
X135152111Y-109213320D01*
X135155497Y-109208252D01*
X135248348Y-109034539D01*
X135305531Y-108846032D01*
X135324838Y-108650000D01*
X135305531Y-108453967D01*
X135248348Y-108265460D01*
X135155496Y-108091746D01*
X135152110Y-108086678D01*
X135153784Y-108085559D01*
X135130081Y-108029746D01*
X135141874Y-107960879D01*
X135152839Y-107943818D01*
X135152523Y-107943607D01*
X135155904Y-107938544D01*
X135155910Y-107938538D01*
X135248814Y-107764727D01*
X135306024Y-107576132D01*
X135325341Y-107380000D01*
X135306024Y-107183868D01*
X135248814Y-106995273D01*
X135248811Y-106995269D01*
X135248811Y-106995266D01*
X135155913Y-106821467D01*
X135155909Y-106821460D01*
X135030883Y-106669116D01*
X134878539Y-106544090D01*
X134878532Y-106544086D01*
X134704733Y-106451188D01*
X134704727Y-106451186D01*
X134516132Y-106393976D01*
X134516129Y-106393975D01*
X134320000Y-106374659D01*
X134123870Y-106393975D01*
X133935266Y-106451188D01*
X133761467Y-106544086D01*
X133756399Y-106547473D01*
X133755305Y-106545836D01*
X133699337Y-106569596D01*
X133630471Y-106557795D01*
X133613843Y-106547109D01*
X133613601Y-106547473D01*
X133608532Y-106544086D01*
X133434733Y-106451188D01*
X133434727Y-106451186D01*
X133246132Y-106393976D01*
X133246129Y-106393975D01*
X133050000Y-106374659D01*
X132853870Y-106393975D01*
X132665266Y-106451188D01*
X132491467Y-106544086D01*
X132491460Y-106544090D01*
X132339116Y-106669116D01*
X132214090Y-106821460D01*
X132214086Y-106821467D01*
X132121188Y-106995266D01*
X132063975Y-107183870D01*
X132044659Y-107380000D01*
X116167294Y-107380000D01*
X116106794Y-107293597D01*
X115939702Y-107126506D01*
X115939696Y-107126501D01*
X115754142Y-106996575D01*
X115710517Y-106941998D01*
X115703323Y-106872500D01*
X115734846Y-106810145D01*
X115754142Y-106793425D01*
X115797228Y-106763256D01*
X115939701Y-106663495D01*
X116106795Y-106496401D01*
X116242335Y-106302830D01*
X116342203Y-106088663D01*
X116403363Y-105860408D01*
X116423959Y-105625000D01*
X116403363Y-105389592D01*
X116342203Y-105161337D01*
X116242335Y-104947171D01*
X116106795Y-104753599D01*
X116106794Y-104753597D01*
X115939702Y-104586506D01*
X115939695Y-104586501D01*
X115746134Y-104450967D01*
X115746130Y-104450965D01*
X115746128Y-104450964D01*
X115531963Y-104351097D01*
X115531959Y-104351096D01*
X115531955Y-104351094D01*
X115303713Y-104289938D01*
X115303703Y-104289936D01*
X115068301Y-104269341D01*
X115068299Y-104269341D01*
X114832896Y-104289936D01*
X114832886Y-104289938D01*
X114604644Y-104351094D01*
X114604635Y-104351098D01*
X114390471Y-104450964D01*
X114390469Y-104450965D01*
X114196897Y-104586505D01*
X114029805Y-104753597D01*
X113894265Y-104947169D01*
X113894264Y-104947171D01*
X113794398Y-105161335D01*
X113794394Y-105161344D01*
X113733238Y-105389586D01*
X113733236Y-105389596D01*
X113712641Y-105624999D01*
X77086369Y-105624999D01*
X77142712Y-105568656D01*
X77234814Y-105419334D01*
X77289999Y-105252797D01*
X77300500Y-105150009D01*
X77300499Y-103949992D01*
X77296837Y-103914148D01*
X77289999Y-103847203D01*
X77289998Y-103847200D01*
X77275314Y-103802888D01*
X77234814Y-103680666D01*
X77142712Y-103531344D01*
X77018656Y-103407288D01*
X76882395Y-103323242D01*
X76869336Y-103315187D01*
X76869331Y-103315185D01*
X76867862Y-103314698D01*
X76702797Y-103260001D01*
X76702795Y-103260000D01*
X76600010Y-103249500D01*
X75399998Y-103249500D01*
X75399981Y-103249501D01*
X75297203Y-103260000D01*
X75297200Y-103260001D01*
X75130668Y-103315185D01*
X75130663Y-103315187D01*
X74981342Y-103407289D01*
X74857289Y-103531342D01*
X74765187Y-103680663D01*
X74765186Y-103680666D01*
X74710001Y-103847203D01*
X74710001Y-103847204D01*
X74710000Y-103847204D01*
X74699500Y-103949983D01*
X65240551Y-103949983D01*
X65321030Y-103914151D01*
X65474171Y-103802888D01*
X65600833Y-103662216D01*
X65695479Y-103498284D01*
X65753974Y-103318256D01*
X65773760Y-103130000D01*
X65753974Y-102941744D01*
X65695479Y-102761716D01*
X65685424Y-102744300D01*
X109388840Y-102744300D01*
X109408626Y-102932556D01*
X109408627Y-102932559D01*
X109467118Y-103112577D01*
X109467121Y-103112584D01*
X109561767Y-103276516D01*
X109639278Y-103362600D01*
X109688429Y-103417188D01*
X109841565Y-103528448D01*
X109841570Y-103528451D01*
X110014492Y-103605442D01*
X110014497Y-103605444D01*
X110199654Y-103644800D01*
X110199655Y-103644800D01*
X110388944Y-103644800D01*
X110388946Y-103644800D01*
X110574103Y-103605444D01*
X110747030Y-103528451D01*
X110900171Y-103417188D01*
X111026833Y-103276516D01*
X111121479Y-103112584D01*
X111126276Y-103097821D01*
X111165713Y-103040146D01*
X111230071Y-103012947D01*
X111298918Y-103024861D01*
X111336357Y-103053167D01*
X111410029Y-103134988D01*
X111563165Y-103246248D01*
X111563170Y-103246251D01*
X111736092Y-103323242D01*
X111736097Y-103323244D01*
X111921254Y-103362600D01*
X111921255Y-103362600D01*
X112110544Y-103362600D01*
X112110546Y-103362600D01*
X112295703Y-103323244D01*
X112468630Y-103246251D01*
X112621771Y-103134988D01*
X112748433Y-102994316D01*
X112843079Y-102830384D01*
X112901574Y-102650356D01*
X112921360Y-102462100D01*
X112901574Y-102273844D01*
X112843079Y-102093816D01*
X112748433Y-101929884D01*
X112621771Y-101789212D01*
X112621770Y-101789211D01*
X112468634Y-101677951D01*
X112468629Y-101677948D01*
X112295707Y-101600957D01*
X112295702Y-101600955D01*
X112149901Y-101569965D01*
X112110546Y-101561600D01*
X111921254Y-101561600D01*
X111888797Y-101568498D01*
X111736097Y-101600955D01*
X111736092Y-101600957D01*
X111563170Y-101677948D01*
X111563165Y-101677951D01*
X111410029Y-101789211D01*
X111283366Y-101929885D01*
X111188721Y-102093815D01*
X111188717Y-102093825D01*
X111183921Y-102108584D01*
X111144481Y-102166258D01*
X111080121Y-102193452D01*
X111011275Y-102181535D01*
X110973842Y-102153232D01*
X110942368Y-102118277D01*
X110900171Y-102071412D01*
X110858508Y-102041142D01*
X110747034Y-101960151D01*
X110747029Y-101960148D01*
X110574107Y-101883157D01*
X110574102Y-101883155D01*
X110428301Y-101852165D01*
X110388946Y-101843800D01*
X110199654Y-101843800D01*
X110167197Y-101850698D01*
X110014497Y-101883155D01*
X110014492Y-101883157D01*
X109841570Y-101960148D01*
X109841565Y-101960151D01*
X109688429Y-102071411D01*
X109561766Y-102212085D01*
X109467121Y-102376015D01*
X109467118Y-102376022D01*
X109408627Y-102556040D01*
X109408626Y-102556044D01*
X109388840Y-102744300D01*
X65685424Y-102744300D01*
X65600833Y-102597784D01*
X65474171Y-102457112D01*
X65427066Y-102422888D01*
X65321034Y-102345851D01*
X65321029Y-102345848D01*
X65148107Y-102268857D01*
X65148102Y-102268855D01*
X65002301Y-102237865D01*
X64962946Y-102229500D01*
X64773654Y-102229500D01*
X64741197Y-102236398D01*
X64588497Y-102268855D01*
X64588492Y-102268857D01*
X64415570Y-102345848D01*
X64415565Y-102345851D01*
X64262429Y-102457111D01*
X64135766Y-102597785D01*
X64041121Y-102761715D01*
X64041118Y-102761722D01*
X63985611Y-102932556D01*
X63982626Y-102941744D01*
X63962840Y-103130000D01*
X52132246Y-103130000D01*
X52134642Y-101180000D01*
X91212840Y-101180000D01*
X91232626Y-101368256D01*
X91232627Y-101368259D01*
X91291118Y-101548277D01*
X91291121Y-101548284D01*
X91385767Y-101712216D01*
X91455094Y-101789211D01*
X91512429Y-101852888D01*
X91665565Y-101964148D01*
X91665570Y-101964151D01*
X91838492Y-102041142D01*
X91838497Y-102041144D01*
X92023654Y-102080500D01*
X92023655Y-102080500D01*
X92212944Y-102080500D01*
X92212946Y-102080500D01*
X92398103Y-102041144D01*
X92571030Y-101964151D01*
X92724171Y-101852888D01*
X92816812Y-101750000D01*
X99444540Y-101750000D01*
X99464326Y-101938256D01*
X99464327Y-101938259D01*
X99522818Y-102118277D01*
X99522821Y-102118284D01*
X99617467Y-102282216D01*
X99701925Y-102376016D01*
X99744129Y-102422888D01*
X99897265Y-102534148D01*
X99897270Y-102534151D01*
X100070192Y-102611142D01*
X100070197Y-102611144D01*
X100255354Y-102650500D01*
X100255355Y-102650500D01*
X100444644Y-102650500D01*
X100444646Y-102650500D01*
X100629803Y-102611144D01*
X100802730Y-102534151D01*
X100955871Y-102422888D01*
X101082533Y-102282216D01*
X101177179Y-102118284D01*
X101235674Y-101938256D01*
X101255460Y-101750000D01*
X101235674Y-101561744D01*
X101177179Y-101381716D01*
X101082533Y-101217784D01*
X100955871Y-101077112D01*
X100955870Y-101077111D01*
X100802734Y-100965851D01*
X100802729Y-100965848D01*
X100629807Y-100888857D01*
X100629802Y-100888855D01*
X100484001Y-100857865D01*
X100444646Y-100849500D01*
X100255354Y-100849500D01*
X100222897Y-100856398D01*
X100070197Y-100888855D01*
X100070192Y-100888857D01*
X99897270Y-100965848D01*
X99897265Y-100965851D01*
X99744129Y-101077111D01*
X99617466Y-101217785D01*
X99522821Y-101381715D01*
X99522818Y-101381722D01*
X99464327Y-101561740D01*
X99464326Y-101561744D01*
X99444540Y-101750000D01*
X92816812Y-101750000D01*
X92850833Y-101712216D01*
X92945479Y-101548284D01*
X93003974Y-101368256D01*
X93023760Y-101180000D01*
X93003974Y-100991744D01*
X92945479Y-100811716D01*
X92850833Y-100647784D01*
X92724171Y-100507112D01*
X92724170Y-100507111D01*
X92571034Y-100395851D01*
X92571029Y-100395848D01*
X92398107Y-100318857D01*
X92398102Y-100318855D01*
X92238812Y-100284998D01*
X92212946Y-100279500D01*
X92023654Y-100279500D01*
X91997788Y-100284998D01*
X91838497Y-100318855D01*
X91838492Y-100318857D01*
X91665570Y-100395848D01*
X91665565Y-100395851D01*
X91512429Y-100507111D01*
X91385766Y-100647785D01*
X91291121Y-100811715D01*
X91291118Y-100811722D01*
X91241039Y-100965851D01*
X91232626Y-100991744D01*
X91212840Y-101180000D01*
X52134642Y-101180000D01*
X52138942Y-97679977D01*
X54352800Y-97679977D01*
X54352800Y-97880022D01*
X54391823Y-98076203D01*
X54391826Y-98076215D01*
X54468371Y-98261013D01*
X54468378Y-98261026D01*
X54543029Y-98372749D01*
X54563907Y-98439427D01*
X54545422Y-98506807D01*
X54527612Y-98529317D01*
X54510593Y-98546337D01*
X54510589Y-98546342D01*
X54510588Y-98546344D01*
X54487269Y-98584151D01*
X54418487Y-98695663D01*
X54418485Y-98695668D01*
X54402275Y-98744586D01*
X54363301Y-98862203D01*
X54363301Y-98862204D01*
X54363300Y-98862204D01*
X54352800Y-98964983D01*
X54352800Y-99595001D01*
X54352801Y-99595019D01*
X54363300Y-99697796D01*
X54363301Y-99697799D01*
X54418485Y-99864331D01*
X54418487Y-99864336D01*
X54446615Y-99909939D01*
X54510588Y-100013656D01*
X54634644Y-100137712D01*
X54783966Y-100229814D01*
X54950503Y-100284999D01*
X55053291Y-100295500D01*
X56383308Y-100295499D01*
X56486097Y-100284999D01*
X56652634Y-100229814D01*
X56801956Y-100137712D01*
X56926012Y-100013656D01*
X57018114Y-99864334D01*
X57073299Y-99697797D01*
X57083800Y-99595009D01*
X57083799Y-98979999D01*
X98457641Y-98979999D01*
X98457641Y-98980000D01*
X98478236Y-99215403D01*
X98478238Y-99215413D01*
X98539394Y-99443655D01*
X98539396Y-99443659D01*
X98539397Y-99443663D01*
X98543300Y-99452032D01*
X98639265Y-99657830D01*
X98639267Y-99657834D01*
X98747581Y-99812521D01*
X98774805Y-99851401D01*
X98941899Y-100018495D01*
X99038684Y-100086265D01*
X99135465Y-100154032D01*
X99135467Y-100154033D01*
X99135470Y-100154035D01*
X99349637Y-100253903D01*
X99577892Y-100315063D01*
X99754334Y-100330500D01*
X99813299Y-100335659D01*
X99813300Y-100335659D01*
X99813301Y-100335659D01*
X99872266Y-100330500D01*
X100048708Y-100315063D01*
X100276963Y-100253903D01*
X100491130Y-100154035D01*
X100684701Y-100018495D01*
X100851795Y-99851401D01*
X100981725Y-99665842D01*
X101036302Y-99622217D01*
X101105800Y-99615023D01*
X101168155Y-99646546D01*
X101184875Y-99665842D01*
X101314800Y-99851395D01*
X101314805Y-99851401D01*
X101481899Y-100018495D01*
X101578684Y-100086265D01*
X101675465Y-100154032D01*
X101675467Y-100154033D01*
X101675470Y-100154035D01*
X101889637Y-100253903D01*
X102117892Y-100315063D01*
X102294334Y-100330500D01*
X102353299Y-100335659D01*
X102353300Y-100335659D01*
X102353301Y-100335659D01*
X102412266Y-100330500D01*
X102588708Y-100315063D01*
X102816963Y-100253903D01*
X103031130Y-100154035D01*
X103224701Y-100018495D01*
X103346629Y-99896566D01*
X103407948Y-99863084D01*
X103477640Y-99868068D01*
X103533574Y-99909939D01*
X103550489Y-99940917D01*
X103599502Y-100072328D01*
X103599506Y-100072335D01*
X103685752Y-100187544D01*
X103685755Y-100187547D01*
X103800964Y-100273793D01*
X103800971Y-100273797D01*
X103935817Y-100324091D01*
X103935816Y-100324091D01*
X103942744Y-100324835D01*
X103995427Y-100330500D01*
X105791172Y-100330499D01*
X105850783Y-100324091D01*
X105985631Y-100273796D01*
X106100846Y-100187546D01*
X106187096Y-100072331D01*
X106237391Y-99937483D01*
X106243800Y-99877873D01*
X106243799Y-98082128D01*
X106237391Y-98022517D01*
X106236110Y-98019083D01*
X106187097Y-97887671D01*
X106187093Y-97887664D01*
X106100847Y-97772455D01*
X106100844Y-97772452D01*
X105985635Y-97686206D01*
X105985628Y-97686202D01*
X105850782Y-97635908D01*
X105850783Y-97635908D01*
X105791183Y-97629501D01*
X105791181Y-97629500D01*
X105791173Y-97629500D01*
X105791164Y-97629500D01*
X103995429Y-97629500D01*
X103995423Y-97629501D01*
X103935816Y-97635908D01*
X103800971Y-97686202D01*
X103800964Y-97686206D01*
X103685755Y-97772452D01*
X103685752Y-97772455D01*
X103599506Y-97887664D01*
X103599503Y-97887669D01*
X103550489Y-98019083D01*
X103508617Y-98075016D01*
X103443153Y-98099433D01*
X103374880Y-98084581D01*
X103346626Y-98063430D01*
X103224702Y-97941506D01*
X103224695Y-97941501D01*
X103217404Y-97936396D01*
X103147818Y-97887671D01*
X103031134Y-97805967D01*
X103031130Y-97805965D01*
X103031128Y-97805964D01*
X102816963Y-97706097D01*
X102816959Y-97706096D01*
X102816955Y-97706094D01*
X102588713Y-97644938D01*
X102588703Y-97644936D01*
X102353301Y-97624341D01*
X102353299Y-97624341D01*
X102117896Y-97644936D01*
X102117886Y-97644938D01*
X101889644Y-97706094D01*
X101889635Y-97706098D01*
X101675471Y-97805964D01*
X101675469Y-97805965D01*
X101481897Y-97941505D01*
X101314805Y-98108597D01*
X101184875Y-98294158D01*
X101130298Y-98337783D01*
X101060800Y-98344977D01*
X100998445Y-98313454D01*
X100981725Y-98294158D01*
X100851794Y-98108597D01*
X100684702Y-97941506D01*
X100684695Y-97941501D01*
X100677404Y-97936396D01*
X100607818Y-97887671D01*
X100491134Y-97805967D01*
X100491130Y-97805965D01*
X100491128Y-97805964D01*
X100276963Y-97706097D01*
X100276959Y-97706096D01*
X100276955Y-97706094D01*
X100048713Y-97644938D01*
X100048703Y-97644936D01*
X99813301Y-97624341D01*
X99813299Y-97624341D01*
X99577896Y-97644936D01*
X99577886Y-97644938D01*
X99349644Y-97706094D01*
X99349635Y-97706098D01*
X99135471Y-97805964D01*
X99135469Y-97805965D01*
X98941897Y-97941505D01*
X98774805Y-98108597D01*
X98639265Y-98302169D01*
X98639264Y-98302171D01*
X98539398Y-98516335D01*
X98539394Y-98516344D01*
X98478238Y-98744586D01*
X98478236Y-98744596D01*
X98457641Y-98979999D01*
X57083799Y-98979999D01*
X57083799Y-98964992D01*
X57073299Y-98862203D01*
X57018114Y-98695666D01*
X56926012Y-98546344D01*
X56908990Y-98529322D01*
X56875505Y-98467999D01*
X56880489Y-98398307D01*
X56893569Y-98372750D01*
X56893570Y-98372749D01*
X56968225Y-98261020D01*
X57044775Y-98076211D01*
X57083800Y-97880018D01*
X57083800Y-97800000D01*
X67444540Y-97800000D01*
X67464326Y-97988256D01*
X67464327Y-97988259D01*
X67522818Y-98168277D01*
X67522821Y-98168284D01*
X67617467Y-98332216D01*
X67725666Y-98452383D01*
X67744129Y-98472888D01*
X67897265Y-98584148D01*
X67897270Y-98584151D01*
X68070192Y-98661142D01*
X68070197Y-98661144D01*
X68255354Y-98700500D01*
X68255355Y-98700500D01*
X68444644Y-98700500D01*
X68444646Y-98700500D01*
X68629803Y-98661144D01*
X68802730Y-98584151D01*
X68955871Y-98472888D01*
X69082533Y-98332216D01*
X69177179Y-98168284D01*
X69235674Y-97988256D01*
X69255460Y-97800000D01*
X69235674Y-97611744D01*
X69177179Y-97431716D01*
X69082533Y-97267784D01*
X68955871Y-97127112D01*
X68955870Y-97127111D01*
X68802734Y-97015851D01*
X68802729Y-97015848D01*
X68629807Y-96938857D01*
X68629802Y-96938855D01*
X68484001Y-96907865D01*
X68444646Y-96899500D01*
X68255354Y-96899500D01*
X68222897Y-96906398D01*
X68070197Y-96938855D01*
X68070192Y-96938857D01*
X67897270Y-97015848D01*
X67897265Y-97015851D01*
X67744129Y-97127111D01*
X67617466Y-97267785D01*
X67522821Y-97431715D01*
X67522818Y-97431722D01*
X67491320Y-97528664D01*
X67464326Y-97611744D01*
X67444540Y-97800000D01*
X57083800Y-97800000D01*
X57083800Y-97679982D01*
X57044775Y-97483789D01*
X57023206Y-97431716D01*
X56968228Y-97298986D01*
X56968221Y-97298973D01*
X56857091Y-97132656D01*
X56857088Y-97132652D01*
X56715647Y-96991211D01*
X56715643Y-96991208D01*
X56549326Y-96880078D01*
X56549313Y-96880071D01*
X56364515Y-96803526D01*
X56364503Y-96803523D01*
X56168322Y-96764500D01*
X56168318Y-96764500D01*
X55268282Y-96764500D01*
X55268277Y-96764500D01*
X55072096Y-96803523D01*
X55072084Y-96803526D01*
X54887286Y-96880071D01*
X54887273Y-96880078D01*
X54720956Y-96991208D01*
X54720952Y-96991211D01*
X54579511Y-97132652D01*
X54579508Y-97132656D01*
X54468378Y-97298973D01*
X54468371Y-97298986D01*
X54391826Y-97483784D01*
X54391823Y-97483796D01*
X54352800Y-97679977D01*
X52138942Y-97679977D01*
X52140392Y-96499983D01*
X92349500Y-96499983D01*
X92349500Y-97700001D01*
X92349501Y-97700018D01*
X92360000Y-97802796D01*
X92360001Y-97802799D01*
X92404271Y-97936395D01*
X92415186Y-97969334D01*
X92507288Y-98118656D01*
X92631344Y-98242712D01*
X92780666Y-98334814D01*
X92947203Y-98389999D01*
X93049991Y-98400500D01*
X94250008Y-98400499D01*
X94352797Y-98389999D01*
X94519334Y-98334814D01*
X94668656Y-98242712D01*
X94792712Y-98118656D01*
X94884814Y-97969334D01*
X94939999Y-97802797D01*
X94950500Y-97700009D01*
X94950499Y-96499992D01*
X94945392Y-96450000D01*
X95444540Y-96450000D01*
X95464326Y-96638256D01*
X95464327Y-96638259D01*
X95522818Y-96818277D01*
X95522821Y-96818284D01*
X95617467Y-96982216D01*
X95744129Y-97122888D01*
X95897265Y-97234148D01*
X95897270Y-97234151D01*
X96070192Y-97311142D01*
X96070197Y-97311144D01*
X96255354Y-97350500D01*
X96255355Y-97350500D01*
X96444644Y-97350500D01*
X96444646Y-97350500D01*
X96629803Y-97311144D01*
X96802730Y-97234151D01*
X96955871Y-97122888D01*
X97082533Y-96982216D01*
X97177179Y-96818284D01*
X97235674Y-96638256D01*
X97255460Y-96450000D01*
X97235674Y-96261744D01*
X97177179Y-96081716D01*
X97082533Y-95917784D01*
X96955871Y-95777112D01*
X96955870Y-95777111D01*
X96802734Y-95665851D01*
X96802729Y-95665848D01*
X96629807Y-95588857D01*
X96629802Y-95588855D01*
X96484001Y-95557865D01*
X96444646Y-95549500D01*
X96255354Y-95549500D01*
X96222897Y-95556398D01*
X96070197Y-95588855D01*
X96070192Y-95588857D01*
X95897270Y-95665848D01*
X95897265Y-95665851D01*
X95744129Y-95777111D01*
X95617466Y-95917785D01*
X95522821Y-96081715D01*
X95522818Y-96081722D01*
X95474423Y-96230668D01*
X95464326Y-96261744D01*
X95444540Y-96450000D01*
X94945392Y-96450000D01*
X94939999Y-96397203D01*
X94884814Y-96230666D01*
X94792712Y-96081344D01*
X94668656Y-95957288D01*
X94561129Y-95890965D01*
X94519336Y-95865187D01*
X94519331Y-95865185D01*
X94449357Y-95841998D01*
X94352797Y-95810001D01*
X94352795Y-95810000D01*
X94250010Y-95799500D01*
X93049998Y-95799500D01*
X93049981Y-95799501D01*
X92947203Y-95810000D01*
X92947200Y-95810001D01*
X92780668Y-95865185D01*
X92780663Y-95865187D01*
X92631342Y-95957289D01*
X92507289Y-96081342D01*
X92415187Y-96230663D01*
X92415186Y-96230666D01*
X92360001Y-96397203D01*
X92360001Y-96397204D01*
X92360000Y-96397204D01*
X92349500Y-96499983D01*
X52140392Y-96499983D01*
X52142726Y-94600000D01*
X105094540Y-94600000D01*
X105114326Y-94788256D01*
X105114327Y-94788259D01*
X105172818Y-94968277D01*
X105172821Y-94968284D01*
X105267467Y-95132216D01*
X105331052Y-95202834D01*
X105394129Y-95272888D01*
X105547265Y-95384148D01*
X105547270Y-95384151D01*
X105720192Y-95461142D01*
X105720197Y-95461144D01*
X105905354Y-95500500D01*
X105905355Y-95500500D01*
X106094644Y-95500500D01*
X106094646Y-95500500D01*
X106279803Y-95461144D01*
X106452730Y-95384151D01*
X106605871Y-95272888D01*
X106732533Y-95132216D01*
X106827179Y-94968284D01*
X106885674Y-94788256D01*
X106905460Y-94600000D01*
X106897577Y-94524999D01*
X111962641Y-94524999D01*
X111962641Y-94525000D01*
X111983236Y-94760403D01*
X111983238Y-94760413D01*
X112044394Y-94988655D01*
X112044396Y-94988659D01*
X112044397Y-94988663D01*
X112111336Y-95132214D01*
X112144265Y-95202830D01*
X112144267Y-95202834D01*
X112193320Y-95272888D01*
X112271227Y-95384151D01*
X112279801Y-95396395D01*
X112279806Y-95396402D01*
X112446897Y-95563493D01*
X112446903Y-95563498D01*
X112632458Y-95693425D01*
X112676083Y-95748002D01*
X112683277Y-95817500D01*
X112651754Y-95879855D01*
X112632458Y-95896575D01*
X112446897Y-96026505D01*
X112279805Y-96193597D01*
X112144265Y-96387169D01*
X112144264Y-96387171D01*
X112044398Y-96601335D01*
X112044394Y-96601344D01*
X111983238Y-96829586D01*
X111983236Y-96829596D01*
X111962641Y-97064999D01*
X111962641Y-97065000D01*
X111983236Y-97300403D01*
X111983238Y-97300413D01*
X112044394Y-97528655D01*
X112044396Y-97528659D01*
X112044397Y-97528663D01*
X112124301Y-97700018D01*
X112144265Y-97742830D01*
X112144267Y-97742834D01*
X112188474Y-97805967D01*
X112279801Y-97936396D01*
X112279806Y-97936402D01*
X112401730Y-98058326D01*
X112435215Y-98119649D01*
X112430231Y-98189341D01*
X112388359Y-98245274D01*
X112357383Y-98262189D01*
X112225969Y-98311203D01*
X112225964Y-98311206D01*
X112110755Y-98397452D01*
X112110752Y-98397455D01*
X112024506Y-98512664D01*
X112024504Y-98512669D01*
X111974208Y-98647517D01*
X111967801Y-98707116D01*
X111967801Y-98707123D01*
X111967800Y-98707135D01*
X111967800Y-100502870D01*
X111967801Y-100502876D01*
X111974208Y-100562483D01*
X112024502Y-100697328D01*
X112024506Y-100697335D01*
X112110752Y-100812544D01*
X112110755Y-100812547D01*
X112225964Y-100898793D01*
X112225971Y-100898797D01*
X112360817Y-100949091D01*
X112360816Y-100949091D01*
X112367744Y-100949835D01*
X112420427Y-100955500D01*
X114216172Y-100955499D01*
X114275783Y-100949091D01*
X114410631Y-100898796D01*
X114525846Y-100812546D01*
X114612096Y-100697331D01*
X114662391Y-100562483D01*
X114668800Y-100502873D01*
X114668799Y-98707128D01*
X114662391Y-98647517D01*
X114612096Y-98512669D01*
X114612093Y-98512664D01*
X114525847Y-98397455D01*
X114525844Y-98397452D01*
X114410635Y-98311206D01*
X114410628Y-98311202D01*
X114279217Y-98262189D01*
X114223283Y-98220318D01*
X114198866Y-98154853D01*
X114213718Y-98086580D01*
X114234863Y-98058332D01*
X114356795Y-97936401D01*
X114492335Y-97742830D01*
X114592203Y-97528663D01*
X114653363Y-97300408D01*
X114673959Y-97065000D01*
X114653363Y-96829592D01*
X114592203Y-96601337D01*
X114492335Y-96387171D01*
X114404511Y-96261744D01*
X114356794Y-96193597D01*
X114189702Y-96026506D01*
X114189696Y-96026501D01*
X114004142Y-95896575D01*
X113960517Y-95841998D01*
X113953323Y-95772500D01*
X113984846Y-95710145D01*
X114004142Y-95693425D01*
X114153480Y-95588857D01*
X114189701Y-95563495D01*
X114356795Y-95396401D01*
X114492335Y-95202830D01*
X114592203Y-94988663D01*
X114653363Y-94760408D01*
X114673959Y-94525000D01*
X114653363Y-94289592D01*
X114593931Y-94067785D01*
X114592205Y-94061344D01*
X114592204Y-94061343D01*
X114592203Y-94061337D01*
X114492335Y-93847171D01*
X114470404Y-93815849D01*
X114356794Y-93653597D01*
X114189702Y-93486506D01*
X114189695Y-93486501D01*
X113996134Y-93350967D01*
X113996130Y-93350965D01*
X113996128Y-93350964D01*
X113781963Y-93251097D01*
X113781959Y-93251096D01*
X113781955Y-93251094D01*
X113553713Y-93189938D01*
X113553703Y-93189936D01*
X113318301Y-93169341D01*
X113318299Y-93169341D01*
X113082896Y-93189936D01*
X113082886Y-93189938D01*
X112854644Y-93251094D01*
X112854635Y-93251098D01*
X112640471Y-93350964D01*
X112640469Y-93350965D01*
X112446897Y-93486505D01*
X112279805Y-93653597D01*
X112144265Y-93847169D01*
X112144264Y-93847171D01*
X112044398Y-94061335D01*
X112044394Y-94061344D01*
X111983238Y-94289586D01*
X111983236Y-94289596D01*
X111962641Y-94524999D01*
X106897577Y-94524999D01*
X106885674Y-94411744D01*
X106827179Y-94231716D01*
X106732533Y-94067784D01*
X106605871Y-93927112D01*
X106605870Y-93927111D01*
X106452734Y-93815851D01*
X106452729Y-93815848D01*
X106279807Y-93738857D01*
X106279802Y-93738855D01*
X106134001Y-93707865D01*
X106094646Y-93699500D01*
X105905354Y-93699500D01*
X105872897Y-93706398D01*
X105720197Y-93738855D01*
X105720192Y-93738857D01*
X105547270Y-93815848D01*
X105547265Y-93815851D01*
X105394129Y-93927111D01*
X105267466Y-94067785D01*
X105172821Y-94231715D01*
X105172818Y-94231722D01*
X105114327Y-94411740D01*
X105114326Y-94411744D01*
X105094540Y-94600000D01*
X52142726Y-94600000D01*
X52144569Y-93099986D01*
X93700001Y-93099986D01*
X93710494Y-93202697D01*
X93765641Y-93369119D01*
X93765643Y-93369124D01*
X93857684Y-93518345D01*
X93981654Y-93642315D01*
X94130875Y-93734356D01*
X94130880Y-93734358D01*
X94297302Y-93789505D01*
X94297309Y-93789506D01*
X94400019Y-93799999D01*
X94749999Y-93799999D01*
X95250000Y-93799999D01*
X95599972Y-93799999D01*
X95599986Y-93799998D01*
X95702697Y-93789505D01*
X95869119Y-93734358D01*
X95869124Y-93734356D01*
X96018345Y-93642315D01*
X96142315Y-93518345D01*
X96234356Y-93369124D01*
X96234358Y-93369119D01*
X96289505Y-93202697D01*
X96289506Y-93202690D01*
X96299999Y-93099986D01*
X96300000Y-93099973D01*
X96300000Y-92750000D01*
X95250000Y-92750000D01*
X95250000Y-93799999D01*
X94749999Y-93799999D01*
X94750000Y-93799998D01*
X94750000Y-92750000D01*
X93700001Y-92750000D01*
X93700001Y-93099986D01*
X52144569Y-93099986D01*
X52145355Y-92460504D01*
X94700000Y-92460504D01*
X94700000Y-92539496D01*
X94720444Y-92615796D01*
X94759940Y-92684205D01*
X94815795Y-92740060D01*
X94884204Y-92779556D01*
X94960504Y-92800000D01*
X95039496Y-92800000D01*
X95115796Y-92779556D01*
X95184205Y-92740060D01*
X95240060Y-92684205D01*
X95279556Y-92615796D01*
X95300000Y-92539496D01*
X95300000Y-92460504D01*
X95279556Y-92384204D01*
X95240060Y-92315795D01*
X95184205Y-92259940D01*
X95166988Y-92250000D01*
X95250000Y-92250000D01*
X96299999Y-92250000D01*
X96299999Y-91900028D01*
X96299998Y-91900013D01*
X96289505Y-91797302D01*
X96234358Y-91630880D01*
X96234356Y-91630875D01*
X96142315Y-91481654D01*
X96018345Y-91357684D01*
X95869124Y-91265643D01*
X95869119Y-91265641D01*
X95702697Y-91210494D01*
X95702690Y-91210493D01*
X95599986Y-91200000D01*
X95250000Y-91200000D01*
X95250000Y-92250000D01*
X95166988Y-92250000D01*
X95115796Y-92220444D01*
X95039496Y-92200000D01*
X94960504Y-92200000D01*
X94884204Y-92220444D01*
X94815795Y-92259940D01*
X94759940Y-92315795D01*
X94720444Y-92384204D01*
X94700000Y-92460504D01*
X52145355Y-92460504D01*
X52146043Y-91900013D01*
X93700000Y-91900013D01*
X93700000Y-92250000D01*
X94750000Y-92250000D01*
X94750000Y-91200000D01*
X94400028Y-91200000D01*
X94400012Y-91200001D01*
X94297302Y-91210494D01*
X94130880Y-91265641D01*
X94130875Y-91265643D01*
X93981654Y-91357684D01*
X93857684Y-91481654D01*
X93765643Y-91630875D01*
X93765641Y-91630880D01*
X93710494Y-91797302D01*
X93710493Y-91797309D01*
X93700000Y-91900013D01*
X52146043Y-91900013D01*
X52149545Y-89049998D01*
X53644390Y-89049998D01*
X53644390Y-89050001D01*
X53664804Y-89335433D01*
X53725628Y-89615037D01*
X53825635Y-89883166D01*
X53962770Y-90134309D01*
X53962775Y-90134317D01*
X54134254Y-90363387D01*
X54134270Y-90363405D01*
X54336594Y-90565729D01*
X54336612Y-90565745D01*
X54565682Y-90737224D01*
X54565690Y-90737229D01*
X54816833Y-90874364D01*
X54816832Y-90874364D01*
X54816836Y-90874365D01*
X54816839Y-90874367D01*
X55084954Y-90974369D01*
X55084960Y-90974370D01*
X55084962Y-90974371D01*
X55364566Y-91035195D01*
X55364568Y-91035195D01*
X55364572Y-91035196D01*
X55618220Y-91053337D01*
X55649999Y-91055610D01*
X55650000Y-91055610D01*
X55650001Y-91055610D01*
X55678595Y-91053564D01*
X55935428Y-91035196D01*
X56215046Y-90974369D01*
X56483161Y-90874367D01*
X56734315Y-90737226D01*
X56963395Y-90565739D01*
X57165739Y-90363395D01*
X57337226Y-90134315D01*
X57474367Y-89883161D01*
X57574369Y-89615046D01*
X57635196Y-89335428D01*
X57655610Y-89050000D01*
X57644882Y-88899998D01*
X133294390Y-88899998D01*
X133294390Y-88900001D01*
X133314804Y-89185433D01*
X133375628Y-89465037D01*
X133475635Y-89733166D01*
X133612770Y-89984309D01*
X133612775Y-89984317D01*
X133784254Y-90213387D01*
X133784270Y-90213405D01*
X133986594Y-90415729D01*
X133986612Y-90415745D01*
X134215682Y-90587224D01*
X134215690Y-90587229D01*
X134466833Y-90724364D01*
X134466832Y-90724364D01*
X134466836Y-90724365D01*
X134466839Y-90724367D01*
X134734954Y-90824369D01*
X134734960Y-90824370D01*
X134734962Y-90824371D01*
X135014566Y-90885195D01*
X135014568Y-90885195D01*
X135014572Y-90885196D01*
X135268220Y-90903337D01*
X135299999Y-90905610D01*
X135300000Y-90905610D01*
X135300001Y-90905610D01*
X135328595Y-90903564D01*
X135585428Y-90885196D01*
X135635209Y-90874367D01*
X135865037Y-90824371D01*
X135865037Y-90824370D01*
X135865046Y-90824369D01*
X136133161Y-90724367D01*
X136384315Y-90587226D01*
X136613395Y-90415739D01*
X136815739Y-90213395D01*
X136987226Y-89984315D01*
X137124367Y-89733161D01*
X137224369Y-89465046D01*
X137285196Y-89185428D01*
X137305610Y-88900000D01*
X137285196Y-88614572D01*
X137256999Y-88484954D01*
X137224371Y-88334962D01*
X137224370Y-88334960D01*
X137224369Y-88334954D01*
X137124367Y-88066839D01*
X137069135Y-87965690D01*
X136987229Y-87815690D01*
X136987224Y-87815682D01*
X136815745Y-87586612D01*
X136815729Y-87586594D01*
X136613405Y-87384270D01*
X136613387Y-87384254D01*
X136384317Y-87212775D01*
X136384309Y-87212770D01*
X136133166Y-87075635D01*
X136133167Y-87075635D01*
X136025915Y-87035632D01*
X135865046Y-86975631D01*
X135865043Y-86975630D01*
X135865037Y-86975628D01*
X135585433Y-86914804D01*
X135300001Y-86894390D01*
X135299999Y-86894390D01*
X135014566Y-86914804D01*
X134734962Y-86975628D01*
X134466833Y-87075635D01*
X134215690Y-87212770D01*
X134215682Y-87212775D01*
X133986612Y-87384254D01*
X133986594Y-87384270D01*
X133784270Y-87586594D01*
X133784254Y-87586612D01*
X133612775Y-87815682D01*
X133612770Y-87815690D01*
X133475635Y-88066833D01*
X133375628Y-88334962D01*
X133314804Y-88614566D01*
X133294390Y-88899998D01*
X57644882Y-88899998D01*
X57635196Y-88764572D01*
X57602564Y-88614566D01*
X57574371Y-88484962D01*
X57574370Y-88484960D01*
X57574369Y-88484954D01*
X57474367Y-88216839D01*
X57392460Y-88066839D01*
X57337229Y-87965690D01*
X57337224Y-87965682D01*
X57165745Y-87736612D01*
X57165729Y-87736594D01*
X56963405Y-87534270D01*
X56963387Y-87534254D01*
X56734317Y-87362775D01*
X56734309Y-87362770D01*
X56483166Y-87225635D01*
X56483167Y-87225635D01*
X56375915Y-87185632D01*
X56215046Y-87125631D01*
X56215043Y-87125630D01*
X56215037Y-87125628D01*
X55935433Y-87064804D01*
X55650001Y-87044390D01*
X55649999Y-87044390D01*
X55364566Y-87064804D01*
X55084962Y-87125628D01*
X54816833Y-87225635D01*
X54565690Y-87362770D01*
X54565682Y-87362775D01*
X54336612Y-87534254D01*
X54336594Y-87534270D01*
X54134270Y-87736594D01*
X54134254Y-87736612D01*
X53962775Y-87965682D01*
X53962770Y-87965690D01*
X53825635Y-88216833D01*
X53725628Y-88484962D01*
X53664804Y-88764566D01*
X53644390Y-89049998D01*
X52149545Y-89049998D01*
X52150000Y-88680000D01*
X52150000Y-86650000D01*
X52150000Y-85300000D01*
X66594540Y-85300000D01*
X66614326Y-85488256D01*
X66614327Y-85488259D01*
X66672818Y-85668277D01*
X66672821Y-85668284D01*
X66767467Y-85832216D01*
X66809426Y-85878816D01*
X66894129Y-85972888D01*
X67047265Y-86084148D01*
X67047270Y-86084151D01*
X67220192Y-86161142D01*
X67220197Y-86161144D01*
X67405354Y-86200500D01*
X67405355Y-86200500D01*
X67594644Y-86200500D01*
X67594646Y-86200500D01*
X67779803Y-86161144D01*
X67952730Y-86084151D01*
X68105871Y-85972888D01*
X68232533Y-85832216D01*
X68327179Y-85668284D01*
X68385674Y-85488256D01*
X68400562Y-85346600D01*
X83537740Y-85346600D01*
X83557526Y-85534856D01*
X83557527Y-85534859D01*
X83616018Y-85714877D01*
X83616021Y-85714884D01*
X83710667Y-85878816D01*
X83795370Y-85972888D01*
X83837329Y-86019488D01*
X83990465Y-86130748D01*
X83990470Y-86130751D01*
X84163392Y-86207742D01*
X84163397Y-86207744D01*
X84348554Y-86247100D01*
X84348555Y-86247100D01*
X84537844Y-86247100D01*
X84537846Y-86247100D01*
X84723003Y-86207744D01*
X84895930Y-86130751D01*
X85049071Y-86019488D01*
X85175733Y-85878816D01*
X85270379Y-85714884D01*
X85328874Y-85534856D01*
X85348660Y-85346600D01*
X85328874Y-85158344D01*
X85270379Y-84978316D01*
X85254031Y-84950000D01*
X100291140Y-84950000D01*
X100310926Y-85138256D01*
X100310927Y-85138259D01*
X100369418Y-85318277D01*
X100369421Y-85318284D01*
X100464067Y-85482216D01*
X100585824Y-85617440D01*
X100590729Y-85622888D01*
X100743865Y-85734148D01*
X100743870Y-85734151D01*
X100916792Y-85811142D01*
X100916797Y-85811144D01*
X101101954Y-85850500D01*
X101101955Y-85850500D01*
X101291244Y-85850500D01*
X101291246Y-85850500D01*
X101476403Y-85811144D01*
X101488630Y-85805700D01*
X117591140Y-85805700D01*
X117610926Y-85993956D01*
X117610927Y-85993959D01*
X117669418Y-86173977D01*
X117669421Y-86173984D01*
X117764067Y-86337916D01*
X117890729Y-86478588D01*
X118043865Y-86589848D01*
X118043870Y-86589851D01*
X118216792Y-86666842D01*
X118216797Y-86666844D01*
X118401954Y-86706200D01*
X118401955Y-86706200D01*
X118591244Y-86706200D01*
X118591246Y-86706200D01*
X118776403Y-86666844D01*
X118949330Y-86589851D01*
X119102471Y-86478588D01*
X119229133Y-86337916D01*
X119323779Y-86173984D01*
X119382274Y-85993956D01*
X119402060Y-85805700D01*
X119382274Y-85617444D01*
X119323779Y-85437416D01*
X119229133Y-85273484D01*
X119102471Y-85132812D01*
X119102470Y-85132811D01*
X118949334Y-85021551D01*
X118949329Y-85021548D01*
X118776407Y-84944557D01*
X118776402Y-84944555D01*
X118630601Y-84913565D01*
X118591246Y-84905200D01*
X118401954Y-84905200D01*
X118369497Y-84912098D01*
X118216797Y-84944555D01*
X118216792Y-84944557D01*
X118043870Y-85021548D01*
X118043865Y-85021551D01*
X117890729Y-85132811D01*
X117764066Y-85273485D01*
X117669421Y-85437415D01*
X117669418Y-85437422D01*
X117610927Y-85617440D01*
X117610926Y-85617444D01*
X117591140Y-85805700D01*
X101488630Y-85805700D01*
X101649330Y-85734151D01*
X101802471Y-85622888D01*
X101929133Y-85482216D01*
X102023779Y-85318284D01*
X102082274Y-85138256D01*
X102102060Y-84950000D01*
X102082274Y-84761744D01*
X102023779Y-84581716D01*
X101929133Y-84417784D01*
X101802471Y-84277112D01*
X101802470Y-84277111D01*
X101649334Y-84165851D01*
X101649329Y-84165848D01*
X101476407Y-84088857D01*
X101476402Y-84088855D01*
X101330601Y-84057865D01*
X101291246Y-84049500D01*
X101101954Y-84049500D01*
X101069497Y-84056398D01*
X100916797Y-84088855D01*
X100916792Y-84088857D01*
X100743870Y-84165848D01*
X100743865Y-84165851D01*
X100590729Y-84277111D01*
X100464066Y-84417785D01*
X100369421Y-84581715D01*
X100369418Y-84581722D01*
X100310927Y-84761740D01*
X100310926Y-84761744D01*
X100291140Y-84950000D01*
X85254031Y-84950000D01*
X85175733Y-84814384D01*
X85049071Y-84673712D01*
X85049070Y-84673711D01*
X84895934Y-84562451D01*
X84895929Y-84562448D01*
X84723007Y-84485457D01*
X84723002Y-84485455D01*
X84577201Y-84454465D01*
X84537846Y-84446100D01*
X84348554Y-84446100D01*
X84316097Y-84452998D01*
X84163397Y-84485455D01*
X84163392Y-84485457D01*
X83990470Y-84562448D01*
X83990465Y-84562451D01*
X83837329Y-84673711D01*
X83710666Y-84814385D01*
X83616021Y-84978315D01*
X83616018Y-84978322D01*
X83564053Y-85138256D01*
X83557526Y-85158344D01*
X83537740Y-85346600D01*
X68400562Y-85346600D01*
X68405460Y-85300000D01*
X68385674Y-85111744D01*
X68327179Y-84931716D01*
X68232533Y-84767784D01*
X68105871Y-84627112D01*
X68105870Y-84627111D01*
X67952734Y-84515851D01*
X67952729Y-84515848D01*
X67779807Y-84438857D01*
X67779802Y-84438855D01*
X67634001Y-84407865D01*
X67594646Y-84399500D01*
X67405354Y-84399500D01*
X67372897Y-84406398D01*
X67220197Y-84438855D01*
X67220192Y-84438857D01*
X67047270Y-84515848D01*
X67047265Y-84515851D01*
X66894129Y-84627111D01*
X66767466Y-84767785D01*
X66672821Y-84931715D01*
X66672818Y-84931722D01*
X66614327Y-85111740D01*
X66614326Y-85111744D01*
X66594540Y-85300000D01*
X52150000Y-85300000D01*
X52150000Y-82950604D01*
X52150006Y-82949388D01*
X52174585Y-80442328D01*
X52194096Y-78452135D01*
X55724500Y-78452135D01*
X55724500Y-80247870D01*
X55724501Y-80247876D01*
X55730908Y-80307483D01*
X55781202Y-80442328D01*
X55781206Y-80442335D01*
X55867452Y-80557544D01*
X55867455Y-80557547D01*
X55982664Y-80643793D01*
X55982671Y-80643797D01*
X56117517Y-80694091D01*
X56117516Y-80694091D01*
X56124444Y-80694835D01*
X56177127Y-80700500D01*
X57972872Y-80700499D01*
X58032483Y-80694091D01*
X58167331Y-80643796D01*
X58282546Y-80557546D01*
X58368796Y-80442331D01*
X58417810Y-80310916D01*
X58459681Y-80254984D01*
X58525145Y-80230566D01*
X58593418Y-80245417D01*
X58621673Y-80266569D01*
X58743599Y-80388495D01*
X58840384Y-80456265D01*
X58937165Y-80524032D01*
X58937167Y-80524033D01*
X58937170Y-80524035D01*
X59151337Y-80623903D01*
X59379592Y-80685063D01*
X59556034Y-80700500D01*
X59614999Y-80705659D01*
X59615000Y-80705659D01*
X59615001Y-80705659D01*
X59673966Y-80700500D01*
X59850408Y-80685063D01*
X60078663Y-80623903D01*
X60292830Y-80524035D01*
X60486401Y-80388495D01*
X60653495Y-80221401D01*
X60789035Y-80027830D01*
X60888903Y-79813663D01*
X60950063Y-79585408D01*
X60970659Y-79350000D01*
X60950063Y-79114592D01*
X60888903Y-78886337D01*
X60789035Y-78672171D01*
X60653495Y-78478599D01*
X60653494Y-78478597D01*
X60486402Y-78311506D01*
X60486395Y-78311501D01*
X60292834Y-78175967D01*
X60292830Y-78175965D01*
X60292828Y-78175964D01*
X60078663Y-78076097D01*
X60078659Y-78076096D01*
X60078655Y-78076094D01*
X59850413Y-78014938D01*
X59850403Y-78014936D01*
X59615001Y-77994341D01*
X59614999Y-77994341D01*
X59379596Y-78014936D01*
X59379586Y-78014938D01*
X59151344Y-78076094D01*
X59151335Y-78076098D01*
X58937171Y-78175964D01*
X58937169Y-78175965D01*
X58743600Y-78311503D01*
X58621673Y-78433430D01*
X58560350Y-78466914D01*
X58490658Y-78461930D01*
X58434725Y-78420058D01*
X58417810Y-78389081D01*
X58368797Y-78257671D01*
X58368793Y-78257664D01*
X58282547Y-78142455D01*
X58282544Y-78142452D01*
X58167335Y-78056206D01*
X58167328Y-78056202D01*
X58032482Y-78005908D01*
X58032483Y-78005908D01*
X57972883Y-77999501D01*
X57972881Y-77999500D01*
X57972873Y-77999500D01*
X57972864Y-77999500D01*
X56177129Y-77999500D01*
X56177123Y-77999501D01*
X56117516Y-78005908D01*
X55982671Y-78056202D01*
X55982664Y-78056206D01*
X55867455Y-78142452D01*
X55867452Y-78142455D01*
X55781206Y-78257664D01*
X55781202Y-78257671D01*
X55730908Y-78392517D01*
X55724501Y-78452116D01*
X55724500Y-78452135D01*
X52194096Y-78452135D01*
X52199589Y-77891863D01*
X52219930Y-77825022D01*
X52225691Y-77816968D01*
X52520777Y-77437571D01*
X52577474Y-77396740D01*
X52596855Y-77391632D01*
X53939158Y-77151935D01*
X53961012Y-77150006D01*
X134300000Y-77200000D01*
G37*
%TD.AperFunction*%
%TD*%
M02*
