%TF.GenerationSoftware,KiCad,Pcbnew,8.0.6*%
%TF.CreationDate,2024-12-13T11:58:04-05:00*%
%TF.ProjectId,11_9_design,31315f39-5f64-4657-9369-676e2e6b6963,v6*%
%TF.SameCoordinates,Original*%
%TF.FileFunction,Paste,Top*%
%TF.FilePolarity,Positive*%
%FSLAX46Y46*%
G04 Gerber Fmt 4.6, Leading zero omitted, Abs format (unit mm)*
G04 Created by KiCad (PCBNEW 8.0.6) date 2024-12-13 11:58:04*
%MOMM*%
%LPD*%
G01*
G04 APERTURE LIST*
G04 Aperture macros list*
%AMRoundRect*
0 Rectangle with rounded corners*
0 $1 Rounding radius*
0 $2 $3 $4 $5 $6 $7 $8 $9 X,Y pos of 4 corners*
0 Add a 4 corners polygon primitive as box body*
4,1,4,$2,$3,$4,$5,$6,$7,$8,$9,$2,$3,0*
0 Add four circle primitives for the rounded corners*
1,1,$1+$1,$2,$3*
1,1,$1+$1,$4,$5*
1,1,$1+$1,$6,$7*
1,1,$1+$1,$8,$9*
0 Add four rect primitives between the rounded corners*
20,1,$1+$1,$2,$3,$4,$5,0*
20,1,$1+$1,$4,$5,$6,$7,0*
20,1,$1+$1,$6,$7,$8,$9,0*
20,1,$1+$1,$8,$9,$2,$3,0*%
G04 Aperture macros list end*
%ADD10RoundRect,0.200000X0.200000X0.275000X-0.200000X0.275000X-0.200000X-0.275000X0.200000X-0.275000X0*%
%ADD11RoundRect,0.200000X0.275000X-0.200000X0.275000X0.200000X-0.275000X0.200000X-0.275000X-0.200000X0*%
%ADD12RoundRect,0.200000X-0.275000X0.200000X-0.275000X-0.200000X0.275000X-0.200000X0.275000X0.200000X0*%
%ADD13RoundRect,0.225000X0.225000X0.250000X-0.225000X0.250000X-0.225000X-0.250000X0.225000X-0.250000X0*%
%ADD14RoundRect,0.218750X-0.256250X0.218750X-0.256250X-0.218750X0.256250X-0.218750X0.256250X0.218750X0*%
%ADD15RoundRect,0.200000X-0.200000X-0.275000X0.200000X-0.275000X0.200000X0.275000X-0.200000X0.275000X0*%
%ADD16RoundRect,0.250001X-1.074999X0.462499X-1.074999X-0.462499X1.074999X-0.462499X1.074999X0.462499X0*%
%ADD17RoundRect,0.225000X-0.250000X0.225000X-0.250000X-0.225000X0.250000X-0.225000X0.250000X0.225000X0*%
%ADD18RoundRect,0.075000X-0.700000X-0.075000X0.700000X-0.075000X0.700000X0.075000X-0.700000X0.075000X0*%
%ADD19RoundRect,0.075000X-0.075000X-0.700000X0.075000X-0.700000X0.075000X0.700000X-0.075000X0.700000X0*%
%ADD20R,2.108200X1.397000*%
%ADD21RoundRect,0.225000X-0.225000X-0.250000X0.225000X-0.250000X0.225000X0.250000X-0.225000X0.250000X0*%
%ADD22R,0.599999X1.000000*%
G04 APERTURE END LIST*
D10*
%TO.C,R10*%
X124943300Y-116030000D03*
X123293300Y-116030000D03*
%TD*%
D11*
%TO.C,R15*%
X69450000Y-121675000D03*
X69450000Y-120025000D03*
%TD*%
D12*
%TO.C,R5*%
X116475000Y-121750000D03*
X116475000Y-120100000D03*
%TD*%
D13*
%TO.C,C1*%
X95243300Y-118630000D03*
X93693300Y-118630000D03*
%TD*%
D11*
%TO.C,R19*%
X125100000Y-95775000D03*
X125100000Y-94125000D03*
%TD*%
D14*
%TO.C,FB1*%
X91493300Y-116305000D03*
X91493300Y-117880000D03*
%TD*%
D15*
%TO.C,R18*%
X87718300Y-96480000D03*
X89368300Y-96480000D03*
%TD*%
D16*
%TO.C,L2*%
X59468300Y-120955000D03*
X59468300Y-123930000D03*
%TD*%
D15*
%TO.C,R16*%
X66268300Y-118830000D03*
X67918300Y-118830000D03*
%TD*%
D13*
%TO.C,C10*%
X89743300Y-115930000D03*
X88193300Y-115930000D03*
%TD*%
D15*
%TO.C,R4*%
X62368300Y-118680000D03*
X64018300Y-118680000D03*
%TD*%
D17*
%TO.C,CO1*%
X68268300Y-109405000D03*
X68268300Y-110955000D03*
%TD*%
D15*
%TO.C,R3*%
X84275000Y-128950000D03*
X85925000Y-128950000D03*
%TD*%
D10*
%TO.C,R7*%
X115643300Y-117580000D03*
X117293300Y-117580000D03*
%TD*%
D16*
%TO.C,L1*%
X58618300Y-107842500D03*
X58618300Y-110817500D03*
%TD*%
D11*
%TO.C,R21*%
X74668300Y-97555000D03*
X74668300Y-95905000D03*
%TD*%
D17*
%TO.C,C5*%
X108418300Y-105455000D03*
X108418300Y-107005000D03*
%TD*%
%TO.C,C6*%
X106118300Y-105430000D03*
X106118300Y-106980000D03*
%TD*%
%TO.C,CO2*%
X69518300Y-123430000D03*
X69518300Y-124980000D03*
%TD*%
D10*
%TO.C,R1*%
X90693300Y-127180000D03*
X89043300Y-127180000D03*
%TD*%
D18*
%TO.C,U1*%
X92450000Y-106600000D03*
X92450000Y-107100000D03*
X92450000Y-107600000D03*
X92450000Y-108100000D03*
X92450000Y-108600000D03*
X92450000Y-109100000D03*
X92450000Y-109600000D03*
X92450000Y-110100000D03*
X92450000Y-110600000D03*
X92450000Y-111100000D03*
X92450000Y-111600000D03*
X92450000Y-112100000D03*
X92450000Y-112600000D03*
X92450000Y-113100000D03*
X92450000Y-113600000D03*
X92450000Y-114100000D03*
D19*
X94375000Y-116025000D03*
X94875000Y-116025000D03*
X95375000Y-116025000D03*
X95875000Y-116025000D03*
X96375000Y-116025000D03*
X96875000Y-116025000D03*
X97375000Y-116025000D03*
X97875000Y-116025000D03*
X98375000Y-116025000D03*
X98875000Y-116025000D03*
X99375000Y-116025000D03*
X99875000Y-116025000D03*
X100375000Y-116025000D03*
X100875000Y-116025000D03*
X101375000Y-116025000D03*
X101875000Y-116025000D03*
D18*
X103800000Y-114100000D03*
X103800000Y-113600000D03*
X103800000Y-113100000D03*
X103800000Y-112600000D03*
X103800000Y-112100000D03*
X103800000Y-111600000D03*
X103800000Y-111100000D03*
X103800000Y-110600000D03*
X103800000Y-110100000D03*
X103800000Y-109600000D03*
X103800000Y-109100000D03*
X103800000Y-108600000D03*
X103800000Y-108100000D03*
X103800000Y-107600000D03*
X103800000Y-107100000D03*
X103800000Y-106600000D03*
D19*
X101875000Y-104675000D03*
X101375000Y-104675000D03*
X100875000Y-104675000D03*
X100375000Y-104675000D03*
X99875000Y-104675000D03*
X99375000Y-104675000D03*
X98875000Y-104675000D03*
X98375000Y-104675000D03*
X97875000Y-104675000D03*
X97375000Y-104675000D03*
X96875000Y-104675000D03*
X96375000Y-104675000D03*
X95875000Y-104675000D03*
X95375000Y-104675000D03*
X94875000Y-104675000D03*
X94375000Y-104675000D03*
%TD*%
D10*
%TO.C,R9*%
X124893300Y-107280000D03*
X123243300Y-107280000D03*
%TD*%
%TO.C,R11*%
X125043300Y-110380000D03*
X123393300Y-110380000D03*
%TD*%
D11*
%TO.C,R13*%
X68368300Y-107580000D03*
X68368300Y-105930000D03*
%TD*%
D15*
%TO.C,R6*%
X66625000Y-96350000D03*
X68275000Y-96350000D03*
%TD*%
%TO.C,R2*%
X60475000Y-105250000D03*
X62125000Y-105250000D03*
%TD*%
D20*
%TO.C,S4*%
X117953400Y-78764800D03*
X127046600Y-78764800D03*
X117953400Y-83235200D03*
X127046600Y-83235200D03*
%TD*%
D11*
%TO.C,R17*%
X110518300Y-98330000D03*
X110518300Y-96680000D03*
%TD*%
D13*
%TO.C,C9*%
X89725000Y-118150000D03*
X88175000Y-118150000D03*
%TD*%
D15*
%TO.C,R20*%
X65643300Y-112930000D03*
X67293300Y-112930000D03*
%TD*%
D10*
%TO.C,R8*%
X93500000Y-99450000D03*
X91850000Y-99450000D03*
%TD*%
D21*
%TO.C,C3*%
X92968300Y-102580000D03*
X94518300Y-102580000D03*
%TD*%
D15*
%TO.C,R22*%
X88975000Y-109450000D03*
X90625000Y-109450000D03*
%TD*%
D10*
%TO.C,R12*%
X124468300Y-113830000D03*
X122818300Y-113830000D03*
%TD*%
%TO.C,R14*%
X65943300Y-104880000D03*
X64293300Y-104880000D03*
%TD*%
D17*
%TO.C,CI2*%
X63218300Y-121680000D03*
X63218300Y-123230000D03*
%TD*%
%TO.C,C7*%
X123325000Y-117775000D03*
X123325000Y-119325000D03*
%TD*%
D20*
%TO.C,S2*%
X84403400Y-78614800D03*
X93496600Y-78614800D03*
X84403400Y-83085200D03*
X93496600Y-83085200D03*
%TD*%
D13*
%TO.C,C4*%
X103225000Y-118400000D03*
X101675000Y-118400000D03*
%TD*%
D17*
%TO.C,CI1*%
X61818300Y-108405000D03*
X61818300Y-109955000D03*
%TD*%
D21*
%TO.C,C11*%
X104643300Y-116280000D03*
X106193300Y-116280000D03*
%TD*%
D20*
%TO.C,S3*%
X101206800Y-78729600D03*
X110300000Y-78729600D03*
X101206800Y-83200000D03*
X110300000Y-83200000D03*
%TD*%
D22*
%TO.C,U4*%
X65318299Y-123555001D03*
X66268300Y-123555001D03*
X67218298Y-123555001D03*
X67218298Y-120805001D03*
X66268300Y-120805001D03*
X65318299Y-120805001D03*
%TD*%
%TO.C,U3*%
X63949999Y-110725001D03*
X64900000Y-110725001D03*
X65849998Y-110725001D03*
X65849998Y-107975001D03*
X64900000Y-107975001D03*
X63949999Y-107975001D03*
%TD*%
D20*
%TO.C,S1*%
X67453400Y-78764800D03*
X76546600Y-78764800D03*
X67453400Y-83235200D03*
X76546600Y-83235200D03*
%TD*%
M02*
